<?xml version="1.0" encoding="UTF-8"?>
<svg id="Layer_1" data-name="Layer 1" xmlns="http://www.w3.org/2000/svg" width="3660" height="800" xmlns:xlink="http://www.w3.org/1999/xlink" viewBox="0 0 3660 800">
  <defs>
    <style>
      .cls-1 {
        fill: #65b2af;
      }

      .cls-2 {
        fill: #4d878a;
      }

      .cls-3 {
        fill: url(#linear-gradient);
      }

      .cls-4 {
        fill: #69eddd;
      }

      .cls-5 {
        fill: #3b5e68;
      }

      .cls-6 {
        fill: #69fff3;
      }

      .cls-7 {
        fill: #1d2239;
      }

      .cls-8 {
        fill: #12141a;
      }
    </style>
    <linearGradient id="linear-gradient" x1="1885.38" y1="303.19" x2="1666.79" y2="681.8" gradientUnits="userSpaceOnUse">
      <stop offset="0" stop-color="aqua"/>
      <stop offset="1" stop-color="#00c5e9"/>
    </linearGradient>
  </defs>
  <rect class="cls-7" y="-.21" width="3660" height="800"/>
  <path class="cls-3" d="M1845.25,509.25c3.52-31.81,29-57.09,60.9-60.28v8.03c-27.5,3.12-49.42,24.84-52.87,52.25h-8.04ZM1920.51,457.09c27.17,3.41,48.75,24.99,52.16,52.16h8.04c-3.49-31.57-28.63-56.71-60.2-60.2v8.04ZM1906.15,576.57c-27.74-3.15-49.81-25.22-52.96-52.96h-8.03c3.21,32.15,28.84,57.78,60.99,60.99v-8.03ZM1972.76,523.6c-3.12,27.5-24.85,49.43-52.25,52.87v8.04c31.81-3.51,57.1-29,60.29-60.91h-8.03ZM1961.44,516.78c0,26.77-21.7,48.46-48.46,48.46s-48.46-21.7-48.46-48.46,21.7-48.46,48.46-48.46,48.46,21.7,48.46,48.46ZM1943.66,498.72c0-5.58-4.52-10.1-10.1-10.1s-10.1,4.52-10.1,10.1,4.52,10.1,10.1,10.1,10.1-4.52,10.1-10.1ZM1913.21,401.78c-63.58-.16-115.35,51.52-115.35,115.06v91.31h-186.93c-50.26-.11-91.11-41.03-91.11-91.31,0-40.83,26.94-75.49,63.98-87.14,7.5-2.36,15.42-3.78,23.61-4.1-.23-7.98.25-15.94,1.44-23.8,2.65-17.57,8.82-34.65,18.36-50.42,20.48-33.83,53.72-57.6,93.61-66.94,76.23-17.85,153.38,23.64,177.39,93.37,2.02,5.85,8.19,9.18,14.18,7.63h0c6.71-1.73,10.52-8.81,8.27-15.37-12.89-37.53-39.09-69.07-74.82-89.71-39.41-22.75-85.73-29.52-130.44-19.05-23.24,5.44-44.61,15.17-63.51,28.92-18.29,13.31-33.43,29.75-45,48.85-12.4,20.48-19.93,42.86-22.4,65.81-50.64,12.05-88.42,57.67-88.42,111.94,0,63.38,51.51,114.95,114.86,115.06h210.67v-115.06c0-49.95,40.31-90.66,90.12-91.31,50.39-.65,92.11,40.17,92.51,90.57.37,47.12-35.13,86.18-80.78,91.45-6,.69-10.53,5.76-10.53,11.79h0c0,7.11,6.2,12.61,13.27,11.8,57.31-6.61,101.94-55.5,101.79-114.59-.16-63.08-51.68-114.61-114.77-114.77Z"/>
  <g>
    <path class="cls-1" d="M2658.4,739.92c4.38-2.42,6.98-4.14,7.45-4.46,5.57-3.74,7.05-11.28,3.31-16.85-3.73-5.56-11.25-7.05-16.83-3.32-.48.32-48.52,31.74-100.22,18.34-34.48-8.93-63.48-35.77-86.2-79.76-3.08-5.96-10.4-8.29-16.36-5.22-5.95,3.11-8.29,10.4-5.22,16.36,26.08,50.5,60.38,81.52,101.94,92.19,49.78,12.78,94.81-7.71,112.13-17.29"/>
    <path class="cls-1" d="M3122.28,662.55c5.73-3.17,7.93-10.34,4.91-16.19-34.87-67.53-71.84-105.91-109.87-114.08-11.86-2.55-23.78-1.97-34.49,1.66-8.17,2.77-12.98,6.4-13.86,7.1l15.1,19.02-.15.11c.45-.33,11.22-8.12,29.1-3.98,20.87,4.84,53.88,26.34,92.6,101.31,3.08,5.96,10.4,8.29,16.36,5.22.1-.05.21-.11.31-.17"/>
    <path class="cls-2" d="M2677.48,741.79l40.72-22.52c1.04-.57,1.41-1.88.84-2.92l-19.92-36.02c-.57-1.04-1.88-1.41-2.92-.84l-40.72,22.52c-7.26,4.02-9.9,13.16-5.88,20.43l7.45,13.47c4.02,7.27,13.16,9.9,20.43,5.88"/>
    <path class="cls-2" d="M2981.81,573.47l-42.59,23.56-22-39.77,42.59-23.56c7.26-4.02,16.41-1.39,20.43,5.88l7.45,13.47c4.02,7.26,1.39,16.41-5.88,20.43"/>
    <rect class="cls-5" x="2674.12" y="355.34" width="13.33" height="66.3" transform="translate(146.88 1346.02) rotate(-28.95)"/>
    <rect class="cls-2" x="2723.04" y="566.27" width="135.77" height="42.73" transform="translate(64.26 1424.23) rotate(-28.95)"/>
    <path class="cls-1" d="M2729.01,800.21l-68.26-123.42,274.89-152.04,95.44,172.56c18.04,32.62,6.22,73.68-26.39,91.73l-20.19,11.17"/>
    <path class="cls-6" d="M2637.52,602.43l13.64-7.54-9.01-16.3-13.64,7.54c-2.98,1.65-4.05,5.39-2.41,8.37l3.05,5.52c1.65,2.98,5.39,4.05,8.37,2.41"/>
    <path class="cls-2" d="M2926.66,769.04l-54.21,29.98c-.75.41-1.5.81-2.25,1.19-19.48,0-37.47,0-54.08,0-10.59-5.28-19.74-13.71-25.9-24.85l-45.33-81.96,160.1-88.55,45.33,81.96c16.17,29.24,5.58,66.06-23.66,82.23"/>
    <path class="cls-6" d="M2885,465.55l-13.64,7.54-9.01-16.3,13.64-7.54c2.98-1.65,6.72-.57,8.37,2.41l3.05,5.52c1.65,2.98.57,6.72-2.41,8.37"/>
    <path class="cls-2" d="M2874.57,487.49l-42.59,23.56-22-39.77,42.59-23.56c7.26-4.02,16.41-1.39,20.43,5.88l7.45,13.47c4.02,7.26,1.39,16.41-5.88,20.43"/>
    <path class="cls-2" d="M2721.44,415.05l23.56,42.59-39.77,22-23.56-42.59c-4.02-7.26-1.39-16.41,5.88-20.43l13.47-7.45c7.26-4.02,16.41-1.39,20.43,5.88"/>
    <path class="cls-2" d="M2660.12,606.1l42.59-23.56-22-39.77-42.59,23.56c-7.26,4.02-9.9,13.16-5.88,20.43l7.45,13.47c4.02,7.27,13.16,9.9,20.43,5.88"/>
    <path class="cls-1" d="M2676.12,629.01c-44.58-80.61-33.52-172.07,24.71-204.27,58.23-32.21,141.59,7.03,186.17,87.64l-210.88,116.64Z"/>
    <path class="cls-6" d="M2684.85,345.28c6.54,11.83,2.26,26.72-9.57,33.27-11.83,6.54-26.72,2.26-33.27-9.57-6.54-11.83-2.26-26.72,9.57-33.27,11.83-6.54,26.72-2.26,33.27,9.57"/>
    <path class="cls-2" d="M2438.66,640.22c3.93,7.1,12.87,9.67,19.97,5.75,7.1-3.93,9.67-12.87,5.75-19.97-3.93-7.1-12.87-9.67-19.97-5.75-7.1,3.93-9.67,12.87-5.75,19.97"/>
    <path class="cls-6" d="M2455.22,602.04c2.74-6.77,4.07-14.11,3.83-21.63-.45-14.18-6.4-27.34-16.74-37.05-4.89-4.59-12.57-4.34-17.16.55-4.59,4.89-4.34,12.57.55,17.16,5.62,5.27,8.85,12.42,9.09,20.12.24,7.7-2.52,15.03-7.8,20.65-10.88,11.6-29.17,12.18-40.77,1.29-4.89-4.59-12.57-4.34-17.16.55-4.59,4.89-4.35,12.57.55,17.16,21.36,20.04,55.04,18.97,75.09-2.38,4.56-4.86,8.1-10.42,10.53-16.41h0Z"/>
    <path class="cls-2" d="M3138.98,663.96c-6.21-5.22-15.48-4.42-20.7,1.79-5.22,6.21-4.42,15.48,1.79,20.7,6.21,5.22,15.48,4.42,20.7-1.79,5.22-6.21,4.42-15.48-1.79-20.7"/>
    <path class="cls-6" d="M3201.53,720.73c5.85-3.24,7.99-10.61,4.76-16.47-6.84-12.43-18.11-21.46-31.73-25.42-13.63-3.96-27.98-2.37-40.41,4.47-.04.02-.08.04-.12.06-12.37,6.84-21.36,18.09-25.3,31.67-3.96,13.63-2.37,27.98,4.47,40.41,3.23,5.88,10.61,8.02,16.49,4.79,0,0,.02-.01.03-.01,5.86-3.24,7.99-10.61,4.76-16.47-3.71-6.75-4.57-14.54-2.42-21.94,2.14-7.37,7.02-13.48,13.74-17.19.02-.01.04-.02.06-.04,6.75-3.71,14.54-4.57,21.94-2.42,7.4,2.15,13.52,7.05,17.23,13.8,3.23,5.88,10.61,8.02,16.49,4.79,0,0,.02-.01.03-.01"/>
    <path class="cls-4" d="M2685.18,508c-3.02-5.46-1.04-12.33,4.42-15.35,5.46-3.02,12.33-1.04,15.35,4.42,3.02,5.46,1.04,12.33-4.42,15.35-5.46,3.02-12.33,1.04-15.35-4.42"/>
    <path class="cls-8" d="M2689.06,505.86c-1.83-3.32-.63-7.49,2.68-9.32,3.32-1.83,7.49-.63,9.32,2.68,1.83,3.32.63,7.49-2.68,9.32-3.32,1.83-7.49.63-9.32-2.68"/>
    <g>
      <path class="cls-2" d="M2759.4,474.92c-5.03-9.09-1.73-20.54,7.36-25.56,9.09-5.03,20.54-1.73,25.56,7.36,5.03,9.09,1.73,20.54-7.36,25.56-9.09,5.03-20.54,1.73-25.56-7.36"/>
      <path class="cls-4" d="M2765.1,471.77c-3.29-5.94-1.13-13.42,4.81-16.71,5.94-3.29,13.42-1.13,16.71,4.81,3.29,5.94,1.13,13.43-4.81,16.71-5.94,3.29-13.43,1.13-16.71-4.81"/>
      <path class="cls-8" d="M2769.32,469.43c-2-3.61-.69-8.16,2.92-10.15,3.61-2,8.16-.69,10.15,2.92,2,3.61.69,8.16-2.92,10.15-3.61,2-8.16.69-10.15-2.92"/>
    </g>
    <g>
      <path class="cls-2" d="M2681.68,514.72c-5.03-9.09-1.73-20.54,7.36-25.56,9.09-5.03,20.54-1.73,25.56,7.36,5.03,9.09,1.73,20.54-7.36,25.56-9.09,5.03-20.54,1.73-25.56-7.36"/>
      <path class="cls-4" d="M2687.38,511.56c-3.29-5.94-1.13-13.42,4.81-16.71,5.94-3.29,13.42-1.13,16.71,4.81,3.29,5.94,1.13,13.43-4.81,16.71-5.94,3.29-13.43,1.13-16.71-4.81"/>
      <path class="cls-8" d="M2691.6,509.23c-2-3.61-.69-8.16,2.92-10.15,3.61-2,8.16-.69,10.15,2.92,2,3.61.69,8.16-2.92,10.15-3.61,2-8.16.69-10.15-2.92"/>
    </g>
    <path class="cls-2" d="M2755.11,555.97c-7.92,0-16.57-2.49-25.88-7.46-3.13-1.67-4.31-5.56-2.64-8.69,1.67-3.13,5.56-4.31,8.69-2.64,11.56,6.17,21.27,7.53,28.84,4.01,12.54-5.82,16.43-23.32,16.47-23.49.74-3.46,4.14-5.68,7.61-4.94,3.46.73,5.68,4.12,4.96,7.59-.2.97-5.18,23.88-23.55,32.46-4.51,2.11-9.35,3.16-14.5,3.16Z"/>
    <path class="cls-2" d="M2666.53,502.3c-.57,0-1.16-.14-1.7-.43-1.73-.94-2.38-3.1-1.44-4.84l14.6-26.95c.94-1.73,3.1-2.38,4.84-1.44,1.73.94,2.38,3.1,1.44,4.84l-14.6,26.95c-.65,1.19-1.87,1.87-3.14,1.87Z"/>
    <path class="cls-2" d="M2747.73,436.01c-1.77,0-3.3-1.31-3.53-3.11-.25-1.95,1.12-3.74,3.08-4l30.4-3.94c1.97-.26,3.74,1.13,4,3.08.25,1.95-1.12,3.74-3.08,4l-30.4,3.94c-.16.02-.31.03-.46.03Z"/>
  </g>
</svg>