<?xml version="1.0" encoding="UTF-8"?>
<svg id="Layer_1" data-name="Layer 1" xmlns="http://www.w3.org/2000/svg" width="1920" height="1080" xmlns:xlink="http://www.w3.org/1999/xlink" viewBox="0 0 1920 1080">
  <defs>
    <style>
      .cls-1 {
        fill: url(#linear-gradient);
      }

      .cls-2 {
        fill: #182750;
      }
    </style>
    <linearGradient id="linear-gradient" x1="1112.51" y1="365.74" x2="842.98" y2="832.57" gradientUnits="userSpaceOnUse">
      <stop offset="0" stop-color="aqua"/>
      <stop offset="1" stop-color="#00c5e9"/>
    </linearGradient>
  </defs>
  <rect class="cls-2" x=".42" y="-.39" width="1920" height="1080"/>
  <path class="cls-1" d="M1063.03,619.81c4.34-39.22,35.76-70.4,75.1-74.33v9.9c-33.91,3.85-60.94,30.63-65.18,64.42h-9.91ZM1155.83,555.5c33.5,4.2,60.11,30.81,64.32,64.31h9.91c-4.3-38.93-35.3-69.92-74.23-74.22v9.91ZM1138.12,702.82c-34.2-3.88-61.42-31.1-65.3-65.3h-9.9c3.96,39.64,35.57,71.25,75.2,75.21v-9.9ZM1220.26,637.51c-3.85,33.91-30.64,60.95-64.43,65.19v9.91c39.23-4.33,70.41-35.76,74.33-75.11h-9.9ZM1206.3,629.1c0,33-26.75,59.76-59.76,59.76s-59.76-26.75-59.76-59.76,26.75-59.76,59.76-59.76,59.76,26.75,59.76,59.76ZM1184.37,606.83c0-6.88-5.58-12.46-12.46-12.46s-12.46,5.58-12.46,12.46,5.58,12.46,12.46,12.46,12.46-5.58,12.46-12.46ZM1146.83,487.3c-78.39-.2-142.23,63.52-142.23,141.87v112.59h-230.48c-61.97-.13-112.34-50.59-112.34-112.59,0-50.35,33.22-93.08,78.88-107.44,9.25-2.91,19.01-4.66,29.11-5.06-.29-9.85.31-19.65,1.78-29.34,3.27-21.66,10.87-42.73,22.64-62.17,25.25-41.72,66.24-71.02,115.42-82.54,93.99-22.01,189.12,29.15,218.72,115.13,2.49,7.22,10.1,11.32,17.49,9.41h.01c8.27-2.13,12.97-10.87,10.19-18.95-15.89-46.28-48.19-85.17-92.25-110.61-48.59-28.06-105.7-36.39-160.84-23.49-28.66,6.71-55.01,18.71-78.31,35.65-22.55,16.41-41.22,36.68-55.48,60.23-15.28,25.25-24.57,52.85-27.62,81.15-62.44,14.85-109.03,71.1-109.03,138.03,0,78.15,63.51,141.74,141.62,141.87h259.76v-141.87c0-61.59,49.71-111.79,111.12-112.58,62.14-.8,113.57,49.53,114.06,111.67.46,58.1-43.32,106.26-99.61,112.76-7.39.85-12.98,7.1-12.98,14.54h0c0,8.77,7.65,15.55,16.36,14.54,70.67-8.15,125.7-68.44,125.51-141.29-.19-77.78-63.73-141.31-141.51-141.51Z"/>
</svg>