<?xml version="1.0" encoding="UTF-8"?>
<svg id="Layer_1" data-name="Layer 1" xmlns="http://www.w3.org/2000/svg" width="1080" height="1080" viewBox="0 0 1080 1080">
  <defs>
    <style>
      .cls-1 {
        fill: #133c66;
      }

      .cls-2 {
        fill: #fada7a;
      }
    </style>
  </defs>
  <rect class="cls-1" width="1080" height="1080"/>
  <path class="cls-2" d="M788.28,742.95l-93.46-137.46,36.19-33.74c.61-.53,1.22-1.09,1.83-1.7l36.9-34.4c9.38-9.38,14.07-20.64,14.07-32.83v-213.72c0-12.2-6.57-18.76-19.7-18.76h-121.83c-13.13,0-19.7,6.57-19.7,18.76v70.36c0,12.2,6.57,18.76,19.7,18.76h56.48c6.57,0,9.38,3.75,9.38,10.32v90.06l-60.42,57.63-8.29-12.19-111.65-164.22-55.12-81.21c-4.13-5.67-8.15-8.14-14.64-8.26h-101.86c-9.09,0-12.39,7.44-7.44,14.87l43.66,64.25c-.23.62-.45,1.24-.68,1.86-4.72,12.63-11.21,40.6-19.48,83.69-4.37,22.66-9.09,49.69-14.4,80.85-16.41,92.54-32.22,155.57-47.57,189.21-25.02,52.76-27.62,84.87-7.67,96.43,12.04,6.73,22.19,9.32,30.22,7.67,8.03-1.65,17.35-8.26,27.86-19.83,31.52-31.99,55.36-96.08,71.77-192.4,3.66-20.89,7.08-40.25,10.27-58.19,6.43-36.04,11.98-66.29,16.63-90.78l40.49,59.61,164.54,241.97c4.13,5.78,8.26,8.26,14.87,8.26h101.63c9.21,0,12.51-7.44,7.44-14.87Z"/>
</svg>