<?xml version="1.0" encoding="UTF-8"?>
<svg id="Layer_1" data-name="Layer 1" xmlns="http://www.w3.org/2000/svg" width="1080" height="1080" viewBox="0 0 1080 1080">
  <defs>
    <style>
      .cls-1 {
        fill: #fffbf2;
      }

      .cls-2 {
        fill: #133c66;
      }

      .cls-3 {
        fill: #fada7a;
      }
    </style>
  </defs>
  <rect class="cls-2" width="1080" height="1080"/>
  <g>
    <g>
      <path class="cls-1" d="M351.16,305.89c-.31-4.49.53-7.81,2.54-9.98,2.01-2.16,6.08-4.13,12.22-5.9,6.14-1.77,16.69-4.03,31.65-6.79,27.71-5.2,49.44-7.18,65.19-5.96,15.75,1.22,29.4,5.92,40.98,14.11,30.47,21.57,32,67.04,4.61,136.39-6.14,15.19-10.59,24.33-13.34,27.4-2.6,2.76-6.34,4.17-11.22,4.25-4.88.08-8.7-1.26-11.45-4.02-2.91-2.91-3.72-7.83-2.42-14.76,1.3-6.93,5.57-20.31,12.81-40.15,4.96-13.38,8.25-23.46,9.86-30.23,1.61-6.77,2.54-13.78,2.78-21.02.16-10.47-1.18-18.21-4.02-23.2-2.83-5-8.31-9.43-16.41-13.29-6.77-3.23-15.71-4.72-26.81-4.49-11.1.24-27.2,2.36-48.3,6.38-20.31,3.86-33.34,5.31-39.09,4.37-5.75-.94-8.94-5.31-9.57-13.11ZM383.75,447.6c0-6.14,2.76-21.77,8.27-46.88,5.51-25.11,9.21-38.97,11.1-41.57,1.81-2.44,5.06-3.78,9.74-4.02,4.68-.24,8.29.79,10.81,3.07,2.76,2.44,3.86,6.79,3.31,13.05-.55,6.26-3.35,21.24-8.38,44.93-2.76,12.91-5.02,22.59-6.79,29.05-1.77,6.46-3.74,11.42-5.9,14.88-2.16,3.46-4.41,5.12-6.73,4.96-2.32-.16-5.49-1.61-9.51-4.37-3.86-2.76-5.83-7.12-5.9-13.11Z"/>
      <path class="cls-1" d="M531.72,305.89c-.31-4.49.53-7.81,2.54-9.98,2.01-2.16,6.08-4.13,12.22-5.9,6.14-1.77,16.69-4.03,31.65-6.79,27.71-5.2,49.44-7.18,65.19-5.96s29.4,5.92,40.98,14.11c30.47,21.57,32,67.04,4.61,136.39-6.14,15.19-10.59,24.33-13.34,27.4-2.6,2.76-6.34,4.17-11.22,4.25-4.88.08-8.7-1.26-11.45-4.02-2.91-2.91-3.72-7.83-2.42-14.76,1.3-6.93,5.57-20.31,12.81-40.15,4.96-13.38,8.25-23.46,9.86-30.23s2.54-13.78,2.78-21.02c.16-10.47-1.18-18.21-4.02-23.2-2.83-5-8.31-9.43-16.41-13.29-6.77-3.23-15.71-4.72-26.81-4.49-11.1.24-27.2,2.36-48.3,6.38-20.31,3.86-33.34,5.31-39.09,4.37-5.75-.94-8.94-5.31-9.57-13.11ZM564.32,447.6c0-6.14,2.76-21.77,8.27-46.88,5.51-25.11,9.21-38.97,11.1-41.57,1.81-2.44,5.06-3.78,9.74-4.02,4.68-.24,8.29.79,10.81,3.07,2.76,2.44,3.86,6.79,3.31,13.05-.55,6.26-3.35,21.24-8.38,44.93-2.76,12.91-5.02,22.59-6.79,29.05-1.77,6.46-3.74,11.42-5.9,14.88-2.16,3.46-4.41,5.12-6.73,4.96-2.32-.16-5.49-1.61-9.51-4.37-3.86-2.76-5.83-7.12-5.9-13.11Z"/>
      <path class="cls-1" d="M724.31,330.6c-2.76-6.69-2.09-12.04,2.01-16.06,2.28-2.28,10.79-5.49,25.51-9.65,14.72-4.16,26.45-6.75,35.19-7.77,9.05-.78,14.05-1.96,15-3.53.79-1.41,4.8-2.16,12.05-2.24,7.56,0,20.56-2,38.99-6,22.79-3.66,43.37-6.97,61.73-9.92,18.36-2.95,28.8-3.66,31.32-2.13,5.2,3.22,6.73,8.84,4.61,16.86-.47,1.97-1.28,3.46-2.42,4.48-1.14,1.02-3.92,2.18-8.32,3.48-4.41,1.3-10.09,2.56-17.03,3.79-6.95,1.23-17.48,3.09-31.61,5.59-25.46,3.94-41.37,6.75-47.73,8.45-4.96,1.26-8.35,3.56-10.16,6.91-1.81,3.35-3.98,10.97-6.49,22.85-.79,3.86-.94,6.12-.47,6.79.47.67,2.16.49,5.08-.53,4.33-1.26,11.9-2.28,22.69-3.07,7.56-.47,12.83-.39,15.82.24,2.99.63,7.24,2.64,12.75,6.02,12.12,7.56,20.51,20.1,25.15,37.61,4.64,17.52,3.98,34.31-2.01,50.37-3.54,9.84-6.77,16.22-9.68,19.13-2.76,3.07-6.49,4.57-11.22,4.49-4.72-.08-8.54-1.65-11.45-4.72-2.44-2.44-3.54-5.35-3.31-8.74.24-3.38,2.05-9.17,5.43-17.36,3.7-9.37,4.84-19.32,3.42-29.88-1.42-10.55-4.96-18.58-10.63-24.09-7.09-6.77-19.49-4.84-37.22,5.79-10.94,6.46-19.01,9.68-24.21,9.68s-9.57-3.31-13.11-9.92c-2.28-4.02-3.54-11.22-3.78-21.61-.24-10.39.63-18.73,2.6-25.04,1.57-5.67,1.63-9.21.18-10.63-1.46-1.42-10.29-.04-26.51,4.13-15.35,4.18-25.19,6.26-29.52,6.26-5.67,0-9.88-3.35-12.64-10.04Z"/>
    </g>
    <g>
      <path class="cls-3" d="M128.38,802.03v-265.3c0-3.27,2.18-5.45,5.45-5.45h41.07c3.27,0,5.45,2.18,5.45,5.45v265.3c0,3.27-2.18,5.45-5.45,5.45h-41.07c-3.27,0-5.45-2.18-5.45-5.45Z"/>
      <path class="cls-3" d="M214.66,711.54c-2.54-2.91-1.82-6.18.73-9.09l21.44-23.99c3.27-3.63,7.27-3.27,10.9,0,13.08,11.99,31.98,21.08,57.06,21.08,41.43,0,67.96-24.35,67.96-62.87,0-33.43-19.26-59.24-57.78-59.24h-46.52v15.26c0,13.08,6.54,22.53,19.26,22.53,3.63,0,5.82,2.18,5.82,5.81v33.8c0,3.63-1.82,5.45-5.82,5.45-47.61,0-69.41-27.62-69.41-66.14v-57.78c0-3.27,1.82-5.09,5.09-5.09h103.94c56.69,0,97.4,37.43,97.4,104.66,0,74.14-49.06,114.11-116.29,114.11-42.88,0-75.59-15.63-93.76-38.52Z"/>
      <path class="cls-3" d="M477.96,740.25v-151.18c0-8.72-3.27-11.63-11.27-11.63h-15.99c-3.27,0-5.45-2.18-5.45-5.45v-35.25c0-3.27,2.18-5.45,5.45-5.45h40.7c23.99,0,38.52,13.08,38.52,37.07v171.9c0,3.27-2.18,5.45-5.45,5.45h-41.07c-3.27,0-5.45-2.18-5.45-5.45Z"/>
      <path class="cls-3" d="M558.85,740.62v-35.98c0-3.27,1.82-5.09,5.09-5.09h5.09c52.7,0,71.23-14.9,71.23-49.06v-45.43c0-17.81-5.45-27.62-23.26-27.62h-40.34c-3.27,0-5.09-1.82-5.09-5.09v-35.98c0-3.27,1.82-5.09,5.09-5.09h62.14c33.07,0,53.79,21.44,53.79,54.51v80.68c0,20.71,6.18,33.07,21.44,33.07,3.27,0,5.81,2.18,5.81,5.45v35.25c0,3.27-2.54,5.45-5.81,5.45-30.53,0-45.06-14.17-47.97-35.61-12.36,23.99-42.16,35.61-77.04,35.61h-25.08c-3.27,0-5.09-1.82-5.09-5.09Z"/>
      <path class="cls-3" d="M748.34,631.59c0-3.27,2.18-5.45,5.45-5.45h41.07c3.27,0,5.45,2.18,5.45,5.45v108.66c0,3.27-2.18,5.45-5.45,5.45h-41.07c-3.27,0-5.45-2.18-5.45-5.45v-108.66ZM893.35,740.25v-115.2c0-32.34-5.82-47.61-42.16-47.61h-97.03c-3.27,0-5.09-1.82-5.09-5.09v-35.98c0-3.27,1.82-5.09,5.09-5.09h119.2c45.43,0,72.32,25.08,72.32,69.05v139.92c0,3.27-2.54,5.45-5.81,5.45h-41.07c-3.27,0-5.45-2.18-5.45-5.45Z"/>
    </g>
    <g>
      <path class="cls-1" d="M305.4,423.6l-7.74,4.49,3.36,5.58,16.8,27.94c1.44,2.67.62,4.31-2.46,4.31h-16.41c-1.64,0-2.87-.62-3.69-2.05l-23.86-39.67-6.47-10.77-4.42-7.35-14.47,8.37c-.73.42-1.17,1.2-1.17,2.03v28.53c0,.68.55,1.23,1.23,1.23h15.94c1.27,0,2.32.97,2.45,2.21,0,.08.01.17.01.25v14.76c0,.09,0,.17-.01.25-.07,1.39-.81,2.13-2.2,2.2-.08,0-.16.01-.25.01h-25.84c-.09,0-.17,0-.25-.01-1.39-.07-2.13-.81-2.2-2.2,0-.08-.01-.16-.01-.25v-47.17c0-4.72,2.26-8.82,6.36-11.28l7.33-4.25,7.34-4.25-4.52-7.53-15.27-25.39c-1.44-2.67-.62-4.31,2.46-4.31h16.41c1.64,0,2.87.62,3.69,2.05l29.96,49.83,2.41,4.01,2.37,3.95,14.47-8.37c.73-.42,1.17-1.2,1.17-2.03v-28.53c0-.68-.55-1.23-1.23-1.23h-15.94c-.08,0-.17,0-.25-.01-1.16-.12-2.08-1.04-2.2-2.2,0-.08-.01-.17-.01-.25v-14.76c0-.09,0-.17.01-.25.12-1.16,1.04-2.08,2.2-2.2.08,0,.17-.01.25-.01h25.84c.08,0,.17,0,.25.01,1.16.12,2.08,1.04,2.2,2.2,0,.08.01.16.01.25v46.35c0,4.72-2.26,8.81-6.36,11.28l-7.29,4.24Z"/>
      <path class="cls-1" d="M214.92,361.74v102.13c0,1.13-.91,2.05-2.05,2.05h-7.03c-1.13,0-2.05-.92-2.05-2.05v-83.68c0-.68-.55-1.23-1.23-1.23h-43.83c-.68,0-1.23.55-1.23,1.23v83.27c0,1.36-1.1,2.46-2.46,2.46h-24.2c-1.36,0-2.46-1.1-2.46-2.46v-14.77c0-1.36,1.1-2.46,2.46-2.46h14.3c.68,0,1.23-.55,1.23-1.23v-57.95c0-.44.14-.87.41-1.23l4.95-6.63c.07-.1,0-.23-.12-.23h-13.49c-1.36,0-2.46-1.1-2.46-2.46v-14.76c0-1.36,1.1-2.46,2.46-2.46h74.34c1.36,0,2.46,1.1,2.46,2.46Z"/>
    </g>
  </g>
</svg>