<?xml version="1.0" encoding="UTF-8"?>
<svg id="Layer_1" data-name="Layer 1" xmlns="http://www.w3.org/2000/svg" width="1920" height="1080" viewBox="0 0 1920 1080">
  <defs>
    <style>
      .cls-1 {
        fill: #fffbf2;
      }

      .cls-2 {
        fill: #182750;
      }

      .cls-3 {
        fill: #fada7a;
      }
    </style>
  </defs>
  <rect class="cls-2" x=".42" y="-.39" width="1920" height="1080"/>
  <g>
    <g>
      <path class="cls-1" d="M805.15,347.51c-.26-3.69.44-6.42,2.09-8.2,1.65-1.78,5-3.4,10.05-4.85,5.05-1.46,13.72-3.32,26.02-5.58,22.79-4.27,40.65-5.91,53.6-4.9,12.95,1,24.18,4.87,33.69,11.6,25.05,17.74,26.31,55.12,3.79,112.15-5.05,12.49-8.71,20-10.97,22.53-2.14,2.27-5.21,3.43-9.22,3.5-4.01.06-7.15-1.04-9.42-3.3-2.4-2.4-3.06-6.44-1.99-12.14,1.07-5.7,4.58-16.7,10.54-33.01,4.08-11,6.78-19.29,8.11-24.86,1.33-5.57,2.09-11.33,2.28-17.28.13-8.61-.97-14.97-3.3-19.08-2.33-4.11-6.83-7.75-13.5-10.92-5.57-2.65-12.91-3.88-22.04-3.69-9.13.19-22.37,1.94-39.71,5.24-16.7,3.17-27.41,4.37-32.14,3.59-4.73-.78-7.35-4.37-7.87-10.78ZM831.95,464.02c0-5.05,2.27-17.9,6.8-38.55,4.53-20.65,7.57-32.04,9.13-34.18,1.49-2.01,4.16-3.11,8.01-3.3,3.85-.19,6.81.65,8.88,2.52,2.27,2.01,3.17,5.58,2.72,10.73-.45,5.15-2.75,17.46-6.89,36.95-2.27,10.62-4.13,18.58-5.58,23.89-1.46,5.31-3.07,9.39-4.85,12.23-1.78,2.85-3.63,4.21-5.53,4.08-1.91-.13-4.52-1.33-7.82-3.59-3.17-2.27-4.79-5.86-4.85-10.78Z"/>
      <path class="cls-1" d="M953.61,347.51c-.26-3.69.44-6.42,2.09-8.2,1.65-1.78,5-3.4,10.05-4.85,5.05-1.46,13.72-3.32,26.02-5.58,22.79-4.27,40.65-5.91,53.6-4.9s24.18,4.87,33.69,11.6c25.05,17.74,26.31,55.12,3.79,112.15-5.05,12.49-8.71,20-10.97,22.53-2.14,2.27-5.21,3.43-9.22,3.5-4.01.06-7.15-1.04-9.42-3.3-2.4-2.4-3.06-6.44-1.99-12.14,1.07-5.7,4.58-16.7,10.54-33.01,4.08-11,6.78-19.29,8.11-24.86,1.33-5.57,2.09-11.33,2.28-17.28.13-8.61-.97-14.97-3.3-19.08-2.33-4.11-6.83-7.75-13.5-10.92-5.57-2.65-12.91-3.88-22.04-3.69-9.13.19-22.37,1.94-39.71,5.24-16.7,3.17-27.41,4.37-32.14,3.59-4.73-.78-7.35-4.37-7.87-10.78ZM980.41,464.02c0-5.05,2.27-17.9,6.8-38.55,4.53-20.65,7.57-32.04,9.13-34.18,1.49-2.01,4.16-3.11,8.01-3.3,3.85-.19,6.81.65,8.88,2.52,2.27,2.01,3.17,5.58,2.72,10.73-.45,5.15-2.75,17.46-6.89,36.95-2.27,10.62-4.13,18.58-5.58,23.89-1.46,5.31-3.07,9.39-4.85,12.23-1.78,2.85-3.63,4.21-5.53,4.08-1.91-.13-4.52-1.33-7.82-3.59-3.17-2.27-4.79-5.86-4.85-10.78Z"/>
      <path class="cls-1" d="M1111.96,367.82c-2.27-5.5-1.72-9.9,1.65-13.2,1.88-1.87,8.87-4.52,20.97-7.94,12.1-3.42,21.75-5.55,28.94-6.39,7.44-.64,11.55-1.61,12.33-2.9.65-1.16,3.95-1.78,9.9-1.84,6.21,0,16.9-1.64,32.06-4.94,18.74-3.01,35.66-5.73,50.75-8.15,15.1-2.42,23.68-3.01,25.75-1.75,4.27,2.65,5.53,7.27,3.79,13.87-.39,1.62-1.05,2.84-1.99,3.69-.94.84-3.22,1.79-6.84,2.86-3.63,1.06-8.3,2.1-14,3.12-5.71,1.01-14.37,2.54-25.99,4.6-20.93,3.24-34.01,5.55-39.25,6.95-4.08,1.04-6.86,2.93-8.35,5.68-1.49,2.75-3.27,9.02-5.34,18.79-.65,3.17-.78,5.04-.39,5.58.39.55,1.78.4,4.18-.44,3.56-1.03,9.78-1.88,18.66-2.52,6.21-.39,10.55-.32,13.01.19,2.46.52,5.96,2.17,10.49,4.95,9.97,6.21,16.86,16.52,20.68,30.93,3.82,14.41,3.27,28.21-1.65,41.41-2.91,8.09-5.57,13.34-7.96,15.73-2.27,2.52-5.34,3.75-9.22,3.69-3.88-.06-7.02-1.36-9.42-3.88-2.01-2-2.91-4.4-2.72-7.19.19-2.78,1.68-7.54,4.47-14.27,3.04-7.7,3.98-15.89,2.82-24.57-1.17-8.67-4.08-15.28-8.74-19.81-5.83-5.57-16.03-3.98-30.6,4.76-9,5.31-15.63,7.96-19.91,7.96s-7.87-2.72-10.78-8.16c-1.88-3.3-2.91-9.22-3.11-17.77-.19-8.54.52-15.4,2.14-20.58,1.29-4.66,1.34-7.57.15-8.74-1.2-1.17-8.46-.03-21.8,3.4-12.62,3.43-20.71,5.15-24.27,5.15-4.66,0-8.12-2.75-10.39-8.25Z"/>
    </g>
    <g>
      <path class="cls-3" d="M621.97,755.46v-218.14c0-2.69,1.79-4.48,4.48-4.48h33.77c2.69,0,4.48,1.79,4.48,4.48v218.14c0,2.69-1.79,4.48-4.48,4.48h-33.77c-2.69,0-4.48-1.79-4.48-4.48Z"/>
      <path class="cls-3" d="M692.91,681.05c-2.09-2.39-1.49-5.08.6-7.47l17.63-19.72c2.69-2.99,5.98-2.69,8.96,0,10.76,9.86,26.3,17.33,46.91,17.33,34.07,0,55.88-20.02,55.88-51.7,0-27.49-15.84-48.71-47.51-48.71h-38.25v12.55c0,10.76,5.38,18.53,15.84,18.53,2.99,0,4.78,1.79,4.78,4.78v27.79c0,2.99-1.49,4.48-4.78,4.48-39.15,0-57.07-22.71-57.07-54.39v-47.51c0-2.69,1.49-4.18,4.18-4.18h85.46c46.62,0,80.08,30.78,80.08,86.06,0,60.96-40.34,93.83-95.62,93.83-35.26,0-62.15-12.85-77.09-31.68Z"/>
      <path class="cls-3" d="M909.4,704.66v-124.31c0-7.17-2.69-9.56-9.26-9.56h-13.15c-2.69,0-4.48-1.79-4.48-4.48v-28.98c0-2.69,1.79-4.48,4.48-4.48h33.47c19.72,0,31.67,10.76,31.67,30.48v141.34c0,2.69-1.79,4.48-4.48,4.48h-33.77c-2.69,0-4.48-1.79-4.48-4.48Z"/>
      <path class="cls-3" d="M975.92,704.96v-29.58c0-2.69,1.49-4.18,4.18-4.18h4.18c43.33,0,58.57-12.25,58.57-40.34v-37.35c0-14.64-4.48-22.71-19.12-22.71h-33.17c-2.69,0-4.18-1.49-4.18-4.18v-29.58c0-2.69,1.49-4.18,4.18-4.18h51.1c27.19,0,44.22,17.63,44.22,44.82v66.34c0,17.03,5.08,27.19,17.63,27.19,2.69,0,4.78,1.79,4.78,4.48v28.98c0,2.69-2.09,4.48-4.78,4.48-25.1,0-37.05-11.65-39.44-29.28-10.16,19.72-34.66,29.28-63.35,29.28h-20.62c-2.69,0-4.18-1.49-4.18-4.18Z"/>
      <path class="cls-3" d="M1131.72,615.31c0-2.69,1.79-4.48,4.48-4.48h33.77c2.69,0,4.48,1.79,4.48,4.48v89.35c0,2.69-1.79,4.48-4.48,4.48h-33.77c-2.69,0-4.48-1.79-4.48-4.48v-89.35ZM1250.95,704.66v-94.73c0-26.59-4.78-39.15-34.66-39.15h-79.78c-2.69,0-4.18-1.49-4.18-4.18v-29.58c0-2.69,1.49-4.18,4.18-4.18h98.01c37.35,0,59.46,20.62,59.46,56.78v115.05c0,2.69-2.09,4.48-4.78,4.48h-33.77c-2.69,0-4.48-1.79-4.48-4.48Z"/>
    </g>
    <g>
      <path class="cls-1" d="M767.52,444.29l-6.36,3.7,2.76,4.59,13.81,22.97c1.18,2.19.51,3.54-2.02,3.54h-13.49c-1.35,0-2.36-.51-3.04-1.69l-19.62-32.62-5.32-8.85-3.63-6.05-11.9,6.88c-.6.35-.96.98-.96,1.67v23.46c0,.56.45,1.01,1.01,1.01h13.11c1.05,0,1.91.8,2.01,1.82,0,.07,0,.14,0,.21v12.14c0,.07,0,.14,0,.21-.06,1.14-.66,1.75-1.81,1.81-.07,0-.13,0-.21,0h-21.25c-.07,0-.14,0-.21,0-1.14-.06-1.75-.66-1.81-1.81,0-.07,0-.13,0-.21v-38.78c0-3.88,1.86-7.25,5.23-9.28l6.02-3.49,6.04-3.5-3.72-6.19-12.56-20.88c-1.18-2.19-.51-3.54,2.02-3.54h13.49c1.35,0,2.36.51,3.04,1.69l24.63,40.97,1.99,3.3,1.95,3.25,11.9-6.88c.6-.35.96-.98.96-1.67v-23.46c0-.56-.45-1.01-1.01-1.01h-13.11c-.07,0-.14,0-.21,0-.95-.1-1.71-.85-1.81-1.81,0-.07,0-.14,0-.21v-12.14c0-.07,0-.14,0-.21.1-.95.85-1.71,1.81-1.81.07,0,.14,0,.21,0h21.25c.07,0,.14,0,.21,0,.95.1,1.71.85,1.81,1.81,0,.07,0,.13,0,.21v38.11c0,3.88-1.86,7.25-5.23,9.27l-5.99,3.48Z"/>
      <path class="cls-1" d="M693.13,393.43v83.98c0,.93-.75,1.69-1.69,1.69h-5.78c-.93,0-1.69-.76-1.69-1.69v-68.8c0-.56-.45-1.01-1.01-1.01h-36.04c-.56,0-1.01.45-1.01,1.01v68.47c0,1.12-.91,2.02-2.02,2.02h-19.9c-1.12,0-2.02-.91-2.02-2.02v-12.14c0-1.12.91-2.02,2.02-2.02h11.76c.56,0,1.01-.45,1.01-1.01v-47.65c0-.36.12-.72.33-1.01l4.07-5.45c.06-.08,0-.19-.1-.19h-11.09c-1.12,0-2.02-.91-2.02-2.02v-12.14c0-1.12.91-2.02,2.02-2.02h61.13c1.12,0,2.02.91,2.02,2.02Z"/>
    </g>
  </g>
</svg>