<?xml version="1.0" encoding="UTF-8"?>
<svg id="Layer_1" data-name="Layer 1" xmlns="http://www.w3.org/2000/svg" width="1080" height="1080" viewBox="0 0 1080 1080">
  <defs>
    <style>
      .cls-1 {
        fill: #eb1e64;
      }

      .cls-2 {
        fill: #ad1139;
      }

      .cls-3 {
        fill: #db1744;
      }

      .cls-4 {
        fill: #ac1139;
      }

      .cls-5 {
        fill: #8b1536;
      }

      .cls-6 {
        fill: #182750;
      }
    </style>
  </defs>
  <rect class="cls-6" x=".45" width="1079.1" height="1080"/>
  <g>
    <path class="cls-3" d="M723.93,411.45l-109.02,62.08h-.07l-74.84-42.61-74.84,42.61-109.09-62.08c2.46-4.33,6.12-8.06,10.6-10.67l83.72-47.61c9.18-5.15,20.37-5.15,29.55,0l60.07,34.25,60.14-34.25c9.18-5.15,20.37-5.15,29.55,0l83.79,47.68c4.4,2.61,7.98,6.27,10.45,10.6Z"/>
    <path class="cls-4" d="M540,699.62v30.07c-4.92,0-9.85-1.27-14.33-3.66l-158.56-90.21c-9.33-5.3-15.15-15.22-15.15-25.97v-183.33c0-5.37,1.42-10.6,4.1-15.07l109.09,62.08v183.48l74.84,42.61Z"/>
    <path class="cls-1" d="M728.03,426.52v183.33c0,10.74-5.75,20.67-15.07,25.97l-158.56,90.14c-4.55,2.46-9.48,3.73-14.4,3.73v-30.07l74.84-42.53h.07v-183.56l109.02-62.08c2.69,4.48,4.1,9.7,4.1,15.07Z"/>
    <path class="cls-3" d="M540,699.62l74.92-42.53-74.92-41.93-74.92,41.93,74.92,42.53Z"/>
    <path class="cls-5" d="M465.16,473.53l-.07,183.56,74.92-41.93v-184.23l-74.84,42.61Z"/>
    <path class="cls-2" d="M614.84,473.53l.07,183.56-74.92-41.93v-184.23l74.84,42.61Z"/>
  </g>
</svg>