<?xml version="1.0" encoding="UTF-8"?>
<svg id="Layer_1" data-name="Layer 1" xmlns="http://www.w3.org/2000/svg" width="1080" height="1080" viewBox="0 0 1080 1080">
  <defs>
    <style>
      .cls-1 {
        fill: #6398ff;
      }

      .cls-2 {
        isolation: isolate;
      }

      .cls-3 {
        fill: #fcfcfc;
      }

      .cls-4 {
        fill: #182750;
      }
    </style>
  </defs>
  <rect class="cls-4" width="1080" height="1080"/>
  <g id="logo">
    <g>
      <polygon class="cls-3" points="186.87 612.14 186.87 636.36 108.92 636.36 108.92 443.36 135.96 443.36 135.96 612.14 186.87 612.14"/>
      <path class="cls-3" d="M289.11,443.36v147.99c0,31.1-15.28,47.55-44.19,47.55s-44.19-16.45-44.19-47.55v-147.99h27.04v149.95c0,13.99,6.06,21.1,18.01,21.1s17.97-7.11,17.97-21.1v-149.95h25.36Z"/>
      <path class="cls-3" d="M393.86,591.04c0,31.14-15.28,47.59-44.19,47.59s-44.19-16.45-44.19-47.59v-10.12h25.36v12.11c0,13.99,6.06,21.06,18.01,21.06s17.97-7.07,17.97-21.06c0-19.46-13.21-31.53-27.15-44.3-16.41-15-33.33-30.51-33.33-60.09,0-31.1,15.08-47.55,43.6-47.55s43.64,16.45,43.64,47.55v4.26h-25.36v-6.21c0-14.38-5.7-21.37-17.42-21.37s-17.42,6.99-17.42,21.37c0,19.46,13.21,31.53,27.15,44.3,16.41,15,33.33,30.47,33.33,60.05Z"/>
      <polygon class="cls-3" points="504.58 443.36 504.58 636.36 476.99 636.36 476.99 551.97 437.89 551.97 437.89 636.36 410.85 636.36 410.85 443.36 437.89 443.36 437.89 527.75 476.99 527.75 476.99 443.36 504.58 443.36"/>
      <path class="cls-3" d="M593.22,443.36h-41.92l-30.9,193h24.46l5.31-35.71h41.37l5.31,35.71h27.27l-30.9-193ZM553.53,577.84l15.28-101.85h3.83l15.28,101.85h-34.38Z"/>
      <polygon class="cls-3" points="723.13 443.36 684.76 572.49 684.69 636.36 657.65 636.36 657.65 573.07 619.21 443.36 647.45 443.36 672.57 538.81 697.7 443.36 723.13 443.36"/>
    </g>
    <g class="cls-2">
      <path class="cls-1" d="M759.21,520.33c17.89,0,26.1,10.83,26.1,28.56v57.93c0,17.56-8.21,28.39-26.1,28.39h-26.91v-114.88h26.91ZM759.05,623.56c9.19,0,13.62-5.75,13.62-16.25v-59.08c0-10.5-4.43-16.25-13.79-16.25h-13.78v91.58h13.95Z"/>
      <path class="cls-1" d="M795.64,548.07c0-17.56,8.7-28.89,26.26-28.89s26.43,11.32,26.43,28.89v59.41c0,17.4-8.7,28.89-26.43,28.89s-26.26-11.49-26.26-28.89v-59.41ZM808.27,608.13c0,10.5,4.43,16.58,13.62,16.58s13.62-6.07,13.62-16.58v-60.72c0-10.34-4.27-16.58-13.62-16.58s-13.62,6.24-13.62,16.58v60.72Z"/>
      <path class="cls-1" d="M910.42,548.07v10.34h-12.14v-11c0-10.34-4.11-16.58-13.46-16.58s-13.46,6.24-13.46,16.58v60.72c0,10.34,4.27,16.58,13.46,16.58s13.46-6.24,13.46-16.58v-14.93h12.14v14.28c0,17.4-8.21,28.89-25.93,28.89s-25.76-11.49-25.76-28.89v-59.41c0-17.4,8.21-28.89,25.76-28.89s25.93,11.49,25.93,28.89Z"/>
      <path class="cls-1" d="M971.74,547.91v3.12h-12.15v-3.77c0-10.34-3.94-16.41-13.13-16.41s-13.13,6.07-13.13,16.25c0,25.76,38.57,28.23,38.57,60.56,0,17.4-8.37,28.72-25.93,28.72s-25.76-11.32-25.76-28.72v-6.56h11.98v7.22c0,10.34,4.27,16.41,13.46,16.41s13.46-6.07,13.46-16.41c0-25.6-38.4-28.06-38.4-60.39,0-17.73,8.21-28.72,25.44-28.72s25.6,11.32,25.6,28.72Z"/>
    </g>
  </g>
</svg>