<?xml version="1.0" encoding="UTF-8"?>
<svg id="Layer_1" data-name="Layer 1" xmlns="http://www.w3.org/2000/svg" width="1080" height="1080" viewBox="0 0 1080 1080">
  <defs>
    <style>
      .cls-1 {
        fill: #e4b397;
      }

      .cls-2 {
        fill: #182750;
      }
    </style>
  </defs>
  <rect class="cls-2" width="1080" height="1080"/>
  <g>
    <path class="cls-1" d="M767.08,399.24c-59.74-82.76-115-73.58-118.55-100.32,0,0-12.69,28.3-12.69,28.3,15.43-7.66,56.14,20.76,86.61,67.71,18.28,24.27,31.86,51.06,40.7,79.24-26.36-5.55-54.32-6.8-80.79-2.57-40.73,6.11-80.22,30.86-94.71,70.85-8.71,22.9-6.83,50.63,5.7,71.81,7.92,14.39,16.47,24.33,23.54,37.34,10.26,18.37,9.27,41.42-1.91,59.6-25.96,43.24-83.9,45.25-121.66,16.15-30.42-22.21-47.14-56.76-58.85-91.65-17.03-50.92-27.1-106.4-16.28-158.73,15.41-74.49,48.83-93.76,54.89-95.73-1.45,1.81-2.56,3.87-3.23,5.92-2.15,6.62-.63,15.42,5.7,19.35,6.81,4.23,15.87.21,21.12-4.63,11.42-10.53,10.4-30.2-4.33-37.26-25.87-12.42-73.52,30.17-84.59,42.07-61.8,66.48-58.98,172.5-15.88,248.08,30.19,55.85,86.2,105.59,152.45,106.12,60.37.81,122.08-53.77,101.14-117.25-2.25-6.66-5.53-13.48-8.71-19.3-8.85-16.62-19.5-28.97-19.9-47.18-.25-36.27,32.16-60.63,65.2-67.16,30.31-6.71,59.26-.81,89.94,1.8,4.86,30.22,4.63,61.41-.76,92.32-2.75,20.02-7.34,40.02-15.9,58.45-8.04,16.21-17.93,34.86-37.46,38.44,0,0,23.35,20.4,23.35,20.4,2.09-18.43,10.8-29.02,19.8-42.78,8.15-12.85,16.26-25.99,23.4-39.47,9.61-18.38,17.21-38.13,20.68-58.72,1.7-9.99,2.82-21.1,3.27-31.26,2.67-52.59-10.4-107.13-41.32-149.96Z"/>
    <path class="cls-1" d="M645.53,762.91c-7.56,7.84-17.76,11.63-27.81,14.97-39.78,13.59-83.49,13.74-124.03,3.77-80.22-18.54-150.4-76.19-179.28-153.83-29.69-76.83-15.99-168.72,38.17-231.41,42.31-49.94,107.9-88.29,174.17-85.63,36.72,2.46,56.8,23.81,48.47,60.63-5.39,23.58-18.01,43.15-37.3,58.98-9.04,7.66-19.89,15.54-29.23,22.97-15.55,12.39-29.62,26.96-39.46,44.59-6.42,12.95-12.15,26.89-12.94,41.44-1.55,33.61,8.79,66.79,22.88,96.85,13.97,29.78,43.73,66.54,75.27,52.81,17.62-7.67,23.64-35.92,7-48.17-18.37-13.54-36.29,12.01-25.48,28.72,1.04,1.62,2.34,2.89,3.74,3.94-46.77-3.15-48.95-101.06-44.85-129.6.53-3.69,2.09-7.64,3.67-10.99,1.84-4.72,4.59-9.17,7.15-13.49,15.42-22.74,39.48-34.69,62.05-53.13,12.38-10.05,24.83-22.6,34.02-37.5,24-37.7,32.82-92.13,1.32-128.6-18.39-21.81-47.43-30.63-74.65-30.89-78.73.86-151.22,49.03-198.9,108.45-118.02,148.92-48.99,375.54,137.26,423.46,36.69,8.99,75.4,8.51,112.3,1.55,14.66-2.83,29.14-6.51,43.2-11.4,14.98-5.23,27.92-11.36,44.88-10.53l-14.84-27.23c-1.88,3.66-4.18,6.74-6.8,9.28Z"/>
  </g>
</svg>