<?xml version="1.0" encoding="UTF-8"?>
<svg id="Layer_1" data-name="Layer 1" xmlns="http://www.w3.org/2000/svg" width="1080" height="1080" viewBox="0 0 1080 1080">
  <defs>
    <style>
      .cls-1 {
        fill: #efcd73;
      }

      .cls-2 {
        fill: #182750;
      }
    </style>
  </defs>
  <rect class="cls-2" x="0" width="1080" height="1080"/>
  <g>
    <polygon class="cls-1" points="375.32 446.25 281.74 603.12 241.24 603.12 274.98 547.33 219.67 446.25 263.71 446.25 296.82 510.18 332.17 446.25 375.32 446.25"/>
    <path class="cls-1" d="M446.2,537.91v.12c.7,0,1.37,0,2.04-.06-.67-.03-1.34-.06-2.04-.06Z"/>
    <path class="cls-1" d="M477.96,562.71c-1.83-4.11-3.87-7.68-6.12-10.79-2.25-3.08-4.69-5.67-7.34-7.77-2.65-2.07-5.52-3.63-8.56-4.69-2.44-.82-5-1.34-7.68-1.49-.67.06-1.34.06-2.04.06v-.12c.7,0,1.37.03,2.04.06,6.12-.15,11.67-1.19,16.76-3.05,5.64-2.07,10.45-5,14.44-8.81,3.96-3.81,7.04-8.38,9.2-13.77,2.16-5.36,3.23-11.4,3.23-18.1,0-7.44-1.31-14.14-3.93-20.08-2.59-5.94-6.4-11-11.37-15.11-4.97-4.14-11.09-7.31-18.34-9.54-7.25-2.19-15.54-3.29-24.83-3.29h-37.39l-94.28,156.9h40.5l33.67-56.04h36.84c2.56,0,4.75.21,6.61.67,1.83.46,3.5,1.28,4.97,2.41,1.49,1.16,2.89,2.77,4.17,4.81,1.31,2.04,2.68,4.63,4.14,7.8l18.44,40.35h45.04l-18.16-40.41ZM438.46,514.54c-2.77.85-5.97,1.28-9.54,1.28h-34.23l22.45-37.36h11.73c3.63,0,6.83.4,9.63,1.22,2.8.79,5.15,1.98,7.04,3.53,1.92,1.55,3.35,3.47,4.33,5.79,1.01,2.29,1.49,4.94,1.49,7.95s-.52,5.61-1.52,7.95c-1.01,2.38-2.44,4.36-4.36,5.97-1.89,1.62-4.24,2.83-7.01,3.66Z"/>
    <polygon class="cls-1" points="653.38 446.25 653.38 603.12 598.31 603.12 546.14 485.5 546.14 603.12 507.54 603.12 507.54 446.25 565.89 446.25 614.77 555.68 614.77 446.25 653.38 446.25"/>
    <polygon class="cls-1" points="750.06 479.82 750.06 536.49 709.59 603.14 709.59 479.82 663.18 479.82 663.18 446.27 804.18 446.26 784.02 479.81 750.06 479.82"/>
    <g>
      <path class="cls-1" d="M770.13,603.13h-40.48l94.26-156.87h40.48l-94.26,156.87Z"/>
      <path class="cls-1" d="M893.36,427.92h-78.72l58.48-33.68,20.24,33.68Z"/>
      <polygon class="cls-1" points="758.02 623.09 733.68 663.59 206.64 663.59 230.97 623.09 758.02 623.09"/>
    </g>
  </g>
</svg>