<?xml version="1.0" encoding="UTF-8"?>
<svg id="Layer_1" data-name="Layer 1" xmlns="http://www.w3.org/2000/svg" width="1080" height="1080" viewBox="0 0 1080 1080">
  <defs>
    <style>
      .cls-1 {
        fill: #56ff99;
      }

      .cls-2 {
        fill: #171918;
      }
    </style>
  </defs>
  <rect class="cls-2" width="1080" height="1080"/>
  <g>
    <path class="cls-1" d="M238.08,746.9h105.34l-119.45-206.9,158.01-273.69h421.37l-40.97-70.96c-7.24-12.54-20.63-20.27-35.11-20.27h-374.55c-14.49,0-27.87,7.73-35.11,20.27l-187.28,324.37c-7.24,12.55-7.24,28,0,40.55l107.75,186.63Z"/>
    <polygon class="cls-1" points="301.09 540 420.54 746.9 659.46 746.9 778.91 540 659.46 333.1 420.54 333.1 301.09 540"/>
    <path class="cls-1" d="M841.92,333.1h-105.34l119.46,206.9-158.01,273.69h-421.37l40.97,70.96c7.24,12.55,20.63,20.27,35.11,20.27h374.55c14.48,0,27.87-7.73,35.11-20.27l187.28-324.37c7.24-12.54,7.24-28,0-40.55l-107.75-186.63Z"/>
  </g>
</svg>