<?xml version="1.0" encoding="UTF-8"?>
<svg id="Layer_1" data-name="Layer 1" xmlns="http://www.w3.org/2000/svg" width="3660" height="800" viewBox="0 0 3660 800">
  <defs>
    <style>
      .cls-1 {
        fill: #2d302e;
      }

      .cls-2 {
        fill: #56ff99;
      }
    </style>
  </defs>
  <rect class="cls-1" y="0" width="3660" height="800.32"/>
  <g>
    <g>
      <path class="cls-2" d="M1449.61,510.03h39.27l-44.53-77.12,58.9-102.01h157.06l-15.27-26.45c-2.7-4.68-7.69-7.56-13.09-7.56h-139.61c-5.4,0-10.39,2.88-13.09,7.56l-69.81,120.91c-2.7,4.68-2.7,10.44,0,15.11l40.16,69.56Z"/>
      <polygon class="cls-2" points="1473.1 432.9 1517.62 510.02 1606.67 510.02 1651.2 432.9 1606.67 355.78 1517.62 355.78 1473.1 432.9"/>
      <path class="cls-2" d="M1674.68,355.78h-39.27l44.53,77.12-58.9,102.01h-157.06l15.27,26.45c2.7,4.68,7.69,7.56,13.09,7.56h139.61c5.4,0,10.39-2.88,13.09-7.56l69.81-120.91c2.7-4.68,2.7-10.44,0-15.11l-40.16-69.56Z"/>
    </g>
    <path class="cls-2" d="M2057.64,441.37c0-19.99-11-30.77-27.62-30.77s-28.07,10.78-28.07,30.77v68.72h-31.44v-124.41h31.44v15.5c8.08-10.55,21.56-17.29,37.5-17.29,28.97,0,49.63,18.86,49.63,53.22v72.99h-31.44v-68.72ZM2194.15,385.68l-50.2,120.94-26.82,62.3h33.45l77.03-183.25h-33.47ZM2153.27,450.07l-23.79-64.39h-35.25l42.28,102.86,16.76-38.46ZM2320.2,462.49l-.12.09-33.71-50.95.06-.03-17.13-25.93h-35.49l41.09,61.98-40.64,62.44h33.69l22.68-38.63,25.6,38.63h35.48l-31.5-47.6ZM2351.25,385.68h-33.68l-14.95,25.06,16.08,24.3,32.56-49.36ZM1964.08,385.82,1874.15,511.28c-43.89,0-79.76-32.98-79.76-79.76s35.87-79.54,79.76-79.54,79.54,32.98,79.54,79.54-35.43,79.76-79.54,79.76ZM1874.15,483.43c28.07,0,47.46-20.27,47.46-51.91s-19.38-51.47-47.46-51.47-47.68,19.83-47.68,51.47,19.38,51.91,47.68,51.91Z"/>
  </g>
</svg>