<?xml version="1.0" encoding="UTF-8"?>
<svg xmlns="http://www.w3.org/2000/svg" width="1080" height="600" viewBox="0 0 1080 600">
  <defs>
    <style>
      .cls-1 {
        fill: none;
        stroke: #515151;
        stroke-width: .4px;
      }

      .cls-1, .cls-2 {
        stroke-miterlimit: 10;
      }

      .cls-2 {
        stroke: #000;
      }

      .cls-2, .cls-3 {
        fill: #56ff99;
      }

      .cls-4 {
        opacity: .4;
      }

      .cls-5 {
        fill: #171918;
      }
    </style>
  </defs>
  <g id="Layer_1" data-name="Layer 1">
    <rect class="cls-5" y="0" width="1080" height="600"/>
    <g class="cls-4">
      <path class="cls-3" d="M518.74,293.67c0-27.58-15.18-42.46-38.12-42.46s-38.74,14.88-38.74,42.46v94.83h-43.38v-171.68h43.38v21.38c11.16-14.56,29.75-23.86,51.75-23.86,39.98,0,68.49,26.03,68.49,73.44v100.71h-43.39v-94.83ZM707.12,216.82l-69.28,166.89-37,85.97h46.17l106.3-252.87h-46.18ZM650.71,305.67l-32.83-88.86h-48.65l58.35,141.94,23.13-53.08ZM881.05,322.82l-.17.12-46.52-70.3.08-.05-23.64-35.78h-48.97l56.71,85.52-56.09,86.16h46.49l31.3-53.31,35.33,53.31h48.95l-43.47-65.68ZM923.9,216.82h-46.47l-20.63,34.58,22.18,33.53,44.92-68.12ZM389.64,217.02"/>
      <path class="cls-3" d="M265.55,390.15c-60.57,0-110.07-45.5-110.07-110.07s49.5-109.76,110.07-109.76,109.76,45.5,109.76,109.76-48.89,110.07-109.76,110.07ZM265.55,351.71c38.74,0,65.49-27.98,65.49-71.64s-26.75-71.02-65.49-71.02-65.8,27.36-65.8,71.02,26.75,71.64,65.8,71.64Z"/>
    </g>
  </g>
  <g id="Lines">
    <line class="cls-1" y1="217.02" x2="1080" y2="217.02"/>
    <line class="cls-1" x1="1006.78" y1="0" x2="648.82" y2="600"/>
    <line class="cls-1" x1="1080" y1="588.78" x2="690.47" y2="0"/>
    <line class="cls-1" x1="1066.9" y1="0" x2="671.18" y2="600"/>
    <line class="cls-1" x1="667.18" y1="0" x2="1064.22" y2="600"/>
    <line class="cls-1" x1="667.54" y1="0" x2="1063.99" y2="600"/>
    <line class="cls-1" x1="618.07" y1="0" x2="1015.9" y2="600"/>
    <line class="cls-1" x1="1015.35" y1="0" x2="624.77" y2="600"/>
    <line class="cls-1" x1="1037.02" y1="0" x2="684.77" y2="600"/>
    <line class="cls-1" x1="618.11" y1="0" x2="1015.73" y2="600"/>
    <line class="cls-1" y1="388.5" x2="1080" y2="388.5"/>
    <line class="cls-1" x1="667.42" y1="0" x2="1064.49" y2="600"/>
    <line class="cls-1" x1="537.76" y1="0" x2="759.46" y2="600"/>
    <line class="cls-1" x1="480.1" y1="0" x2="726.76" y2="600"/>
    <line class="cls-1" x1="783.91" y1="0" x2="522.46" y2="600"/>
    <line class="cls-1" x1="797.12" y1="0" x2="548.06" y2="600"/>
    <line class="cls-1" y1="469.68" x2="1080" y2="469.68"/>
    <line class="cls-1" x1="844.45" y1="0" x2="592.23" y2="600"/>
    <line class="cls-1" y1="216.82" x2="1080" y2="216.82"/>
    <line class="cls-1" x1="398.51" y1="0" x2="398.51" y2="600"/>
    <line class="cls-1" y1="216.81" x2="1080" y2="216.81"/>
    <line class="cls-1" x1="441.89" y1="0" x2="441.89" y2="600"/>
    <line class="cls-1" x1="562.13" y1="0" x2="562.13" y2="600"/>
    <line class="cls-1" y1="388.49" x2="1080" y2="388.49"/>
    <line class="cls-1" x1="518.74" y1="0" x2="518.74" y2="600"/>
  </g>
  <g id="Handles_Line_and_Shape_" data-name="Handles (Line and Shape)">
    <g id="HandlesGroup">
      <g id="LinesGroup">
        <line class="cls-3" x1="441.89" y1="238.2" x2="453.05" y2="223.63"/>
      </g>
      <g id="ShapesGroup">
        <circle class="cls-3" cx="562.13" cy="240.37" r="5"/>
        <circle class="cls-3" cx="533.62" cy="214.34" r="5"/>
        <circle class="cls-3" cx="471.64" cy="214.34" r="5"/>
        <circle class="cls-3" cx="453.05" cy="223.63" r="5"/>
        <circle class="cls-3" cx="441.89" cy="266.09" r="5"/>
        <circle class="cls-3" cx="457.07" cy="251.21" r="5"/>
        <circle class="cls-3" cx="503.56" cy="251.21" r="5"/>
        <circle class="cls-3" cx="518.74" cy="266.09" r="5"/>
        <circle class="cls-3" cx="375.31" cy="344.64" r="5"/>
        <circle class="cls-3" cx="375.31" cy="215.82" r="5"/>
        <circle class="cls-3" cx="326.73" cy="170.32" r="5"/>
        <circle class="cls-3" cx="204.98" cy="170.32" r="5"/>
        <circle class="cls-3" cx="155.48" cy="215.82" r="5"/>
        <circle class="cls-3" cx="155.48" cy="344.64" r="5"/>
        <circle class="cls-3" cx="204.98" cy="390.15" r="5"/>
        <circle class="cls-3" cx="326.42" cy="390.15" r="5"/>
        <circle class="cls-3" cx="199.75" cy="323.74" r="5"/>
        <circle class="cls-3" cx="199.75" cy="236.42" r="5"/>
        <circle class="cls-3" cx="226.5" cy="209.05" r="5"/>
        <circle class="cls-3" cx="304.29" cy="209.05" r="5"/>
        <circle class="cls-3" cx="331.04" cy="236.42" r="5"/>
        <circle class="cls-3" cx="331.04" cy="323.74" r="5"/>
        <circle class="cls-3" cx="304.29" cy="351.71" r="5"/>
        <circle class="cls-3" cx="226.5" cy="351.71" r="5"/>
      </g>
    </g>
  </g>
  <g id="Anchor_Shapes" data-name="Anchor Shapes">
    <g id="AnchorGroup">
      <rect class="cls-2" x="512.74" y="382.49" width="12" height="12"/>
      <rect class="cls-2" x="556.13" y="382.49" width="12" height="12"/>
      <rect class="cls-2" x="556.13" y="281.78" width="12" height="12"/>
      <rect class="cls-2" x="487.64" y="208.34" width="12" height="12"/>
      <rect class="cls-2" x="435.89" y="232.2" width="12" height="12"/>
      <rect class="cls-2" x="435.89" y="210.81" width="12" height="12"/>
      <rect class="cls-2" x="392.51" y="210.81" width="12" height="12"/>
      <rect class="cls-2" x="392.51" y="382.49" width="12" height="12"/>
      <rect class="cls-2" x="435.89" y="382.49" width="12" height="12"/>
      <rect class="cls-2" x="435.89" y="287.67" width="12" height="12"/>
      <rect class="cls-2" x="474.63" y="245.21" width="12" height="12"/>
      <rect class="cls-2" x="512.74" y="287.67" width="12" height="12"/>
      <rect class="cls-2" x="747.3" y="210.82" width="12" height="12"/>
      <rect class="cls-2" x="641.01" y="463.68" width="12" height="12"/>
      <rect class="cls-2" x="594.84" y="463.68" width="12" height="12"/>
      <rect class="cls-2" x="631.84" y="377.71" width="12" height="12"/>
      <rect class="cls-2" x="701.12" y="210.82" width="12" height="12"/>
      <rect class="cls-2" x="621.58" y="352.75" width="12" height="12"/>
      <rect class="cls-2" x="563.23" y="210.82" width="12" height="12"/>
      <rect class="cls-2" x="611.88" y="210.82" width="12" height="12"/>
      <rect class="cls-2" x="644.71" y="299.67" width="12" height="12"/>
      <rect class="cls-2" x="918.52" y="382.5" width="12" height="12"/>
      <rect class="cls-2" x="869.57" y="382.5" width="12" height="12"/>
      <rect class="cls-2" x="834.24" y="329.19" width="12" height="12"/>
      <rect class="cls-2" x="802.94" y="382.5" width="12" height="12"/>
      <rect class="cls-2" x="756.45" y="382.5" width="12" height="12"/>
      <rect class="cls-2" x="812.54" y="296.34" width="12" height="12"/>
      <rect class="cls-2" x="755.83" y="210.82" width="12" height="12"/>
      <rect class="cls-2" x="804.8" y="210.82" width="12" height="12"/>
      <rect class="cls-2" x="828.44" y="246.6" width="12" height="12"/>
      <rect class="cls-2" x="828.36" y="246.64" width="12" height="12"/>
      <rect class="cls-2" x="874.88" y="316.94" width="12" height="12"/>
      <rect class="cls-2" x="875.05" y="316.82" width="12" height="12"/>
      <rect class="cls-2" x="872.98" y="278.93" width="12" height="12"/>
      <rect class="cls-2" x="850.79" y="245.4" width="12" height="12"/>
      <rect class="cls-2" x="871.43" y="210.82" width="12" height="12"/>
      <rect class="cls-2" x="917.9" y="210.82" width="12" height="12"/>
      <rect class="cls-2" x="383.64" y="211.02" width="12" height="12"/>
      <rect class="cls-2" x="369.31" y="274.08" width="12" height="12"/>
      <rect class="cls-2" x="259.55" y="164.32" width="12" height="12"/>
      <rect class="cls-2" x="149.48" y="274.08" width="12" height="12"/>
      <rect class="cls-2" x="259.55" y="384.15" width="12" height="12"/>
      <rect class="cls-2" x="193.75" y="274.08" width="12" height="12"/>
      <rect class="cls-2" x="259.55" y="203.05" width="12" height="12"/>
      <rect class="cls-2" x="325.04" y="274.08" width="12" height="12"/>
      <rect class="cls-2" x="259.55" y="345.71" width="12" height="12"/>
    </g>
  </g>
</svg>