<?xml version="1.0" encoding="UTF-8"?>
<svg id="Layer_1" data-name="Layer 1" xmlns="http://www.w3.org/2000/svg" width="1920" height="1080" viewBox="0 0 1920 1080">
  <defs>
    <style>
      .cls-1 {
        fill: #56ff99;
      }

      .cls-2 {
        fill: #182750;
      }
    </style>
  </defs>
  <rect class="cls-2" x=".42" y="-.39" width="1920" height="1080"/>
  <path class="cls-1" d="M690.99,553.33c-4.76-8.25-4.76-18.42,0-26.67l123.17-213.33c4.76-8.25,13.57-13.33,23.09-13.33h246.34c9.53,0,18.33,5.08,23.09,13.33l26.94,46.67h-277.13l-103.92,180,78.56,136.08h-69.28l-70.87-122.74ZM803.29,540l78.56,136.08h157.13l78.56-136.08-78.56-136.08h-157.13l-78.56,136.08ZM1158.98,403.92h-69.28l78.56,136.08-103.92,180h-277.13l26.94,46.67c4.76,8.25,13.57,13.33,23.09,13.33h246.34c9.53,0,18.33-5.08,23.09-13.33l123.17-213.33c4.76-8.25,4.76-18.42,0-26.67l-70.87-122.74Z"/>
</svg>