<?xml version="1.0" encoding="UTF-8"?>
<svg id="Layer_1" data-name="Layer 1" xmlns="http://www.w3.org/2000/svg" width="1920" height="600" viewBox="0 0 1920 600">
  <defs>
    <style>
      .cls-1 {
        fill: #f6d548;
      }

      .cls-2 {
        fill: #b83630;
      }

      .cls-3 {
        fill: #221f20;
      }

      .cls-4 {
        fill: #ca2627;
      }
    </style>
  </defs>
  <rect class="cls-1" x="0" width="1920.03" height="600" transform="translate(1920.03 600) rotate(180)"/>
  <g>
    <path class="cls-4" d="M193.72,214.99v15.04h-11.6v60.1h-19.54v-60.1h-11.55v-15.04h42.69Z"/>
    <path class="cls-4" d="M229.76,214.99l11.17,75.13h-19.97l-1.05-13.5h-6.99l-1.17,13.5h-20.2l9.97-75.13h28.24ZM219.4,263.29c-.99-8.51-1.98-19.03-2.98-31.56-1.99,14.39-3.24,24.91-3.75,31.56h6.73Z"/>
    <path class="cls-4" d="M244.45,214.99h13.83c9.22,0,15.46.36,18.72,1.07,3.26.71,5.92,2.53,7.98,5.45,2.06,2.92,3.09,7.59,3.09,13.99,0,5.85-.73,9.78-2.18,11.79-1.45,2.01-4.32,3.22-8.59,3.62,3.87.96,6.47,2.24,7.8,3.85,1.33,1.61,2.16,3.09,2.48,4.43s.49,5.05.49,11.11v19.82h-18.15v-24.97c0-4.02-.32-6.51-.95-7.47-.63-.96-2.3-1.44-4.99-1.44v33.88h-19.54v-75.13ZM263.99,227.84v16.71c2.2,0,3.74-.3,4.62-.91.88-.6,1.32-2.56,1.32-5.87v-4.13c0-2.38-.43-3.94-1.28-4.69-.85-.74-2.41-1.11-4.66-1.11Z"/>
    <path class="cls-4" d="M329.75,214.99l11.17,75.13h-19.97l-1.05-13.5h-6.99l-1.17,13.5h-20.2l9.97-75.13h28.24ZM319.39,263.29c-.99-8.51-1.98-19.03-2.98-31.56-1.99,14.39-3.24,24.91-3.75,31.56h6.72Z"/>
    <path class="cls-4" d="M388.07,214.99v75.13h-17.12l-10.16-34.15v34.15h-16.33v-75.13h16.33l10.95,33.83v-33.83h16.33Z"/>
    <path class="cls-4" d="M434.86,214.99v15.04h-11.6v60.1h-19.54v-60.1h-11.55v-15.04h42.69Z"/>
    <path class="cls-4" d="M458.48,214.99v75.13h-19.54v-75.13h19.54Z"/>
    <path class="cls-4" d="M508.1,214.99v75.13h-17.12l-10.16-34.15v34.15h-16.33v-75.13h16.33l10.95,33.83v-33.83h16.33Z"/>
    <path class="cls-4" d="M558.86,258.98c0,7.55-.18,12.89-.53,16.03s-1.47,6.01-3.34,8.61c-1.87,2.6-4.4,4.59-7.59,5.99-3.19,1.39-6.9,2.09-11.14,2.09s-7.63-.66-10.84-1.97c-3.2-1.31-5.78-3.29-7.73-5.92-1.95-2.63-3.11-5.49-3.48-8.59s-.56-8.51-.56-16.24v-12.85c0-7.55.18-12.89.53-16.03.35-3.14,1.47-6.01,3.34-8.61,1.87-2.6,4.4-4.59,7.59-5.99,3.19-1.39,6.9-2.09,11.14-2.09,4.02,0,7.63.66,10.84,1.97s5.78,3.29,7.73,5.92c1.95,2.63,3.11,5.49,3.48,8.59.37,3.09.56,8.51.56,16.24v12.85ZM539.32,234.29c0-3.5-.19-5.73-.58-6.71-.39-.97-1.18-1.46-2.39-1.46-1.02,0-1.8.39-2.34,1.18s-.81,3.12-.81,6.98v35.08c0,4.36.18,7.05.53,8.07.36,1.02,1.18,1.53,2.48,1.53s2.18-.59,2.55-1.76c.37-1.17.56-3.97.56-8.4v-34.53Z"/>
    <path class="cls-3" d="M197.29,345h-18.47v-12.35c0-3.59-.2-5.83-.59-6.72-.4-.89-1.27-1.34-2.61-1.34-1.52,0-2.49.54-2.9,1.62-.41,1.08-.61,3.42-.61,7.02v33c0,3.45.2,5.71.61,6.76.41,1.05,1.33,1.58,2.76,1.58s2.27-.53,2.7-1.58c.42-1.06.64-3.53.64-7.43v-8.93h18.47v2.77c0,7.35-.52,12.57-1.56,15.64-1.04,3.08-3.33,5.77-6.89,8.09s-7.94,3.47-13.14,3.47-9.87-.98-13.38-2.94c-3.51-1.96-5.84-4.67-6.98-8.14-1.14-3.47-1.71-8.68-1.71-15.64v-20.75c0-5.12.18-8.96.53-11.52.35-2.56,1.4-5.02,3.14-7.39,1.74-2.37,4.15-4.23,7.24-5.59,3.09-1.36,6.63-2.04,10.64-2.04,5.44,0,9.93,1.05,13.47,3.16s5.86,4.73,6.98,7.87c1.11,3.14,1.67,8.03,1.67,14.66v6.75Z"/>
    <path class="cls-3" d="M244.7,355.66c0,7.14-.17,12.19-.5,15.16-.34,2.97-1.39,5.68-3.16,8.14-1.77,2.46-4.16,4.34-7.17,5.66-3.01,1.32-6.52,1.97-10.53,1.97s-7.22-.62-10.25-1.87-5.46-3.11-7.31-5.59c-1.84-2.49-2.94-5.19-3.29-8.12-.35-2.92-.53-8.04-.53-15.36v-12.16c0-7.14.17-12.19.5-15.16.34-2.97,1.39-5.68,3.16-8.14,1.77-2.46,4.16-4.34,7.17-5.66,3.01-1.32,6.52-1.97,10.53-1.97s7.22.62,10.25,1.87,5.46,3.11,7.31,5.59c1.84,2.49,2.94,5.19,3.29,8.12.35,2.93.53,8.04.53,15.36v12.16ZM226.22,332.31c0-3.31-.18-5.42-.55-6.34-.37-.92-1.12-1.38-2.26-1.38-.97,0-1.7.37-2.22,1.12-.51.75-.77,2.95-.77,6.6v33.17c0,4.12.17,6.67.5,7.64.34.96,1.12,1.45,2.35,1.45s2.06-.55,2.41-1.67c.35-1.11.53-3.76.53-7.94v-32.65Z"/>
    <path class="cls-3" d="M268.43,314.06v56.82h11.23v14.22h-29.71v-71.04h18.47Z"/>
    <path class="cls-3" d="M302.09,314.06v56.82h11.23v14.22h-29.71v-71.04h18.47Z"/>
    <path class="cls-3" d="M317.28,314.06h30.8v14.22h-12.33v13.47h11.54v13.51h-11.54v15.62h13.56v14.22h-32.03v-71.04Z"/>
    <path class="cls-3" d="M396.84,345h-18.47v-12.35c0-3.59-.2-5.83-.59-6.72-.4-.89-1.27-1.34-2.61-1.34-1.52,0-2.49.54-2.9,1.62-.41,1.08-.61,3.42-.61,7.02v33c0,3.45.2,5.71.61,6.76.41,1.05,1.33,1.58,2.76,1.58s2.27-.53,2.7-1.58c.42-1.06.64-3.53.64-7.43v-8.93h18.47v2.77c0,7.35-.52,12.57-1.56,15.64-1.04,3.08-3.33,5.77-6.89,8.09-3.55,2.31-7.93,3.47-13.14,3.47s-9.87-.98-13.38-2.94c-3.51-1.96-5.84-4.67-6.98-8.14-1.14-3.47-1.71-8.68-1.71-15.64v-20.75c0-5.12.18-8.96.53-11.52.35-2.56,1.4-5.02,3.14-7.39,1.74-2.37,4.15-4.23,7.24-5.59,3.09-1.36,6.63-2.04,10.64-2.04,5.44,0,9.93,1.05,13.47,3.16,3.54,2.1,5.87,4.73,6.98,7.87,1.11,3.14,1.67,8.03,1.67,14.66v6.75Z"/>
    <path class="cls-3" d="M440.53,314.06v14.22h-10.97v56.82h-18.47v-56.82h-10.93v-14.22h40.37Z"/>
    <path class="cls-3" d="M462.86,314.06v71.04h-18.47v-71.04h18.47Z"/>
    <path class="cls-3" d="M510.93,355.66c0,7.14-.17,12.19-.5,15.16-.34,2.97-1.39,5.68-3.16,8.14-1.77,2.46-4.16,4.34-7.17,5.66-3.01,1.32-6.52,1.97-10.53,1.97s-7.22-.62-10.25-1.87c-3.03-1.24-5.46-3.11-7.31-5.59-1.84-2.49-2.94-5.19-3.29-8.12-.35-2.92-.53-8.04-.53-15.36v-12.16c0-7.14.17-12.19.5-15.16.34-2.97,1.39-5.68,3.16-8.14,1.77-2.46,4.16-4.34,7.17-5.66s6.52-1.97,10.53-1.97,7.22.62,10.25,1.87,5.46,3.11,7.31,5.59c1.84,2.49,2.94,5.19,3.29,8.12.35,2.93.53,8.04.53,15.36v12.16ZM492.46,332.31c0-3.31-.18-5.42-.55-6.34-.37-.92-1.12-1.38-2.26-1.38-.96,0-1.7.37-2.22,1.12s-.77,2.95-.77,6.6v33.17c0,4.12.17,6.67.5,7.64.34.96,1.12,1.45,2.35,1.45s2.06-.55,2.41-1.67c.35-1.11.53-3.76.53-7.94v-32.65Z"/>
    <path class="cls-3" d="M557.44,314.06v71.04h-16.19l-9.61-32.29v32.29h-15.45v-71.04h15.45l10.36,31.99v-31.99h15.45Z"/>
  </g>
  <g>
    <path class="cls-2" d="M668.21,600.47h-8.64c-.57-1.44-1.72-5.15-3.57-5.25-3.53.67-3.76,2.02-3.14,5.25h-29.75c.4-1.15.95-3.2.76-4.35-.29-1.75-2.45-3.02-2.67-4.57-.18-1.27.52-2.26.46-3.3-.07-1.26-1.43-2.29-1.44-3.86,0-1.39,1.02-2.62,1-4.3-.05-3.87-1.87-8.1-2.9-11.78-3.12,1.44-4.45-2.96-7.19.72,1.52,1.36,2.39,1.97,1.42,4.08-1.71,1.17-2.75-4.53-5.55-2.43-3.34,2.49.07,6.16.27,9.15l-4.58-3.86c-1-.08-1.69.96-2.85,1.03-1.31.08-2.92-.95-4.26-.47-.89.32-1.18,3.32-2.95,3.33-1.76,0-1-2.97-2.88-3.39-2.53-.57-2,.8-3.34,1.94-2.13,1.81-2.21.09-3.43-.91-.38-.31-1.09-.32-1.48-.68-.55-.52-.9-2.17-1.44-2.28-1.56-.34-4.89.65-6.85-.22-.27-.12-4.36-3.38-4.55-3.6-1.26-1.45-1.71-6.11-5.07-5.06-1.45.45-2.02,2.54-3.82,2.2-.23-1.95,2.44-2.23,2.35-4.07-.07-1.34-2.17-6.13-3.95-5.89-.78.1-3.66,3.07-4.18,1.01-.67-2.66,1.9-2.49,2.33-3.86,1.5-4.78-.49-8.79-5.66-9.27-.57-2.22,2.13-2.27,2.75-3s1.48-4.26.86-5.17c-.46-.68-3.41-.72-3.14-2.13.23-1.16,2.83-.15,3.8-1.48,1.58-2.16-1.02-3.77-.92-5.96.81.09,3.14-.6,2.88-1.68-.09-.38-6-2.43-1.73-2.58.5-.02,1.02.4,1.75.22,1.49-.39,1.37-1.77,1.96-2.85,1.18-2.16,1.93-1.67.43-4.83.18-.74,1.52-.52,1.94-1.06.98-1.27-.06-3.91,2.99-3.04.39.11.33.96.6.98.55.03,3.57-1.19,4.06-1.68,1.83-1.83.33-3.67-.88-5.3l1.1-1.19c1.57,1.23,1.99,1.9,1.2,3.83,4.32,1.17,7.59-1.8,6.24-6.23,1.27-1.26,2.44,3.47,4.99,2.91.35-.08,2.24-7.06,3.66-.86l1.19.36,2.4-3.36,1.92,3.34c2.86-1.32.46-4.85,2.87-5.75,1.25,1.01.08,2.37.45,3.83.88,3.48,2.95,1.35,5.3,1.42,1.08.03,2.2.84,2.9.81.97-.04,2.23-1.97,3.76-1.2,2.05.67-1.52,3.44,1.9,5.79,2.7,1.86,2.38.66,4.43.41,1.5-.18,3,.07,4.54-.5-2.28,2.25-.6,3.15-.48,5.76l4.31-.96c.56.55-2.73,2.39-.99,5.07,1.53,2.35,5.59.64,6.24,1.68,1.04,1.65-3.06,2.34-3.32,3.62,1.35,2.14,1.83,4.39,4.78,4.51,1.08,1.58-4.2,2.8-1.43,4.57.29.19,6.5.69,6.84.63,1.21-.21,6.21-3.69,7.79-3.75.91-.03,2.16,1.2,3.39,1.39,2.09.34,5.23-.43,7.07.13,1.35.41,6.29,4.06,8.37,4.59,1.46.37,2.78-.3,4.23.56,2.76,1.64-.49,3.89.3,5.22.11.18,3.05,2.54,3.31,2.69,1.18.7,3.09.67,4.03,1.73,2.06,2.32.15,5.87,1.34,8.74.4.97,1.54,1.42,1.73,2.15.28,1.04-.56,2.11-.42,3.22s1.6,1.9,1.47,3.39c-.2,2.26-4.52-.98-3.86,3.8.57,4.09,1.92,7.27.85,11.93-.32,1.41-3.29,5.23-4.08,6.95-.63,1.36-1.91,4.31-2.03,5.68-.3,3.24,3.34,3.77,1.9,7.38Z"/>
    <path class="cls-2" d="M53.1,600.47l-8.5-6.07c-3.54-4.49-10.32-7.64-13.39-12.13-.58-.85-.56-2.54-1.36-3.22-1.06-.91-2.76,0-4.06-1.51-.44-.51-1.36-2.82-1.4-3.46-.06-1.09,1.13-3.12,1.07-3.41-.1-.48-9.77-7.28-9.77-18.2,0-3.84,1.34-11.91,5.15-12.42,3.09-.41,6.51,2.73,8.53,5.1,2.35,2.75,6.43,9.94,6.41,13.59,0,.78-.43,1.51-.35,2.26.02.19.63,2.03.71,2.1.2.16.87.06,1.24.22,2.22.98,9.47,5.9,11.44,7.56,3.77,3.16,3.42,2.6,7.66,4.78,2.44,1.25,4.72,3.88,6.66,4.8,1.35.64,3.84.66,4.68,1.21.79.52.84,2.53,1.65,2.94,3.01.12,4.25-.66,7.04,1.15,2.57,1.67,2.54,3.55,3.62,5.87.14.31,3.67,5.28,3.93,5.56,1.03,1.13,4.51,1.53,5.39,3.29h-36.34Z"/>
    <path class="cls-2" d="M366.38,600.47c-.95-2.59,1.97-6.54,4.58-6.7,1.86-.11,6.65,1.66,8.34,2.65,1.42.84,2.25,2.6,2.92,4.04h-15.84Z"/>
    <path class="cls-2" d="M682.61,600.47c.5-1.41,2.86-1.41,3.36,0h-3.36Z"/>
    <path class="cls-2" d="M169.38,392.33c.21,1.51-1.23,2.87-.96,4.28.38,2.02,3.3.81,3.48,3.05-.16.85-3.45.37-3.71.79-1.36,2.63.47,3.86.8,6.22-1.02.35-2.7.43-2.63,1.82.11,1.24,3.02.5,2.97,2.46-1.15.48-2.37-.18-3.42,0-1.45.25-1.21,1.57-1.74,2.52-.38.68-1.34,1.25-1.4,1.92-.07.71.55,1.29.66,1.97.32,2.16-.91,1.37-1.6,2.3-.88,1.17-.13,3.98-2.77,3.04-.54-.19-.3-1-.99-.94-.52.05-4.19,1.46-4.38,1.72-1.38,1.94,2.55,5.6.74,6.14-.53.16-2.11-1.41-2.14-1.54-.16-.67.49-1.72.21-2.07-1.65-1.66-6.07,1.27-6.11,2.78-.02,1.02,1.01,2.52-.15,3.45-.95.2-2.86-4.64-4.92-2.62-.77.75.5,3.77-2.96,2.32l-.14-1.98c-2.02.1-2.21,1.81-3.47,2.93-1,.18-.86-2.27-3.51-1.63-1.11.89.7,3.96-1.36,4.28-1.26.19-.28-2.66-.54-3.41-.15-.42-.75-.43-.86-.6-.26-.44.14-1.4-.38-1.75-1.43-.63-2.72.6-4.11.54-.98-.04-2.16-1.04-2.9-.92s-1.99,1.81-3.26,1.51c-2.13-.51.88-4.48-1.89-5.99-.24-.13-2.63-1.17-2.78-1.18-.86-.07-1.29.79-2.02.94-.95.2-1.66-.35-2.51-.27-1.83.16-4.07,1.93-5.47,2.75-1.28.75-2.83,1.72-4.22,2.16,1.14-1.04,2.82-2.47,4.15-3.21,1.51-.84,4.95-1.48,4.98-3.49.02-1.09-1.36-2.15-.95-3.45-.22-.27-4.61,1.67-4.58.49,1.87-1.43,2.96-3.59.67-5.26-1.58-1.15-2.74-.18-4.37-.54-3.58-.8,2.07-3,2.06-4.01,0-.21-1.88-3.57-2.06-3.68-.6-.38-2.5-.18-2.73-1.38-.4-1.48,1.9-1.24,2.35-1.98l-.51-1.83c-2.05.56-4.95-.94-6.71-.78-.66.06-2.76,1.79-3.7,2.2-.4.17-3.95,1.4-4.17,1.42-1.87.17-2.41-1.1-3.62-1.32-2.03-.38-5.21.59-6.85-.02-1.04-.39-1.24-1.14-2.02-1.59-.49-.28-5.91-2.82-6.25-2.92-1.59-.46-4.13.72-5.09-1.46-.89-2.03,1.18-2.98.92-3.52-1.56-.78-2.37-2.64-3.82-3.4-2.39-1.24-5.2-1.28-4.91-5.28.06-.78.71-1.15.64-1.87-.04-.42-.8-2.84-1.01-3.28-.32-.69-1.73-1.98-1.82-2.41-.11-.55.77-1.7.59-2.88s-1.57-1.81-1.32-3.62c.24-1.72,2.67.87,3.59-1.67.85-2.36-.43-2.38-.83-4.06-.33-1.39-.3-7.11-.05-8.61.43-2.55,4.1-7.01,5.22-9.84.4-1.01,1.18-3.36,1.23-4.35.09-1.96-3.57-2.6-1.85-6.42.29-.66,2.14-2.56,2.89-2.39.62.14,2.12,1.35,2.91,1.67.67.27,1.38,0,2.16.45,1.86,1.09,1.3,7.49,6.15,4.56,2.55-1.54-.05-5.38.6-7.58.27-.91,1.7-.97,2.2-1.73.13-.2,1.16-2.94,1.26-3.33.2-.78.54-2.97-.45-3.31-3.53-1.21-3.81,3.27-7.32,2.25l-.15,2.96-1.51.17c-.17-.13-.97-2.9-.98-3.31-.03-1.3,1.17-2.08.62-3.85-.24-.79-1.63-1.18-2.21-1.71-.36-.33-.34-.93-.68-1.28-.83-.86-2.72-1.32-3.87-2.68s-2.09-4.09-.86-5.67c1.5-1.94,3.94.39,5.5,1.04,3.88,1.6,5.32,2.97,8.51,4.59,1.8.91,4.28,1.32,6.22,1.97.62.21,1.16.86,1.72.92,1.25.13,1.76-1.11,2.69-1.56,3.09-1.48,7.76-1.2,10.36-3.72,1.17-1.14,1.33-2.43,3.15-3.07,4.38-1.54,7.87.1,9.33,4.41.73,2.16.4,3.77.55,5.66.07.85.87,1.69.94,2.7.11,1.71-.98,6.41-2.46,7.37-.71.46-1.95.28-2.25,1.04-.48,1.23-1.52,7.7-1.03,8.76.27.59,1.11.74,1.36,1.1,1.88,2.62.46,3.59.75,5.96.12.98.76,1.3.93,2.02.51,2.17-.66,3.76-.59,5.81.07,2.26.88,6.05,1.63,8.21.35,1.02,1.35,1.72.99,3.1.86.08,1.88-.17,2.71.07.63.18,1.06,1.22,2.03,1.22.8,0,2.91-1.39,2.3-2.28-.72-1.05-2.4-.87-1.14-3.58,1.66-1.11,3.09,5.08,5.7,2.26,2.82-3.05-.89-8.13-1.78-11.44l.99.22c.28,2.53,2.72,4.49,4.47,6.23,1.2.35,2.11-1.01,2.95-1.15,1.19-.19,2.97.99,4.45.53,1.23-.38,1.01-4.54,4.09-2.81l.46,2.48c3.29,1.91,3.32-1.12,5.26-1.98,2.19-.97,1.71.99,2.42,1.42.49.3,1.35.14,1.68.37.3.21.82,2.24,1.61,2.51.58.19,3.83-.38,4.84-.3,2.18.18,2.52,1.46,3.95,2.62.66.54,2.01,1.06,2.36,1.41.56.55.57,1.86.93,2.51.16.28,1.84,2.54,1.99,2.59,2.91.98,3.61-2.59,6-2.24,0,2.19-2.92,2.42-2.56,4.66,2.15,3.08,2.22,7.55,6.64,3.53,3.97,1.59-.2,3.23-.72,4.5-.6,1.45-.55,4.28-.07,5.79.93,2.92,5.47,3.17,5.57,3.66.09,1.99-1.33,2.32-2.92,2.79Z"/>
    <path class="cls-2" d="M730.12,464.22l1.01,3.14c-1.68,1.45-.41,1.44-.52,2.84-.31,3.84-3.39-.56-3.69-.66-3.4-1.15-3.41,4.36-5.12,4.2-2.28-.21-6.12-7.3-5.85,2.95-1.81.15-2.45-3.62-2.7-3.78-.86-.56-4.38.79-5.54-1.45l-1.12.17c-4.81,5.56-2.94.02-3.67-1.53-1.08-2.29-4.71.02-6.42-.43-2.6-.69-7.03-4.51-9.46-4.91-1.16-.19-2.13.47-3.24.44-1.86-.05-3.43-.87-5.53-.25l-1.2-5.07-4.54.95,2.31-5.92c-.13-1.86-3.82-2.7-4.47-4.17-.25-.57.16-1.28.02-1.92-.19-.88-.79-1.7-.78-2.64s1.33-.8,1.79-2.45c.94-3.4-1.49-5.84-.96-7.74s1.82-1.83,2.43-2.65c.18-.24,2.49-5.12,2.55-5.42.33-1.79-1.53-.92-1.44-2.59l3.72-.1.6-2.3c3.33,1.17,2.89-1.3,4.07-2.4.73-.68,2.01-.36,2.71-1.16s-1.23-2.07,1.99-3.26c2.66-.98,1.48.65,2.55,1.02,2.02.7,2.37-1.2,2.12-2.83,2.14.44,1.34,2.62,4.08,2.45,1.71-.11,1.39-1.14,1.81-1.35.36-.18,3.22-1.13,3.4-1.08l1.87,2.55,4.2.06c1.6,3.35,4.44,5,7.43,6.96.98-1-1-2.53-1.04-3.12,0-.15.74-2.92,1.51-2.63,1.54.58,1.76,5.19,1.42,6.72.56.82,2.68.32,3.77.57,1.23.28,1.75,1.46,2.6,1.72.9.27,3.38-.04,3.88.68.29.43.09,1.66.62,2.49.64,1.01,1.98.92,2.4,1.56.59.93.47,3.16,1.17,3.99,1.14,1.36,6.28,1.38,3.15,5.53,2.03,1.24,3.79,2.17,3.27,4.98-6.83,1,1.54,5.71,1.38,7.49l-1.19,1.15c-5.7-2.59-2.52,2.08-2.54,5.09-.02,3.37-1.43,4.62-4.79,4.08Z"/>
    <path class="cls-2" d="M185.14,526.72c-.22-.15-.28-.75-.76-1.03-3.17-1.85-4.61-2.14-7.18-5.25-2.42-2.92-5.7-11.01-6.47-14.83-.24-1.18-.88-4.79-.74-5.78.23-1.58,2.32-3.11,2.53-4.03.69-3.08.9-6.13,1.8-9.34.34-1.22,1.11-2,2.41-2.2,2.09-.32,2.62,1.69,3.24,1.67,4.41-.95.46-4.51,1.78-7.09l1.6-.07c1.62,1.43-.13,4.76,1.91,5.44.97.32,2.99-.05,3.33-1.15.43-1.4-1.35-4.62,1.54-4.39.52.04,1,1.26,2.13,1.54.93.23,1.38-.21,2.06-.13,1.02.12,2.11,1.22,2.37,2.22.22.84.73,5.17,1,5.58.18.27.73.39.93.68,3.77,5.43,5.37,18.76,4.04,25.26-.98,4.79-2.32,8.33-6.13,11.54-.56.47-4.38,3.01-4.74,2.99-.24-.02-.59-.48-1-.52-2.07-.19-3.75.15-5.62-1.1Z"/>
    <path class="cls-2" d="M797.77,445.51l-.24.96c-.29.02-.57-.05-.85-.1-2.05-.38-5.55-4.05-7.4-1.69-.27.35-1.55,3.58-1.55,3.94,0,.83,2.5,6.09.68,6.47-1.26.27-2.78-3.22-3.58-3.6-1.84-.88-5.64-.42-7.68-.23l.47,5.75c-2.18-1.18-2.24-4.92-5.27-4.32l-.45,2.68c-3.31,1.08-4-3.35-6.72-4.4-1.64-.63-.65,1.09-2.18,1.24l-3.43-3.8c-4.7,3.5-3.12,1.87-4.11-1.61-.31-1.07-2.5-2.43-2.37-4.11l-3.77-.07-.94-6.5c-2.18-.63-1.86,5.12-3.8,2.36-1.19-1.7.45-2.18.79-3.41.82-2.93-.53-3.96-3.18-4.5l-.51-3.09c-2.59-1.44-3.37,2.59-5.79,1.48.72-2.06,2.15-1.86,3.52-2.71,2.49-1.54,1.33-2.63,1.97-4.75,1.23-4.1,1.8-5.28,5.19-7.64.49-.34.56-1.24,1.14-1.41.75-.22,1.7.46,2.12.21.34-.2.49-1.18.93-1.46.77-.48,2.76-.15,4.12-.68,1.22-.47,1.71-1.77,2.87-1.96,2.6-.43,4.65,2.38,7.41-.47l.6,1.81,1.08.4c.69-.13,1.24-.72,1.97-.77,2-.12,7.13,1.25,8.83,2.16.91.48.71,1.52,1.11,2,1.61,1.93,5.3,1.16,6.38,2.02.87.7.49,2.07.92,2.92.97,1.97,5.72-.17,4.96,2.57-.31,1.13-2.68,1.53-1.62,3.68.67,1.57,9.67,2.24,7.93,4.79-.92,1.35-4.9-2.95-6.21.3,1.21,1.03,1.55,3.78,2.14,4.49.63.76,3.96,1.33,4.51,3.19-.51,2.6-2.57.83-3.78,1.35-.41.18-2.47,2.33-2.38,2.83,1.38,2.19,4.19,2.28,6.2,3.67Z"/>
    <path class="cls-2" d="M671.15,215.91c.28,2.1-.49,6.3-2.03,7.82-1.46,1.44-5.39,3.19-7.48,2.63-3.4-.9-7.24-4.67-8.25-8.08-.96-3.23-.37-11.41,3.44-12.61.53-.17,4.83-.14,5.32,0,.31.08,5.3,2.9,5.53,3.12,1.31,1.33,3.22,5.28,3.47,7.11Z"/>
    <path class="cls-2" d="M688.41,241.81c.73,2.89.14,8.77-2.51,10.69-4.5,3.25-11.74-2.04-13.33-6.4-.31-.86.08-1.44-.05-1.91-.23-.86-.94-1.35-1.03-2.47-.17-2.18,1.35-6.98,3.58-7.72,1.31-.43,4.04-.67,5.26.05.78.46,5.51,3.97,6.05,4.53.47.49,1.9,2.69,2.04,3.24Z"/>
    <path class="cls-2" d="M78.83,411.8c-.78.74-7.87,1.18-9.22,1.09-3.89-.27-6.24-1.24-5.14-5.6.24-.96,2.1-5.8,2.54-6.58,1.17-2.07,6.66-5.13,9.11-4.97,3.39.23,7.36,3.05,7.04,6.8-.3,3.58-2.77,6.23-4.33,9.27Z"/>
    <path class="cls-2" d="M168.72,556.36c2.66-.41,5.4,2.5,6.61,4.59,2.31,4,3.42,6.17,6.31,10.01,2.21,2.94,5.61,6.13,4.59,10.34-.47,1.93-.99,2.48-2.69,1.19-3.97-3.02-7.14-10.91-9.66-15.29-.92-1.6-7.23-9.36-5.15-10.84Z"/>
    <path class="cls-2" d="M680.51,219.05c3.41-2.83,11.56,3.7,8.45,9.16-.38.66-3.04,2.47-3.66,2.6-4.49.95-8.83-8.39-4.79-11.75Z"/>
    <path class="cls-2" d="M632.52,275.38c-1.99-1.95-1.85-7.14,2.02-7.56,8-.86,5.71,9.27,1.98,9.12-.64-.03-3.58-1.15-4-1.57Z"/>
    <path class="cls-2" d="M818.75,376.28c-4.29,3.5-10.8-4.09-5-7.15,5.98-3.15,8.61,4.21,5,7.15Z"/>
    <path class="cls-2" d="M613.32,269.41c3.58-2.92,9.11,3.25,6.1,6.34-.45.46-3.99,2.03-4.67,2.1-3.55.37-3.45-6.78-1.43-8.44Z"/>
    <path class="cls-2" d="M78.86,372.93c1.08,3.79-5.13,6.84-6.76,3.37-2.19-4.66,5.69-7.13,6.76-3.37Z"/>
    <path class="cls-2" d="M111.23,514.92c-2.96-2.4.05-8.5,3.89-6.04,3.42,2.18,0,9.19-3.89,6.04Z"/>
    <path class="cls-2" d="M608.96,279.43c2.19-1.57,5.4-1.25,6.05,1.71,1.36,6.09-7.97,4.24-6.05-1.71Z"/>
    <path class="cls-2" d="M55.44,397.53c-.07-.82,0-1.62.21-2.43,1.67-6.75,3.69-13.64,5.57-20.34.23-.82.38-1.38,1.41-1.22,0,2.31-1.62,4.1-2.19,6.2-1.21,4.51-2.05,9.82-3.31,14.44-.28,1.04-.64,2.83-1.69,3.34Z"/>
    <path class="cls-2" d="M708.04,517.95c-3.23-.77-5.76-4.35-5.27-7.68,1.26-1.2,4.84,3.22,5.17,4.67.22.99.11,2.01.11,3.01Z"/>
    <path class="cls-2" d="M206.99,504.83c.55,1.67.26,5.94-2.08,6.4-1.51-1.62-2.02-3.86-1.08-5.87.67-1.44,2.66-2.05,3.16-.53Z"/>
    <path class="cls-2" d="M741.63,503.55c-.5-1.18,1.02-2.81.88-3.52-.15-.75-2.42-2.12-1.84-3.67l3.07,1.41c.99-.24,1.05-3.14,2.68-2.85.34.38-2.53,9.11-4.79,8.63Z"/>
    <path class="cls-2" d="M735.39,507.87c-1.2,1.24-5.48-5.34-5.67-6.58-.09-.63.03-1.44.64-1.57,1.33-.28,5.87,7.28,5.03,8.15Z"/>
    <path class="cls-2" d="M742.11,461.82c1.65-.32,7.25,4.67,7.18,5.52-.04.48-.76.79-1.43.48-2.69-1.22-5.92-2.5-5.76-6Z"/>
    <path class="cls-2" d="M740.29,395.98c-2.2-3.09,3.6-6.53,3.79-2.53.12,2.46-2.82,3.89-3.79,2.53Z"/>
    <path class="cls-2" d="M714.76,485.33c3.32.77,4.82,3.01,6.71,5.51-.56.7-.6.76-1.46.52-.96-.27-6.08-5.14-5.24-6.04Z"/>
    <path class="cls-2" d="M159.08,590.39c-3.14-.7-5.38-3.08-6.23-6.23.67-.67,6.85,4.33,6.23,6.23Z"/>
    <path class="cls-2" d="M722.43,478.6c-1.77.22-5.97.21-5.26-2.59.54-2.13,6.27,1.69,5.26,2.59Z"/>
    <path class="cls-2" d="M217.74,411.55c1.91-2.04,4.45,2.75,1.5,4.18-1.71-.36-2.71-2.9-1.5-4.18Z"/>
    <path class="cls-2" d="M794.9,469.49c.28-.27,6.75,2.53,7.31,2.88.46.29.64.93.85,1.43-.8.62-6.19-1.97-7.14-2.69-.58-.44-1.19-.73-1.01-1.62Z"/>
    <path class="cls-2" d="M134.61,338.51c-.25-2.82,2.26-4.52,4.32-2.14-.58,2.06-2.42,2.39-4.32,2.14Z"/>
    <path class="cls-2" d="M191.16,571.61c-1.43.31-3.43.23-3.74-1.55,1.6-2.32,5.63-1.69,3.74,1.55Z"/>
    <path class="cls-2" d="M196.99,207.78c-.04.16-.65.74-.95.72-.14-2.48.45-4.88.03-7.36l.93-3.2c-.45,2.7.61,7.43,0,9.84Z"/>
    <path class="cls-2" d="M110.85,561.13c-.89-.07-2.32-.94-3.6-.48,1.15-1.77,4.81.1,6.9-.42l3.66.9c-2.28-.14-4.69.19-6.96,0Z"/>
    <path class="cls-2" d="M76,478.92c1.02,3.16-2.32,2.87-2.78,1.31-.46-1.55,2.22-3.07,2.78-1.31Z"/>
    <polygon class="cls-2" points="676.36 485.32 676.01 483.29 678.28 476.21 676.36 485.32"/>
    <path class="cls-2" d="M239.71,322.22c1.05-.39,1.82-.41,2.66.44l-.99,2.41c-1.35-.65-1.99-1.22-1.67-2.85Z"/>
    <path class="cls-2" d="M767.54,467.57c-1.7-.33-3.2-.03-4.31-1.68.99-1.39,2.77.14,4.03.2l.28,1.48Z"/>
    <path class="cls-2" d="M688.85,397.52c-.17-.84.15-1.49.38-2.25s.83-2.68,1.53-3.02c-.02,1.74.56,4.97-1.91,5.27Z"/>
    <path class="cls-2" d="M781.94,461.81c-.47.53-4.01-2.67-3.35-3.83.51-.57,4.17,2.92,3.35,3.83Z"/>
    <path class="cls-2" d="M622.15,515.07c-.27-1.72,1.56-3.36,2.87-1.67-.16,1.43-1.67,1.87-2.87,1.67Z"/>
    <path class="cls-2" d="M174.43,429.67c-.98,1.33-3.44-.49-2.38-1.9.89-1.18,3.15.87,2.38,1.9Z"/>
    <path class="cls-2" d="M765.62,455.58c-1.65.26-2.2-.28-2.86-1.68l1.92-.49.94,2.17Z"/>
    <path class="cls-2" d="M124.53,329.88l.27-1.48,4.52-.91c-.25.58-1.89,1.39-2.45,1.62-.76.32-1.6.41-2.34.77Z"/>
    <path class="cls-2" d="M99.58,559.21l6.72.95c-2-.36-5.41.94-6.72-.95Z"/>
    <path class="cls-2" d="M149.96,223.37c-1.53-1.09-2.81-3.46-3.35-5.28,1.4,1.32,2.9,3.41,3.35,5.28Z"/>
    <path class="cls-2" d="M687.57,236.18c.31-.31,2.66.01,2.39,1.19-.42,1.84-3.49-.09-2.39-1.19Z"/>
    <polygon class="cls-2" points="727.23 482.92 725.09 481.99 724.84 479.57 726.21 480.84 727.23 482.92"/>
    <path class="cls-2" d="M761.3,492.52l2.64-3.83c1.11.87.51.7.05,1.48-.28.48-2.01,3-2.69,2.35Z"/>
    <path class="cls-2" d="M666.77,416.72c-1.57,1.12-2.78-2.56-.24-1.91.78.2.51,1.72.24,1.91Z"/>
    <path class="cls-2" d="M729.15,386.49c-1.87.35-.62-2.91-.96-3.83,2.01-.34.02,2.7.96,3.83Z"/>
    <path class="cls-2" d="M550.65,524.18v-1.91c.9-.19,1.29.61,1.91,1.2-.51.74-1.03.83-1.91.72Z"/>
    <path class="cls-2" d="M145.64,216.17c-1.04-.56-1.78-2.22-1.91-3.36,1.2.52,1.84,2.12,1.91,3.36Z"/>
    <path class="cls-2" d="M618.31,509.31l3.36-1.91c-.59,1.24-1.99,2.01-3.36,1.91Z"/>
    <path class="cls-2" d="M125.97,576h-.71c-2.16-2.3.88-2.9.71,0Z"/>
    <path class="cls-2" d="M54.46,404.72c-.86.12-.44-1.05-.36-1.55.28-1.7,1.01-3.39,1.08-5.16,1.01.7.54.97.39,1.79-.3,1.59-.87,3.29-1.11,4.92Z"/>
    <path class="cls-2" d="M669.33,173.32c-.76.76-2.2-.67-1.43-1.43s2.2.67,1.43,1.43Z"/>
    <path class="cls-2" d="M728.67,487.24c-1-.39-1.61-1.32-1.43-2.4,1,.39,1.61,1.32,1.43,2.4Z"/>
    <path class="cls-2" d="M730.6,517.95c.24-.81.05-3.01.95-3.36-.03,1.12.43,2.86-.95,3.36Z"/>
    <path class="cls-2" d="M631.74,519.86l-2.4.48c.21-1.01,1.48-.81,2.17-1.43l.23.95Z"/>
    <path class="cls-2" d="M678.76,475.73c-.98-.03-.25-3.32.48-3.35l-.48,3.35Z"/>
    <polygon class="cls-2" points="359.66 486.28 358.46 486.75 357.75 486.04 358.93 485.33 359.66 486.28"/>
    <path class="cls-2" d="M646.78,98h-1.43c0-1.76,1.43-1.76,1.43,0Z"/>
    <polygon class="cls-2" points="675.41 488.68 674.45 488.68 674.93 486.29 675.4 486.29 675.41 488.68"/>
    <path class="cls-2" d="M381.73,562.08h-.95c-.12-.88-.02-1.4.72-1.91l.24,1.91Z"/>
    <path class="cls-2" d="M365.42,534.26c-.05-.86.54-2.05,1.43-2.4.05.86-.54,2.05-1.43,2.4Z"/>
    <path class="cls-2" d="M759.39,458.45v-.47s2.4-.48,2.4-.48c-.29,1.08-1.5,1.02-2.4.95Z"/>
    <path class="cls-2" d="M771.86,462.3c-.78-.35-1.59-1.05-1.43-1.92.78.35,1.59,1.05,1.43,1.92Z"/>
    <rect class="cls-2" x="196.03" y="218.58" width=".47" height="2.87"/>
  </g>
  <rect class="cls-3" x="1718.46" y="0" width="56.69" height="599.99" transform="translate(3493.62 599.99) rotate(180)"/>
</svg>