<?xml version="1.0" encoding="UTF-8"?>
<svg id="Layer_1" data-name="Layer 1" xmlns="http://www.w3.org/2000/svg" width="3660" height="800" viewBox="0 0 3660 800">
  <defs>
    <style>
      .cls-1 {
        fill: #e4b397;
      }

      .cls-2 {
        fill: #2f6c88;
      }
    </style>
  </defs>
  <rect class="cls-2" y="0" width="3660" height="800.32"/>
  <g>
    <g>
      <path class="cls-1" d="M1580.61,463.95l72.31,100.66v-100.66h12.73c-1.7,1.7-3.23,3.85-4.58,6.45-1.36,2.61-2.15,5.38-2.38,8.32v85.72c0,5.55,1.75,10.69,5.26,15.45l2.04,2.89h-25.46l-72.14-100.66v100.66h-12.73c1.7-1.81,3.22-4.02,4.58-6.62,1.36-2.6,2.15-5.37,2.38-8.32v-85.55c0-2.72-.48-5.4-1.44-8.06-.96-2.66-2.24-5.12-3.82-7.38l-2.04-2.89h25.29Z"/>
      <path class="cls-1" d="M1713.44,493.32c5.77,0,11.23,1.16,16.38,3.48,5.15,2.32,9.62,5.52,13.41,9.59,3.79,4.07,6.79,8.83,9,14.26,2.21,5.43,3.31,11.26,3.31,17.48s-1.1,11.88-3.31,17.31c-2.21,5.43-5.21,10.18-9,14.26-3.79,4.07-8.26,7.27-13.41,9.59-5.15,2.32-10.61,3.48-16.38,3.48s-11.23-1.16-16.38-3.48c-5.15-2.32-9.62-5.52-13.41-9.59-3.79-4.07-6.79-8.83-9-14.26-2.21-5.43-3.31-11.2-3.31-17.31s1.1-12.05,3.31-17.48c2.21-5.43,5.2-10.18,9-14.26,3.79-4.07,8.26-7.27,13.41-9.59,5.15-2.32,10.61-3.48,16.38-3.48ZM1713.44,579.21c2.94,0,5.66-1.07,8.15-3.23,2.49-2.15,4.7-5.09,6.62-8.83,1.92-3.73,3.42-8.09,4.5-13.07,1.07-4.98,1.61-10.3,1.61-15.95s-.54-10.97-1.61-15.96c-1.08-4.98-2.57-9.34-4.5-13.07-1.93-3.73-4.13-6.68-6.62-8.83-2.49-2.15-5.21-3.22-8.15-3.22s-5.52,1.08-8.06,3.22c-2.55,2.15-4.78,5.09-6.7,8.83-1.93,3.73-3.42,8.09-4.5,13.07-1.08,4.98-1.61,10.3-1.61,15.96s.54,10.98,1.61,15.95c1.07,4.98,2.57,9.34,4.5,13.07,1.92,3.73,4.16,6.68,6.7,8.83,2.55,2.15,5.23,3.23,8.06,3.23Z"/>
      <path class="cls-1" d="M1759.95,493.32h35.31c-1.93,1.93-3.59,4.36-5.01,7.3-1.42,2.94-2.12,6-2.12,9.17v46.68c.23,5.21,1.84,9.25,4.84,12.14,3,2.88,6.42,4.33,10.27,4.33,2.72,0,5.52-.76,8.4-2.29s5.46-3.96,7.72-7.3c2.26-3.34,4.13-7.58,5.6-12.73,1.47-5.15,2.21-11.29,2.21-18.42v-22.58c-.11-3.17-.85-6.2-2.21-9.08s-3-5.29-4.92-7.21h35.14c-1.93,1.93-3.57,4.36-4.92,7.3-1.36,2.94-2.04,6-2.04,9.17,0,8.83-.03,16.89-.09,24.19-.06,7.3-.08,13.95-.08,19.94v.68c0,2.83.03,5.01.08,6.54.06,1.53.14,2.66.25,3.39.11.74.23,1.25.34,1.53.11.28.28.59.51.93,1.13,1.81,2.72,2.72,4.75,2.72,1.47,0,3.17-.4,5.09-1.19.34.45.51.79.51,1.02-.57,2.38-1.9,4.75-3.99,7.13-2.1,2.38-4.61,4.07-7.55,5.09-.68.34-1.39.57-2.12.68-.74.11-1.5.23-2.29.34h-1.7c-.23,0-.45-.03-.68-.08-.23-.06-.45-.09-.68-.09-1.47-.23-2.94-.73-4.41-1.53-.34-.23-.65-.4-.93-.51-.28-.11-.59-.28-.93-.51-2.04-1.58-3.68-3.51-4.92-5.77-1.25-2.26-1.98-4.69-2.21-7.3v-6.28c-1.36,2.04-2.94,4.3-4.75,6.79-1.81,2.49-3.96,4.87-6.45,7.13-2.49,2.26-5.32,4.16-8.49,5.69-3.17,1.53-6.9,2.35-11.2,2.46h-1.87c-6.11-.34-10.95-1.53-14.51-3.56-3.56-2.04-6.31-4.75-8.23-8.15-1.93-3.39-3.17-7.38-3.74-11.97-.57-4.58-.85-9.59-.85-15.02v-34.29c0-3.17-.71-6.22-2.12-9.17-1.42-2.94-3.08-5.37-5.01-7.3Z"/>
      <path class="cls-1" d="M1863.12,493.32h31.91c-.68,2.83-1.22,5.38-1.61,7.64-.4,2.27-.51,4.64-.34,7.13.17,2.49.71,5.32,1.61,8.49.9,3.17,2.26,7.16,4.07,11.97,1.81,4.81,4.16,10.67,7.04,17.57,2.89,6.9,6.37,15.28,10.44,25.12,4.19-10.07,7.72-18.56,10.61-25.46,2.89-6.9,5.23-12.73,7.04-17.48,1.81-4.75,3.11-8.66,3.9-11.71.79-3.06,1.19-5.8,1.19-8.23s-.34-4.78-1.02-7.04c-.68-2.26-1.59-4.92-2.72-7.98h17.65c-.23.57-.93,2.32-2.12,5.26-1.19,2.94-2.69,6.65-4.5,11.12-1.81,4.47-3.88,9.54-6.2,15.19-2.32,5.66-4.7,11.49-7.13,17.48-2.43,6-4.87,12-7.3,17.99-2.43,6-4.73,11.6-6.87,16.8.34.91.7,1.84,1.1,2.8.4.96.76,1.9,1.1,2.8h-21.05c-2.38-5.77-4.92-11.94-7.64-18.5-2.72-6.56-5.41-13.1-8.06-19.61-2.66-6.5-5.24-12.79-7.72-18.84-2.49-6.05-4.7-11.43-6.62-16.13-1.93-4.69-3.51-8.51-4.75-11.46-1.25-2.94-1.93-4.58-2.04-4.92Z"/>
      <path class="cls-1" d="M2032.76,524.55c.68,5.43-.28,9.54-2.89,12.31-2.61,2.77-6.05,4.81-10.35,6.11-4.3,1.3-8.97,2.21-14,2.72-5.04.51-9.68,1.22-13.92,2.12-4.24.91-7.61,2.35-10.1,4.33-2.49,1.98-3.34,5.18-2.55,9.59.56,2.6,2.55,5.04,5.94,7.3,3.39,2.26,7.58,3.39,12.56,3.39,2.72,0,5.6-.45,8.66-1.36,3.06-.9,6.11-2.46,9.17-4.67,3.06-2.21,6.05-5.09,9-8.66,2.94-3.56,5.71-7.95,8.32-13.15-.91,6.22-2.72,11.74-5.43,16.55-2.72,4.81-5.97,8.8-9.76,11.97-3.79,3.17-8.01,5.58-12.65,7.21-4.64,1.64-9.34,2.46-14.09,2.46s-9.2-.79-13.66-2.38c-4.47-1.58-8.46-4.02-11.97-7.3-3.51-3.28-6.42-7.38-8.74-12.31-2.32-4.92-3.71-10.72-4.16-17.4-.56-8.26.4-15.5,2.89-21.73,2.49-6.22,5.86-11.43,10.1-15.62,4.24-4.19,9.14-7.33,14.68-9.42,5.54-2.09,11.09-3.14,16.64-3.14,4.3,0,8.49.65,12.56,1.95,4.07,1.3,7.78,3.23,11.12,5.77,3.34,2.55,6.11,5.77,8.32,9.68,2.21,3.91,3.65,8.46,4.33,13.66ZM1975.05,557.48c.34-1.24.87-2.55,1.61-3.9.73-1.36,1.87-2.72,3.4-4.07,1.53-1.36,3.51-2.72,5.94-4.08,2.43-1.36,5.57-2.6,9.42-3.73,6.11-1.92,10.89-4.36,14.34-7.3,3.45-2.94,5.8-6.08,7.04-9.42,1.24-3.34,1.58-6.7,1.02-10.1-.57-3.4-1.76-6.42-3.56-9.08-1.81-2.66-4.1-4.84-6.88-6.54-2.77-1.7-5.74-2.55-8.91-2.55-1.7,0-3.51.34-5.43,1.02-3.85,1.36-7.16,3.54-9.93,6.54-2.77,3-5.07,6.42-6.87,10.27-1.81,3.85-3.14,7.95-3.99,12.31-.85,4.36-1.3,8.52-1.36,12.48-.06,3.96.28,7.55,1.02,10.78.73,3.22,1.78,5.69,3.14,7.38Z"/>
      <path class="cls-1" d="M2045.78,566.31v-71.46c2.94-.68,5.46-1.7,7.55-3.06,2.09-1.36,3.82-2.8,5.18-4.33s2.43-3.03,3.23-4.5c.79-1.47,1.36-2.66,1.7-3.57h3.4v86.91c0,3.28.71,6.37,2.12,9.25,1.41,2.89,3.08,5.29,5.01,7.21h-35.31c1.92-1.92,3.59-4.33,5.01-7.21,1.41-2.89,2.12-5.97,2.12-9.25ZM2082.44,582.77c1.92-1.92,3.59-4.33,5.01-7.21,1.41-2.89,2.12-5.97,2.12-9.25v-86.06c0-.34-.06-.62-.17-.85,2.94-.68,5.46-1.7,7.55-3.06,2.09-1.36,3.82-2.8,5.18-4.33s2.43-3.03,3.23-4.5c.79-1.47,1.36-2.72,1.7-3.73h3.56v102.53c0,3.28.68,6.37,2.04,9.25s3,5.29,4.92,7.21h-35.14Z"/>
      <path class="cls-1" d="M2203.59,524.55c.68,5.43-.28,9.54-2.89,12.31-2.61,2.77-6.05,4.81-10.35,6.11-4.3,1.3-8.97,2.21-14,2.72-5.04.51-9.68,1.22-13.92,2.12-4.24.91-7.61,2.35-10.1,4.33-2.49,1.98-3.34,5.18-2.55,9.59.56,2.6,2.55,5.04,5.94,7.3,3.39,2.26,7.58,3.39,12.56,3.39,2.72,0,5.6-.45,8.66-1.36,3.06-.9,6.11-2.46,9.17-4.67,3.06-2.21,6.05-5.09,9-8.66,2.94-3.56,5.71-7.95,8.32-13.15-.91,6.22-2.72,11.74-5.43,16.55-2.72,4.81-5.97,8.8-9.76,11.97-3.79,3.17-8.01,5.58-12.65,7.21-4.64,1.64-9.34,2.46-14.09,2.46s-9.2-.79-13.66-2.38c-4.47-1.58-8.46-4.02-11.97-7.3-3.51-3.28-6.42-7.38-8.74-12.31-2.32-4.92-3.71-10.72-4.16-17.4-.56-8.26.4-15.5,2.89-21.73,2.49-6.22,5.86-11.43,10.1-15.62,4.24-4.19,9.14-7.33,14.68-9.42,5.54-2.09,11.09-3.14,16.64-3.14,4.3,0,8.49.65,12.56,1.95,4.07,1.3,7.78,3.23,11.12,5.77,3.34,2.55,6.11,5.77,8.32,9.68,2.21,3.91,3.65,8.46,4.33,13.66ZM2145.88,557.48c.34-1.24.87-2.55,1.61-3.9.73-1.36,1.87-2.72,3.4-4.07,1.53-1.36,3.51-2.72,5.94-4.08,2.43-1.36,5.57-2.6,9.42-3.73,6.11-1.92,10.89-4.36,14.34-7.3,3.45-2.94,5.8-6.08,7.04-9.42,1.24-3.34,1.58-6.7,1.02-10.1-.57-3.4-1.76-6.42-3.56-9.08-1.81-2.66-4.1-4.84-6.88-6.54-2.77-1.7-5.74-2.55-8.91-2.55-1.7,0-3.51.34-5.43,1.02-3.85,1.36-7.16,3.54-9.93,6.54-2.77,3-5.07,6.42-6.87,10.27-1.81,3.85-3.14,7.95-3.99,12.31-.85,4.36-1.3,8.52-1.36,12.48-.06,3.96.28,7.55,1.02,10.78.73,3.22,1.78,5.69,3.14,7.38Z"/>
    </g>
    <g>
      <path class="cls-1" d="M1970.48,269.24c-23.92-33.14-46.05-29.46-47.47-40.17,0,0-5.08,11.33-5.08,11.33,6.18-3.07,22.48,8.31,34.68,27.11,7.32,9.72,12.76,20.44,16.3,31.73-10.55-2.22-21.75-2.72-32.35-1.03-16.31,2.45-32.12,12.35-37.92,28.37-3.49,9.17-2.73,20.27,2.28,28.75,3.17,5.76,6.59,9.74,9.42,14.95,4.11,7.36,3.71,16.58-.76,23.86-10.39,17.31-33.59,18.12-48.71,6.47-12.18-8.89-18.87-22.73-23.56-36.69-6.82-20.39-10.85-42.6-6.52-63.55,6.17-29.83,19.55-37.54,21.98-38.33-.58.72-1.03,1.55-1.29,2.37-.86,2.65-.25,6.17,2.28,7.75,2.73,1.69,6.35.09,8.46-1.85,4.57-4.22,4.16-12.09-1.73-14.92-10.36-4.97-29.44,12.08-33.87,16.85-24.74,26.62-23.62,69.07-6.36,99.33,12.09,22.36,34.51,42.28,61.04,42.49,24.17.32,48.88-21.53,40.5-46.94-.9-2.67-2.22-5.4-3.49-7.73-3.54-6.65-7.81-11.6-7.97-18.89-.1-14.52,12.87-24.28,26.11-26.89,12.14-2.69,23.73-.32,36.01.72,1.95,12.1,1.86,24.59-.31,36.96-1.1,8.02-2.94,16.03-6.36,23.4-3.22,6.49-7.18,13.96-15,15.39,0,0,9.35,8.17,9.35,8.17.84-7.38,4.32-11.62,7.93-17.13,3.26-5.15,6.51-10.4,9.37-15.8,3.85-7.36,6.89-15.27,8.28-23.51.68-4,1.13-8.45,1.31-12.51,1.07-21.06-4.16-42.89-16.54-60.04Z"/>
      <path class="cls-1" d="M1921.81,414.85c-3.03,3.14-7.11,4.66-11.14,5.99-15.93,5.44-33.43,5.5-49.66,1.51-32.12-7.42-60.22-30.5-71.78-61.59-11.89-30.76-6.4-67.55,15.28-92.65,16.94-20,43.2-35.35,69.74-34.29,14.7.98,22.74,9.53,19.41,24.28-2.16,9.44-7.21,17.28-14.93,23.61-3.62,3.07-7.96,6.22-11.7,9.2-6.23,4.96-11.86,10.79-15.8,17.85-2.57,5.18-4.86,10.77-5.18,16.59-.62,13.46,3.52,26.74,9.16,38.78,5.59,11.92,17.51,26.64,30.14,21.14,7.05-3.07,9.46-14.38,2.8-19.29-7.36-5.42-14.53,4.81-10.2,11.5.42.65.94,1.16,1.5,1.58-18.73-1.26-19.6-40.46-17.96-51.89.21-1.48.84-3.06,1.47-4.4.73-1.89,1.84-3.67,2.86-5.4,6.17-9.1,15.81-13.89,24.85-21.27,4.96-4.02,9.94-9.05,13.62-15.02,9.61-15.1,13.14-36.89.53-51.49-7.36-8.73-18.99-12.27-29.89-12.37-31.52.34-60.55,19.63-79.64,43.42-47.25,59.63-19.61,150.36,54.96,169.55,14.69,3.6,30.19,3.41,44.97.62,5.87-1.13,11.67-2.61,17.3-4.57,6-2.09,11.18-4.55,17.97-4.22l-5.94-10.9c-.75,1.46-1.67,2.7-2.72,3.71Z"/>
    </g>
  </g>
</svg>