<?xml version="1.0" encoding="UTF-8"?>
<svg xmlns="http://www.w3.org/2000/svg" width="1080" height="1080" viewBox="0 0 1080 1080">
  <defs>
    <style>
      .cls-1 {
        fill: #1d2855;
      }

      .cls-2 {
        fill: #f2af4c;
      }

      .cls-3 {
        fill: none;
        stroke: #f2af4c;
        stroke-miterlimit: 10;
        stroke-width: .4px;
      }
    </style>
  </defs>
  <g id="Layer_1" data-name="Layer 1">
    <rect class="cls-1" width="1080" height="1080"/>
    <g>
      <path class="cls-2" d="M1046.5,453.73l-32.56,27.33h-30.88s28.7-24.06,31.99-26.84c-3.27-2.76-31.99-26.84-31.99-26.84h-18.27s30.11,25.27,32.01,26.84c-1.94,1.63-181.3,152.09-229.19,192.27-7.38,6.19-11.64,9.76-11.64,9.76l-30.86-11.22,121.94-102.34-167.64,36.12-51.4-30.9,32.47,89.2,120.37,45.77,4.31,11.82,5.77,15.86-173.34-63.09-.09-.09-87.43-73.36-140.78-51.25-142.95,52.02-212.82-37.49,64.92-23.61,147.94,26.07,395.99-144.14,249.93,44.05,68.72-57.68,38.26-32.1-17.89,49.2,65.12,54.65Z"/>
      <polygon class="cls-2" points="707.32 696.9 667.74 730.12 657.44 701.82 676.62 685.72 707.32 696.9"/>
    </g>
  </g>
  <g id="Lines-2" data-name="Lines">
    <g id="Lines_Group" data-name="Lines Group">
      <line class="cls-3" x1="1080" y1="384.11" x2="250.86" y2="1080"/>
      <line class="cls-3" x1="402.13" x2="795.02" y2="1080"/>
      <line class="cls-3" x1="1080" y1="346.93" x2="207.16" y2="1080"/>
      <line class="cls-3" y1="439.41" x2="1080" y2="832.56"/>
      <line class="cls-3" x1="1080" y1="425.61" x2="300.24" y2="1080"/>
      <line class="cls-3" y1="481.05" x2="1080" y2="481.05"/>
      <line class="cls-3" x1="1080" y1="399.71" x2="269.25" y2="1080"/>
      <line class="cls-3" x1="1080" y1="508.72" x2="473.73"/>
      <line class="cls-3" y1="427.37" x2="1080" y2="427.37"/>
      <line class="cls-3" x1="1080" y1="523.98" x2="455.11"/>
      <line class="cls-3" x1="1080" y1="384.48" x2="250.74" y2="1080"/>
      <line class="cls-3" y1="381.35" x2="1080" y2="774.08"/>
      <line class="cls-3" x1="1080" y1="347.16" x2="206.86" y2="1080"/>
      <line class="cls-3" y1="725.17" x2="1080" y2="492.5"/>
      <line class="cls-3" y1="170.34" x2="1080" y2="819.64"/>
      <line class="cls-3" x1="428.54" x2="821.7" y2="1080"/>
      <line class="cls-3" y1="385.95" x2="1080" y2="796.63"/>
      <line class="cls-3" x1="531.94" x2="925.59" y2="1080"/>
      <line class="cls-3" x1="532.62" x2="925.21" y2="1080"/>
      <line class="cls-3" y1="422.69" x2="1080" y2="815.76"/>
      <line class="cls-3" y1="29.89" x2="1050.11" y2="1080"/>
      <line class="cls-3" y1="129.27" x2="1080" y2="1035.45"/>
      <line class="cls-3" y1="381.05" x2="1080" y2="774.21"/>
      <line class="cls-3" y1="664.43" x2="1080" y2="271.38"/>
      <line class="cls-3" y1="531.39" x2="1080" y2="721.63"/>
      <line class="cls-3" y1="549.48" x2="1080" y2="156.65"/>
      <line class="cls-3" y1="496.34" x2="1080" y2="686.63"/>
      <line class="cls-3" y1="629.42" x2="1080" y2="236.31"/>
      <line class="cls-3" y1="282.4" x2="1080" y2="472.74"/>
      <line class="cls-3" x1="1080" y1="282.11" x2="129.31" y2="1080"/>
      <line class="cls-3" x1="1080" y1="282.15" x2="128.95" y2="1080"/>
      <line class="cls-3" x1="1080" y1="127.92" x2="733.71" y2="1080"/>
      <line class="cls-3" x1="1080" y1="481.84" x2="505.84"/>
    </g>
  </g>
</svg>