<?xml version="1.0" encoding="UTF-8"?>
<svg xmlns="http://www.w3.org/2000/svg" width="3660" height="800" viewBox="0 0 3660 800">
  <defs>
    <style>
      .cls-1 {
        fill: #f2af4c;
      }

      .cls-2 {
        fill: #101440;
      }
    </style>
  </defs>
  <g id="Layer_1" data-name="Layer 1">
    <rect class="cls-2" x="0" y="0" width="3660" height="800.32"/>
  </g>
  <g id="Lines">
    <g>
      <g>
        <path class="cls-1" d="M2131.55,642.22v-51.93c0-4.49-.65-8.55-1.98-12.17s-3.18-6.67-5.57-9.18c-2.41-2.49-5.24-4.42-8.52-5.79-3.27-1.37-6.92-2.05-10.92-2.05-5.67,0-10.41,1.27-14.24,3.81-3.81,2.54-6.99,5.48-9.54,8.8v-38.61l-27.86,10.15v96.96h27.86v-42.99c0-4.39,1.18-7.72,3.53-9.98,2.34-2.24,5.08-3.37,8.22-3.37s5.76,1.13,7.91,3.37c2.15,2.25,3.23,5.58,3.23,9.98v42.99h27.88Z"/>
        <path class="cls-1" d="M1706.92,642.22v-51.93c0-4.49-.65-8.55-1.98-12.17-1.32-3.62-3.18-6.67-5.57-9.18-2.41-2.49-5.23-4.42-8.52-5.79-3.27-1.37-6.92-2.05-10.92-2.05-5.67,0-10.41,1.27-14.24,3.81-3.81,2.54-6.99,5.48-9.54,8.8v-38.61l-27.86,10.15v96.96h27.86v-42.99c0-4.39,1.18-7.72,3.53-9.98,2.34-2.24,5.08-3.37,8.22-3.37s5.76,1.13,7.91,3.37c2.15,2.25,3.23,5.58,3.23,9.98v42.99h27.88Z"/>
        <path class="cls-1" d="M1614.27,634.3v-28.46c-4.5,4.21-9.1,7.33-13.79,9.39-4.69,2.05-9.78,3.08-15.26,3.08-4.4,0-8.29-.71-11.66-2.13-3.37-1.42-6.23-3.37-8.58-5.87-2.35-2.49-4.13-5.43-5.36-8.8-1.22-3.37-1.83-7.02-1.83-10.93s.61-7.24,1.83-10.56c1.22-3.32,3.01-6.21,5.36-8.65,2.35-2.44,5.23-4.38,8.66-5.8,3.42-1.42,7.28-2.13,11.59-2.13,5.77,0,11.08,1.15,15.92,3.45,4.84,2.3,8.97,5.16,12.4,8.58v-28.9c-4.01-2.84-8.56-5.06-13.64-6.67-5.09-1.61-10.85-2.42-17.31-2.42-7.73,0-14.91,1.37-21.56,4.11-6.65,2.74-12.37,6.53-17.16,11.37-4.79,4.84-8.56,10.49-11.3,16.94-2.74,6.45-4.11,13.45-4.11,20.98s1.39,14.72,4.18,21.27c2.79,6.55,6.55,12.2,11.3,16.94,4.74,4.74,10.34,8.46,16.8,11.15,6.45,2.69,13.35,4.03,20.68,4.03,6.45,0,12.35-.83,17.68-2.49,5.33-1.66,10.39-4.16,15.19-7.48Z"/>
        <path class="cls-1" d="M1951.94,639.29v-21.86c-1.86.78-3.62,1.42-5.28,1.91-1.66.49-3.42.73-5.28.73-2.55,0-4.45-.61-5.72-1.83-1.27-1.22-1.91-3.25-1.91-6.09v-26.85h18.48v-22.45h-18.48v-24.5l-43.13,46.94h15.26v32.27c0,4.69.64,8.71,1.91,12.03,1.27,3.33,3.08,6.04,5.43,8.14,2.35,2.1,5.16,3.64,8.44,4.62,3.28.98,6.92,1.47,10.93,1.47s7.48-.42,10.71-1.25c3.23-.83,6.11-1.93,8.66-3.3Z"/>
        <path class="cls-1" d="M1864.18,621.91c-2.79.82-5.59,1.46-8.44,1.91-2.82.43-5.48.65-7.91.65-2.64,0-5.07-.3-7.26-.88-2.23-.58-4.17-1.61-5.95-3.09l51.81-18.86c-.34-3.97-1.08-7.86-2.23-11.65-.62-2-1.33-3.93-2.17-5.76-1.44-3.16-3.22-6.06-5.31-8.7-3.33-4.15-7.44-7.46-12.33-9.97-4.88-2.49-10.57-3.74-17.02-3.74-5.95,0-11.49,1.05-16.57,3.09-5.09,2.06-9.46,4.92-13.13,8.59-3.67,3.67-6.53,7.99-8.59,12.98-2.04,4.99-3.07,10.42-3.07,16.29,0,3.07.24,6.02.79,8.85.49,2.77,1.23,5.41,2.21,7.95,1.23,3.12,2.75,5.99,4.6,8.59,1.18,1.66,2.49,3.24,3.91,4.68,3.67,3.72,8.02,6.62,13.06,8.74,5.03,2.1,10.64,3.16,16.8,3.16,2.15,0,4.53-.15,7.11-.45,2.6-.3,5.29-.77,8.08-1.38,2.79-.65,5.57-1.52,8.36-2.66,2.79-1.12,5.44-2.51,7.99-4.17v-21.72c-1.85,1.66-4.08,3.12-6.66,4.4-2.6,1.29-5.29,2.32-8.08,3.16ZM1832.42,601.87c0-2.15.22-4.38.65-6.68.45-2.28,1.18-4.38,2.21-6.23,1.03-1.85,2.39-3.39,4.12-4.62,1.7-1.23,3.83-1.83,6.38-1.83,3.42,0,6.32,1.12,8.72,3.37,1.85,1.74,3.25,4.02,4.19,6.85l-26.26,9.58v-.43Z"/>
        <path class="cls-1" d="M1776.21,621.91c-2.81.82-5.61,1.46-8.44,1.91-2.84.43-5.48.65-7.93.65-2.64,0-5.05-.3-7.26-.88-2.21-.58-4.17-1.61-5.93-3.09l51.81-18.86c-.36-3.97-1.08-7.86-2.24-11.65-.62-2-1.33-3.93-2.17-5.76-1.44-3.16-3.22-6.06-5.29-8.7-3.35-4.15-7.46-7.46-12.35-9.97-4.88-2.49-10.55-3.74-17-3.74-5.97,0-11.49,1.05-16.59,3.09-5.09,2.06-9.46,4.92-13.13,8.59-3.65,3.67-6.53,7.99-8.57,12.98-2.06,4.99-3.09,10.42-3.09,16.29,0,3.07.26,6.02.79,8.85.49,2.77,1.23,5.41,2.23,7.95,1.22,3.12,2.75,5.99,4.6,8.59,1.18,1.66,2.49,3.24,3.91,4.68,3.67,3.72,8.01,6.62,13.06,8.74,5.03,2.1,10.62,3.16,16.8,3.16,2.15,0,4.51-.15,7.11-.45,2.58-.3,5.27-.77,8.06-1.38,2.81-.65,5.57-1.52,8.36-2.66,2.81-1.12,5.46-2.51,8.01-4.17v-21.72c-1.87,1.66-4.1,3.12-6.68,4.4-2.58,1.29-5.27,2.32-8.06,3.16ZM1744.45,601.87c0-2.15.21-4.38.65-6.68.45-2.28,1.18-4.38,2.21-6.23,1.01-1.85,2.38-3.39,4.1-4.62,1.72-1.23,3.83-1.83,6.38-1.83,3.42,0,6.34,1.12,8.74,3.37,1.85,1.74,3.24,4.02,4.19,6.85l-26.26,9.58v-.43Z"/>
        <path class="cls-1" d="M2010.5,633.95c-2.74,3.03-5.99,5.45-9.75,7.26-3.76,1.81-8.23,2.71-13.41,2.71-3.81,0-7.38-.54-10.7-1.61-3.32-1.07-6.2-2.69-8.65-4.84-2.44-2.15-4.35-4.76-5.72-7.84-1.37-3.08-2.05-6.57-2.05-10.48,0-4.1.75-7.72,2.27-10.84,1.51-3.13,3.64-5.72,6.38-7.77,2.73-2.05,6.01-3.61,9.82-4.69,3.81-1.07,8.01-1.61,12.6-1.61,3.81,0,7.42.32,10.84.95,3.42.64,6.25,1.34,8.5,2.13v-1.32c0-4.69-1.61-8.04-4.83-10.04-3.23-2-8.11-3-14.66-3-3.91,0-7.79.34-11.65,1.03-3.86.68-7.99,1.86-12.38,3.52v-19.64c4.59-1.86,9.35-3.35,14.29-4.47,4.93-1.12,10.63-1.69,17.07-1.69,13.87,0,23.89,2.98,30.04,8.94,6.16,5.96,9.23,14.61,9.23,25.94v47.34l-27.26-9.97ZM2010.65,609.77c-1.27-.59-2.83-1.07-4.69-1.46-1.86-.39-3.76-.59-5.72-.59-4.1,0-7.28.93-9.52,2.79-2.25,1.86-3.37,4.1-3.37,6.74s1.05,4.96,3.15,6.67c2.1,1.71,4.57,2.57,7.4,2.57,2.25,0,4.44-.37,6.6-1.1,2.15-.73,4.2-1.93,6.15-3.59v-12.02Z"/>
      </g>
      <g>
        <path class="cls-1" d="M2161.24,312.88l-21.29,17.87h-20.2s18.77-15.73,20.92-17.55c-2.14-1.81-20.92-17.55-20.92-17.55h-11.95s19.69,16.53,20.93,17.55c-1.27,1.07-118.56,99.46-149.88,125.74-4.83,4.05-7.61,6.39-7.61,6.39l-20.18-7.34,79.74-66.93-109.63,23.62-33.62-20.21,21.24,58.33,78.72,29.93,2.82,7.73,3.77,10.37-113.36-41.26-.06-.06-57.18-47.98-92.07-33.52-93.48,34.02-139.18-24.52,42.46-15.44,96.75,17.05,258.97-94.26,163.45,28.81,44.94-37.72,25.02-20.99-11.7,32.17,42.59,35.74Z"/>
        <polygon class="cls-1" points="1939.42 471.91 1913.54 493.64 1906.8 475.13 1919.34 464.6 1939.42 471.91"/>
      </g>
    </g>
  </g>
</svg>