<?xml version="1.0" encoding="UTF-8"?>
<svg id="Layer_1" data-name="Layer 1" xmlns="http://www.w3.org/2000/svg" width="1920" height="1080" viewBox="0 0 1920 1080">
  <defs>
    <style>
      .cls-1 {
        fill: #f2af4c;
      }

      .cls-2 {
        fill: #182750;
      }
    </style>
  </defs>
  <rect class="cls-2" x=".42" y="-.39" width="1920" height="1080"/>
  <g>
    <path class="cls-1" d="M1437.58,458.72l-30.68,25.74h-29.09s27.03-22.66,30.13-25.29c-3.08-2.6-30.13-25.29-30.13-25.29h-17.21s28.37,23.81,30.16,25.29c-1.83,1.54-170.8,143.28-215.92,181.14-6.95,5.83-10.97,9.2-10.97,9.2l-29.07-10.57,114.88-96.42-157.94,34.03-48.43-29.11,30.59,84.04,113.4,43.12,4.06,11.13,5.43,14.94-163.3-59.44-.08-.08-82.37-69.11-132.63-48.28-134.67,49.01-200.49-35.32,61.16-22.25,139.37,24.56,373.06-135.79,235.46,41.5,64.74-54.34,36.04-30.24-16.86,46.35,61.35,51.49Z"/>
    <polygon class="cls-1" points="1118.05 687.81 1080.76 719.11 1071.06 692.45 1089.12 677.28 1118.05 687.81"/>
  </g>
</svg>