<?xml version="1.0" encoding="UTF-8"?>
<svg xmlns="http://www.w3.org/2000/svg" width="1080" height="600" viewBox="0 0 1080 600">
  <defs>
    <style>
      .cls-1 {
        fill: #1d2855;
      }

      .cls-2 {
        fill: #f2af4c;
      }

      .cls-3 {
        opacity: .4;
      }

      .cls-4 {
        fill: none;
        stroke: #f2af4c;
        stroke-miterlimit: 10;
        stroke-width: .4px;
      }
    </style>
  </defs>
  <g id="Layer_1" data-name="Layer 1">
    <rect class="cls-1" width="1080" height="600"/>
  </g>
  <g id="Lines">
    <g class="cls-3">
      <g>
        <path class="cls-2" d="M970.39,374.65v-74.12c0-6.41-.93-12.2-2.82-17.37-1.89-5.17-4.55-9.53-7.95-13.1-3.45-3.55-7.47-6.31-12.16-8.26-4.67-1.95-9.88-2.93-15.59-2.93-8.09,0-14.86,1.81-20.32,5.44-5.44,3.63-9.98,7.82-13.61,12.56v-55.11l-39.77,14.49v138.39h39.77v-61.35c0-6.27,1.68-11.02,5.04-14.24,3.34-3.2,7.24-4.82,11.73-4.82s8.22,1.62,11.29,4.82c3.07,3.22,4.61,7.97,4.61,14.24v61.35h39.79Z"/>
        <path class="cls-2" d="M364.34,374.65v-74.12c0-6.41-.93-12.2-2.82-17.37-1.89-5.17-4.54-9.53-7.95-13.1-3.45-3.55-7.47-6.31-12.16-8.26-4.67-1.95-9.88-2.93-15.59-2.93-8.09,0-14.86,1.81-20.32,5.44-5.44,3.63-9.98,7.82-13.61,12.56v-55.11l-39.77,14.49v138.39h39.77v-61.35c0-6.27,1.68-11.02,5.04-14.24,3.34-3.2,7.24-4.82,11.73-4.82s8.22,1.62,11.29,4.82c3.07,3.22,4.61,7.97,4.61,14.24v61.35h39.79Z"/>
        <path class="cls-2" d="M232.1,363.35v-40.62c-6.42,6-12.98,10.47-19.68,13.4-6.7,2.93-13.96,4.4-21.77,4.4-6.28,0-11.83-1.01-16.65-3.04-4.81-2.02-8.9-4.81-12.25-8.38-3.35-3.56-5.9-7.75-7.64-12.56-1.75-4.82-2.62-10.01-2.62-15.6s.87-10.33,2.62-15.08c1.75-4.74,4.29-8.86,7.64-12.35,3.35-3.49,7.47-6.25,12.35-8.27,4.88-2.02,10.4-3.04,16.54-3.04,8.23,0,15.81,1.64,22.72,4.92,6.91,3.28,12.8,7.36,17.69,12.25v-41.25c-5.72-4.05-12.22-7.22-19.47-9.53-7.26-2.3-15.49-3.45-24.71-3.45-11.03,0-21.28,1.96-30.78,5.86-9.49,3.91-17.66,9.32-24.5,16.23-6.84,6.91-12.21,14.97-16.12,24.18-3.91,9.21-5.86,19.19-5.86,29.94s1.99,21.01,5.97,30.36c3.98,9.35,9.35,17.41,16.12,24.18,6.77,6.77,14.76,12.07,23.97,15.91,9.21,3.84,19.05,5.76,29.52,5.76,9.21,0,17.62-1.19,25.23-3.56,7.61-2.37,14.83-5.93,21.67-10.68Z"/>
        <path class="cls-2" d="M714.05,370.47v-31.2c-2.65,1.12-5.17,2.03-7.54,2.72-2.38.7-4.89,1.05-7.54,1.05-3.63,0-6.35-.87-8.17-2.62-1.81-1.74-2.72-4.64-2.72-8.69v-38.32h26.38v-32.04h-26.38v-34.97l-61.56,67h21.78v46.06c0,6.7.91,12.43,2.72,17.17,1.81,4.75,4.4,8.62,7.75,11.62,3.35,3,7.36,5.2,12.04,6.59,4.67,1.39,9.87,2.09,15.6,2.09s10.68-.6,15.28-1.78c4.61-1.18,8.72-2.75,12.35-4.71Z"/>
        <path class="cls-2" d="M588.79,345.66c-3.98,1.17-7.98,2.08-12.04,2.72-4.03.61-7.82.93-11.29.93-3.76,0-7.24-.43-10.36-1.25-3.18-.83-5.95-2.3-8.49-4.4l73.95-26.91c-.48-5.66-1.55-11.21-3.18-16.63-.88-2.86-1.9-5.61-3.1-8.22-2.06-4.51-4.59-8.65-7.58-12.41-4.75-5.93-10.63-10.65-17.59-14.23-6.97-3.55-15.08-5.34-24.29-5.34-8.49,0-16.39,1.5-23.65,4.4-7.26,2.94-13.51,7.02-18.74,12.25-5.23,5.23-9.32,11.4-12.25,18.53-2.91,7.13-4.38,14.87-4.38,23.25,0,4.38.35,8.6,1.12,12.63.69,3.95,1.76,7.72,3.15,11.35,1.76,4.46,3.92,8.54,6.57,12.25,1.68,2.38,3.55,4.62,5.58,6.67,5.23,5.31,11.45,9.45,18.63,12.47,7.18,2.99,15.19,4.51,23.97,4.51,3.07,0,6.46-.21,10.15-.64,3.71-.43,7.56-1.09,11.53-1.98,3.98-.93,7.96-2.16,11.93-3.79,3.98-1.6,7.77-3.58,11.4-5.95v-31c-2.64,2.38-5.82,4.46-9.5,6.27-3.71,1.84-7.56,3.31-11.53,4.51ZM543.45,317.07c0-3.07.32-6.25.93-9.53.64-3.26,1.68-6.25,3.15-8.89,1.47-2.64,3.42-4.83,5.87-6.59,2.43-1.76,5.47-2.62,9.1-2.62,4.89,0,9.02,1.6,12.44,4.81,2.64,2.48,4.65,5.74,5.98,9.77l-37.48,13.67v-.61Z"/>
        <path class="cls-2" d="M463.23,345.66c-4,1.17-8.01,2.08-12.04,2.72-4.06.61-7.82.93-11.32.93-3.76,0-7.21-.43-10.36-1.25-3.15-.83-5.95-2.3-8.46-4.4l73.95-26.91c-.51-5.66-1.55-11.21-3.2-16.63-.88-2.86-1.9-5.61-3.1-8.22-2.06-4.51-4.59-8.65-7.56-12.41-4.78-5.93-10.65-10.65-17.62-14.23-6.97-3.55-15.06-5.34-24.27-5.34-8.52,0-16.39,1.5-23.68,4.4-7.26,2.94-13.51,7.02-18.74,12.25-5.21,5.23-9.32,11.4-12.23,18.53-2.94,7.13-4.4,14.87-4.4,23.25,0,4.38.37,8.6,1.12,12.63.69,3.95,1.76,7.72,3.18,11.35,1.74,4.46,3.92,8.54,6.57,12.25,1.68,2.38,3.55,4.62,5.58,6.67,5.23,5.31,11.43,9.45,18.63,12.47,7.18,2.99,15.16,4.51,23.97,4.51,3.07,0,6.43-.21,10.15-.64,3.68-.43,7.53-1.09,11.51-1.98,4-.93,7.96-2.16,11.93-3.79,4-1.6,7.8-3.58,11.43-5.95v-31c-2.67,2.38-5.85,4.46-9.53,6.27-3.68,1.84-7.53,3.31-11.51,4.51ZM417.9,317.07c0-3.07.29-6.25.93-9.53.64-3.26,1.68-6.25,3.15-8.89,1.44-2.64,3.39-4.83,5.85-6.59,2.46-1.76,5.47-2.62,9.1-2.62,4.89,0,9.05,1.6,12.47,4.81,2.64,2.48,4.62,5.74,5.98,9.77l-37.48,13.67v-.61Z"/>
        <path class="cls-2" d="M797.63,362.85c-3.91,4.32-8.55,7.77-13.91,10.35-5.37,2.58-11.75,3.87-19.14,3.87-5.44,0-10.53-.77-15.27-2.3-4.74-1.53-8.86-3.83-12.34-6.9-3.49-3.07-6.21-6.8-8.16-11.19-1.96-4.39-2.93-9.38-2.93-14.96,0-5.86,1.08-11.01,3.24-15.48,2.16-4.46,5.19-8.16,9.1-11.09,3.9-2.93,8.57-5.16,14.01-6.69,5.44-1.53,11.43-2.3,17.99-2.3,5.44,0,10.6.45,15.48,1.36,4.88.91,8.92,1.92,12.13,3.04v-1.88c0-6.69-2.3-11.47-6.9-14.33-4.6-2.86-11.58-4.29-20.92-4.29-5.58,0-11.12.49-16.63,1.46-5.51.98-11.4,2.65-17.67,5.02v-28.03c6.55-2.65,13.35-4.78,20.39-6.38,7.04-1.6,15.16-2.41,24.37-2.41,19.8,0,34.1,4.26,42.88,12.76,8.79,8.51,13.18,20.85,13.18,37.02v67.57l-38.91-14.22ZM797.83,328.33c-1.81-.84-4.05-1.53-6.69-2.09-2.65-.56-5.37-.84-8.16-.84-5.86,0-10.39,1.33-13.59,3.98-3.21,2.65-4.81,5.86-4.81,9.62s1.5,7.08,4.5,9.52c3,2.44,6.52,3.66,10.56,3.66,3.2,0,6.34-.52,9.41-1.57,3.07-1.05,5.99-2.75,8.78-5.12v-17.15Z"/>
      </g>
    </g>
  </g>
  <g id="Lines-3" data-name="Lines">
    <g id="Lines_Group" data-name="Lines Group">
      <line class="cls-4" x1="836.53" x2="836.53" y2="600"/>
      <line class="cls-4" y1="71.27" x2="1080" y2="466.08"/>
      <line class="cls-4" x1="714.46" x2="714.46" y2="600"/>
      <line class="cls-4" y1="261.38" x2="1080" y2="261.38"/>
      <line class="cls-4" x1="688.08" x2="688.08" y2="600"/>
      <line class="cls-4" x1="896.11" x2="344.85" y2="600"/>
      <line class="cls-4" y1="293.42" x2="1080" y2="293.42"/>
      <line class="cls-4" x1="648.3" x2="648.3" y2="600"/>
      <line class="cls-4" x1="364.34" x2="364.34" y2="600"/>
      <line class="cls-4" y1="328.14" x2="900.4"/>
      <line class="cls-4" x1="252.12" x2="252.12" y2="600"/>
      <line class="cls-4" x1="232.1" x2="232.1" y2="600"/>
      <line class="cls-4" x1="291.89" x2="291.89" y2="600"/>
      <line class="cls-4" x1="324.56" x2="324.56" y2="600"/>
      <line class="cls-4" x1="970.39" x2="970.39" y2="600"/>
      <line class="cls-4" y1="548.98" x2="1080" y2="155.38"/>
      <line class="cls-4" x1="-22.17" y1="477.96" x2="1110.4" y2="65.21"/>
      <line class="cls-4" x1="-22.17" y1="505.31" x2="1138.62" y2="82.27"/>
      <line class="cls-4" x1="858.17" x2="858.17" y2="600"/>
      <line class="cls-4" x1="897.93" x2="897.93" y2="600"/>
      <line class="cls-4" x1="930.6" x2="930.6" y2="600"/>
      <line class="cls-4" y1="374.65" x2="1080" y2="374.65"/>
    </g>
  </g>
</svg>