<?xml version="1.0" encoding="UTF-8"?>
<svg id="Layer_1" data-name="Layer 1" xmlns="http://www.w3.org/2000/svg" viewBox="0 0 1080 1080">
  <defs>
    <style>
      .cls-1 {
        fill: #8bfcf4;
      }
    </style>
  </defs>
  <path class="cls-1" d="M523.6,279.22c0,5.89-3.49,10.82-10.38,14.66-5.37,3.11-10.88,4.7-16.3,4.7-7.24,0-11.56-4.39-11.56-11.73,0-5.77,3.24-10.87,9.63-15.16,5.37-3.65,10.89-5.51,16.39-5.51,7.77,0,12.22,4.75,12.22,13.04ZM872.73,295.33s-298.54,347.73-305.11,355.48l25.18,1.1c3.52.27,5.1,2.58,4.78,6.93-.38,4.92-6.8,7.43-19.24,7.57l-25.09-.7-53.97,57.23-62.14,65.91-5.34,5.66c-72.34,70.79-122.43,105.12-150.28,102.99-13.26-1.03-19.21-10.42-17.84-28.21,3.01-39.59,32.56-83.36,88.63-131.32,56.04-47.96,112.12-76.08,168.19-84.36l126.6-142,73.82-84.79c-64.57,55.55-106.79,90.9-126.62,106.05-65.36,50.12-111.75,75.18-139.17,75.18-28.8,0-43.2-16.5-43.2-49.53,0-19.86,7.03-41.7,21.1-65.54-71.71,72.18-138.04,119.4-183.39,119.4-9.16,0-37.08,0-37.08-21.01,0-7.7,4.24-13.51,12.23-16.79,6.13-2.52,12.59-2.72,13.89-2.74,1.03-.43,9.69-5.4,11.13-8.05,40.5-67.93,148.6-181.87,211.72-236.16,1.57-1.35,3.37-2.25,5.36-2.25,2.76,0,5.45,1.61,6.84,4.06,1.35,2.42,1.33,5.33-.2,7.74-57.28,90.35-165.44,218.02-206.93,234.61-.18.13-8.56,6.97-8.74,7.07-16.83,3.85-12.17,18.52-3.54,18.05,81.56-4.43,234.68-177.13,316.12-249.05,36.72-32.43,25.97-21.65,45.58-40.87,23.5-22.92,48.66-46.59,57.41-37.28,12.5,13.29-24.35,50.68-73.01,97.31l-96.8,90.69c-48.5,49.74-72.72,87.31-72.72,112.76,0,13.4,6.6,20.11,19.82,20.11,26.8,0,76.74-28.26,149.81-84.79,43.72-33.8,90.25-73.23,139.62-118.3,20.6-18.83,23.45-23.97,86.41-88.65,18.58-19.23,29.9-28.84,33.98-28.84,3.86,0,7.88,1.26,12.05,3.77,4.17,2.52,6.26,5.56,6.26,9.04,0,3.9-2.06,8.08-6.13,12.54ZM505.24,670.04c-54.67,13.17-105.48,40.98-152.39,83.42-46.91,42.44-71.48,78.39-73.73,107.84-.69,9,2.15,13.76,8.51,14.25,25.5,1.95,98.03-66.55,217.61-205.51Z"/>
</svg>