<?xml version="1.0" encoding="UTF-8"?>
<svg id="Layer_1" data-name="Layer 1" xmlns="http://www.w3.org/2000/svg" width="3660" height="800" viewBox="0 0 3660 800">
  <defs>
    <style>
      .cls-1 {
        fill: #ed2c37;
      }

      .cls-2 {
        fill: #1d2855;
      }
    </style>
  </defs>
  <rect class="cls-1" y="0" width="3660" height="800.32"/>
  <g>
    <g>
      <polygon class="cls-2" points="1614.66 360.02 1567.79 406.9 1451 406.9 1323.92 533.98 1125.62 533.98 1393.57 266.02 1459.87 266.02 1238.8 487.1 1304.5 487.1 1431.58 360.02 1614.66 360.02"/>
      <polygon class="cls-2" points="1708.66 266.02 1661.78 312.9 1479.52 312.9 1526.4 266.02 1708.66 266.02"/>
      <polygon class="cls-2" points="1520.48 454.22 1473.6 501.09 1408 501.09 1454.88 454.22 1520.48 454.22"/>
    </g>
    <g>
      <path class="cls-2" d="M1823.37,343.6v54.13c0,4.19-.46,7.72-1.38,10.56-.93,2.86-2.55,5-4.86,6.42-2.31,1.43-5.64,2.15-10,2.15s-7.74-.72-10.13-2.15c-2.39-1.42-4.02-3.56-4.84-6.42-.85-2.85-1.26-6.42-1.26-10.7v-54h-18.01v56.02c0,11.33,2.87,19.8,8.62,25.42,5.75,5.62,14.29,8.44,25.62,8.44s19.76-2.86,25.55-8.57c5.79-5.7,8.69-14.34,8.69-25.92v-55.39h-18.01Z"/>
      <path class="cls-2" d="M1902.53,374.01c-3.99-3.99-9.54-5.98-16.68-5.98-2.77,0-5.54.49-8.31,1.44-2.77.97-5.22,2.61-7.36,4.92-.87.92-1.64,1.98-2.32,3.18v-8.28h-17.24v62.05h17.24v-29.32c0-4.45.46-8.06,1.38-10.83.92-2.77,2.34-4.83,4.21-6.17,1.89-1.34,4.23-2.02,6.99-2.02,3.69,0,6.39,1.12,8.11,3.35,1.72,2.22,2.59,5.72,2.59,10.51v34.48h17.38v-40.91c0-6.96-1.99-12.43-5.98-16.42Z"/>
      <path class="cls-2" d="M1916.77,343.6v16.63h17.99v-16.63h-17.99ZM1917.02,369.28v62.05h17.24v-62.05h-17.24Z"/>
      <path class="cls-2" d="M1983.12,369.28v7.77c-.35-.58-.73-1.1-1.13-1.6-2.27-2.85-4.79-4.8-7.56-5.85-2.77-1.05-5.58-1.58-8.43-1.58-5.37,0-10.01,1.4-13.91,4.21-3.9,2.82-6.86,6.65-8.87,11.52-2.02,4.87-3.02,10.41-3.02,16.61,0,6.8,1.14,12.61,3.45,17.43,2.31,4.83,5.43,8.5,9.38,11.02,3.94,2.51,8.27,3.77,12.97,3.77,3.19,0,6.18-.63,9-1.88,2.81-1.26,5.24-3.32,7.3-6.17.29-.41.56-.83.81-1.26v33.73h17.24v-87.73h-17.24ZM1983,409.06c-1.1,2.43-2.65,4.34-4.66,5.72-2.02,1.39-4.41,2.09-7.18,2.09s-5.18-.68-7.23-2.02c-2.06-1.34-3.66-3.25-4.79-5.72-1.13-2.48-1.69-5.39-1.69-8.75s.56-6.39,1.69-8.87c1.13-2.48,2.73-4.36,4.79-5.67,2.05-1.3,4.46-1.94,7.23-1.94s5.16.67,7.18,2.01c2.01,1.34,3.56,3.23,4.66,5.67,1.09,2.43,1.63,5.37,1.63,8.81s-.54,6.25-1.63,8.69Z"/>
      <path class="cls-2" d="M2049.51,369.28v22.53c0,4.95-.26,9.37-.76,13.28-.5,3.9-1.61,6.97-3.33,9.19-1.72,2.22-4.48,3.33-8.24,3.33-3.11,0-5.43-.63-6.99-1.89-1.55-1.26-2.6-2.91-3.14-4.97-.55-2.05-.83-4.29-.83-6.73v-34.74h-17.24v38.52c0,4.95.8,9.29,2.39,13.03,1.6,3.73,4.09,6.63,7.49,8.67,3.4,2.06,7.74,3.08,13.03,3.08,4.19,0,8.03-.96,11.51-2.89,2.41-1.34,4.45-3.37,6.12-6.1v7.73h17.36v-62.05h-17.36Z"/>
      <path class="cls-2" d="M2130.46,387.54c-1.21-3.94-3.04-7.36-5.47-10.27-2.43-2.88-5.47-5.16-9.12-6.79-3.65-1.63-7.87-2.46-12.65-2.46-5.36,0-9.99.95-13.85,2.84-3.86,1.88-6.96,4.41-9.32,7.54-2.35,3.15-4.07,6.66-5.22,10.51-1.13,3.86-1.7,7.77-1.7,11.71s.56,8.08,1.7,11.9c1.14,3.82,2.94,7.23,5.41,10.25,2.48,3.02,5.7,5.42,9.68,7.18,3.99,1.76,8.76,2.63,14.3,2.63,3.61,0,6.8-.29,9.62-.88,2.82-.57,5.54-1.55,8.19-2.89,2.64-1.35,5.51-3.11,8.63-5.29l-7.93-12.08c-2.35,2.02-5.08,3.57-8.19,4.66-3.1,1.08-6.21,1.64-9.32,1.64-3.86,0-7.17-.94-9.94-2.83-2.76-1.89-4.41-4.76-4.9-8.62h41.53c.16-1.26.27-2.4.32-3.4.04-1.01.07-1.89.07-2.63,0-4.55-.62-8.79-1.83-12.72ZM2090.12,393.45c.26-1.77.86-3.49,1.82-5.17.97-1.68,2.4-3.09,4.28-4.21,1.89-1.13,4.29-1.7,7.23-1.7,1.85,0,3.53.27,5.04.82,1.51.54,2.81,1.32,3.91,2.32,1.08,1.02,1.95,2.21,2.58,3.6.6,1.31.92,2.75.95,4.34h-25.81Z"/>
      <path class="cls-2" d="M2214.34,359.71l16-16v-.12h-59.03v87.73h17.99v-37h19.42l16.12-16.12h-35.54v-18.5h25.04Z"/>
      <path class="cls-2" d="M2270.97,368.9c-1.93-.58-3.95-.88-6.04-.88-2.94,0-5.79.77-8.56,2.34-2.77,1.55-5.07,3.71-6.86,6.48-.25.38-.49.76-.7,1.15v-8.71h-17.38v62.05h17.26v-25.8c0-3.52.09-6.18.3-7.99.21-1.8.52-3.29.94-4.46.67-1.85,1.56-3.33,2.65-4.48,1.09-1.13,2.35-1.99,3.78-2.57,1.42-.59,2.89-.88,4.4-.88s3.01.22,4.48.68c1.46.47,2.66,1,3.58,1.57l8.31-15.6c-2.18-1.34-4.24-2.31-6.17-2.9Z"/>
      <path class="cls-2" d="M2331.82,387.53c-1.2-3.94-3.05-7.36-5.47-10.26-2.43-2.89-5.47-5.16-9.12-6.79-3.64-1.63-7.87-2.46-12.64-2.46-5.38,0-9.99.95-13.85,2.83-3.86,1.89-6.97,4.41-9.32,7.54-2.35,3.16-4.09,6.66-5.23,10.51-1.12,3.86-1.69,7.77-1.69,11.71s.56,8.09,1.69,11.9c1.13,3.82,2.94,7.23,5.41,10.25,2.48,3.02,5.7,5.42,9.69,7.18,3.99,1.77,8.76,2.64,14.29,2.64,3.6,0,6.81-.3,9.63-.88,2.8-.58,5.53-1.55,8.19-2.89,2.63-1.35,5.51-3.12,8.62-5.29l-7.94-12.09c-2.35,2.02-5.07,3.57-8.18,4.65-3.11,1.09-6.2,1.65-9.32,1.65-3.86,0-7.16-.95-9.93-2.84-2.77-1.88-4.41-4.76-4.91-8.62h41.54c.16-1.26.26-2.39.32-3.4.04-1.01.05-1.88.05-2.63,0-4.55-.6-8.78-1.82-12.72ZM2291.49,393.46c.26-1.77.86-3.49,1.82-5.18.97-1.68,2.4-3.08,4.29-4.21,1.87-1.12,4.29-1.7,7.23-1.7,1.85,0,3.53.27,5.04.82,1.51.55,2.81,1.32,3.9,2.33,1.1,1.01,1.95,2.2,2.58,3.59.6,1.31.92,2.76.95,4.35h-25.81Z"/>
      <path class="cls-2" d="M2339.54,343.6v16.63h18.01v-16.63h-18.01ZM2339.79,369.28v62.05h17.24v-62.05h-17.24Z"/>
      <path class="cls-2" d="M2405.99,369.28v7.07c-1.42-2.19-3.23-3.99-5.41-5.37-3.11-1.98-6.97-2.97-11.58-2.97s-9.03,1.25-12.97,3.71c-3.95,2.48-7.1,6.02-9.45,10.64-2.35,4.61-3.52,10.14-3.52,16.61,0,5.79,1.05,11.02,3.15,15.72,2.09,4.71,5.09,8.46,8.99,11.27,3.91,2.81,8.5,4.21,13.79,4.21,4.19,0,7.93-.85,11.19-2.57,2.22-1.17,4.15-2.91,5.79-5.26v7.09c0,3.94-.68,6.92-2.07,8.94-1.38,2.01-3.08,3.37-5.09,4.08-2.02.72-4.07,1.08-6.17,1.08-3.78,0-6.8-1.04-9.07-3.08-2.26-2.06-4.11-4.17-5.54-6.37l-13.46,10.58c1.76,2.35,3.9,4.58,6.42,6.68,2.52,2.09,5.56,3.77,9.12,5.03,3.57,1.26,7.8,1.89,12.65,1.89,6.05,0,11.35-1.01,15.93-3.02,4.57-2.02,8.14-5.14,10.7-9.38,2.56-4.24,3.83-9.71,3.83-16.42v-60.17h-17.24ZM2405.87,406.99c-1.09,2.22-2.65,3.96-4.66,5.22s-4.45,1.89-7.3,1.89-5.29-.62-7.31-1.84c-2.01-1.21-3.56-2.95-4.65-5.22-1.1-2.26-1.64-4.86-1.64-7.8,0-3.11.56-5.79,1.69-8.06,1.14-2.27,2.73-4.07,4.79-5.41,2.05-1.35,4.46-2.02,7.23-2.02s5.17.67,7.18,2.02c2.01,1.34,3.57,3.16,4.66,5.47,1.09,2.31,1.64,4.97,1.64,7.99s-.55,5.51-1.64,7.74Z"/>
      <path class="cls-2" d="M2484.36,374.01c-3.99-3.99-9.55-5.98-16.68-5.98-2.77,0-5.54.49-8.31,1.44-2.77.97-5.22,2.61-7.36,4.92-.87.93-1.65,1.99-2.32,3.2v-33.99h-17.26v87.73h17.26v-29.32c0-6.55,1.04-11.35,3.14-14.41,2.1-3.07,5.25-4.61,9.45-4.61,3.69,0,6.39,1.12,8.11,3.35,1.72,2.22,2.59,5.72,2.59,10.51v34.48h17.36v-40.91c0-6.96-1.99-12.43-5.97-16.42Z"/>
      <path class="cls-2" d="M2492.84,369.28v13.46h41.54v-13.46h-41.54ZM2531.04,418.25c-1.05.17-1.99.25-2.83.25-2.77,0-4.63-.92-5.59-2.77-.97-1.84-1.46-4.61-1.46-8.31v-65.69l-17.49,17.63v52.97c0,5.04.92,9.03,2.77,11.96,1.85,2.94,4.28,5.07,7.3,6.37,3.03,1.3,6.26,1.94,9.7,1.94,1.93,0,3.79-.14,5.6-.43,1.8-.3,3.58-.77,5.34-1.44v-13.23c-1.17.34-2.28.59-3.33.76Z"/>
    </g>
  </g>
</svg>