<?xml version="1.0" encoding="UTF-8"?>
<svg xmlns="http://www.w3.org/2000/svg" width="1080" height="600" viewBox="0 0 1080 600">
  <defs>
    <style>
      .cls-1 {
        fill: none;
        stroke: #515151;
        stroke-miterlimit: 10;
        stroke-width: .4px;
      }

      .cls-2 {
        fill: #ed2c37;
      }

      .cls-3 {
        fill: #1d2855;
      }

      .cls-4 {
        opacity: .4;
      }
    </style>
  </defs>
  <g id="Layer_1" data-name="Layer 1">
    <rect class="cls-3" width="1080" height="600"/>
    <g class="cls-4">
      <path class="cls-2" d="M145.69,252.66v64.63c0,5-.55,9.21-1.65,12.61-1.11,3.42-3.04,5.97-5.8,7.66-2.76,1.71-6.74,2.57-11.94,2.57s-9.24-.86-12.1-2.57c-2.85-1.69-4.79-4.25-5.78-7.66-1.02-3.4-1.5-7.66-1.5-12.77v-64.47h-21.5v66.89c0,13.52,3.43,23.64,10.29,30.35,6.86,6.71,17.06,10.07,30.58,10.07s23.6-3.42,30.51-10.23c6.91-6.8,10.37-17.13,10.37-30.94v-66.14h-21.5Z"/>
      <path class="cls-2" d="M240.2,288.97c-4.76-4.76-11.39-7.14-19.91-7.14-3.31,0-6.61.58-9.92,1.72-3.31,1.16-6.24,3.12-8.79,5.88-1.03,1.1-1.96,2.37-2.77,3.79v-9.89h-20.59v74.08h20.59v-35c0-5.31.55-9.62,1.65-12.93,1.1-3.31,2.79-5.77,5.03-7.36,2.26-1.6,5.05-2.41,8.35-2.41,4.4,0,7.63,1.33,9.68,4,2.05,2.65,3.09,6.83,3.09,12.55v41.16h20.74v-48.84c0-8.3-2.38-14.84-7.14-19.6Z"/>
      <path class="cls-2" d="M257.2,252.66v19.85h21.48v-19.85h-21.48ZM257.5,283.33v74.08h20.59v-74.08h-20.59Z"/>
      <path class="cls-2" d="M336.42,283.33v9.28c-.42-.69-.88-1.32-1.35-1.91-2.71-3.4-5.72-5.73-9.02-6.99-3.31-1.25-6.66-1.88-10.06-1.88-6.41,0-11.95,1.68-16.61,5.03-4.65,3.37-8.19,7.94-10.59,13.76-2.41,5.81-3.6,12.42-3.6,19.84,0,8.12,1.36,15.06,4.12,20.81,2.76,5.77,6.49,10.15,11.2,13.16,4.7,2.99,9.87,4.5,15.48,4.5,3.81,0,7.38-.75,10.75-2.24,3.35-1.5,6.25-3.96,8.71-7.36.34-.49.67-.99.97-1.5v40.27h20.59v-104.74h-20.59ZM336.28,330.82c-1.32,2.9-3.17,5.19-5.56,6.83-2.41,1.66-5.26,2.49-8.57,2.49s-6.19-.81-8.63-2.41c-2.46-1.6-4.37-3.89-5.72-6.83-1.35-2.96-2.02-6.44-2.02-10.45s.67-7.63,2.02-10.59c1.35-2.96,3.26-5.2,5.72-6.77,2.44-1.55,5.33-2.32,8.63-2.32s6.16.8,8.57,2.4c2.4,1.6,4.25,3.85,5.56,6.77,1.3,2.9,1.94,6.41,1.94,10.51s-.64,7.46-1.94,10.37Z"/>
      <path class="cls-2" d="M415.69,283.33v26.9c0,5.91-.31,11.19-.91,15.86-.6,4.65-1.93,8.32-3.98,10.97-2.05,2.65-5.34,3.98-9.84,3.98-3.71,0-6.49-.75-8.35-2.26-1.85-1.5-3.1-3.48-3.74-5.94-.66-2.44-.99-5.12-.99-8.04v-41.47h-20.59v45.99c0,5.91.96,11.09,2.85,15.56,1.91,4.45,4.89,7.91,8.95,10.36,4.06,2.46,9.24,3.68,15.56,3.68,5,0,9.59-1.14,13.74-3.45,2.88-1.6,5.31-4.03,7.3-7.29v9.23h20.73v-74.08h-20.73Z"/>
      <path class="cls-2" d="M512.33,305.12c-1.45-4.71-3.63-8.78-6.53-12.26-2.9-3.44-6.53-6.16-10.89-8.11-4.36-1.94-9.4-2.93-15.11-2.93-6.41,0-11.93,1.13-16.53,3.39-4.6,2.25-8.31,5.26-11.13,9.01-2.8,3.76-4.86,7.95-6.23,12.55-1.35,4.6-2.03,9.28-2.03,13.98s.67,9.64,2.03,14.21c1.37,4.56,3.51,8.63,6.46,12.23,2.96,3.6,6.81,6.48,11.56,8.57,4.77,2.1,10.46,3.14,17.07,3.14,4.31,0,8.12-.34,11.48-1.05,3.37-.68,6.62-1.85,9.77-3.45,3.16-1.61,6.58-3.71,10.3-6.31l-9.47-14.42c-2.8,2.41-6.06,4.26-9.77,5.56-3.7,1.3-7.42,1.95-11.13,1.95-4.6,0-8.56-1.12-11.87-3.38-3.3-2.26-5.26-5.69-5.85-10.29h49.58c.19-1.51.32-2.86.38-4.06.05-1.2.08-2.26.08-3.14,0-5.43-.74-10.49-2.19-15.19ZM464.18,312.18c.31-2.11,1.02-4.17,2.18-6.17,1.15-2,2.86-3.69,5.11-5.03,2.26-1.35,5.12-2.03,8.63-2.03,2.21,0,4.22.32,6.02.98,1.8.65,3.36,1.58,4.66,2.77,1.3,1.21,2.33,2.64,3.08,4.3.72,1.57,1.1,3.29,1.13,5.18h-30.81Z"/>
      <path class="cls-2" d="M612.48,271.9l19.1-19.1v-.14h-70.48v104.74h21.48v-44.17h23.19l19.24-19.24h-42.43v-22.09h29.9Z"/>
      <path class="cls-2" d="M680.09,282.87c-2.3-.69-4.72-1.05-7.21-1.05-3.51,0-6.91.92-10.22,2.79-3.31,1.85-6.05,4.43-8.19,7.74-.3.45-.58.91-.83,1.38v-10.4h-20.74v74.08h20.6v-30.8c0-4.2.11-7.38.36-9.54.25-2.15.63-3.93,1.13-5.33.8-2.21,1.86-3.98,3.17-5.34,1.3-1.35,2.8-2.38,4.51-3.07,1.69-.71,3.45-1.05,5.25-1.05s3.59.27,5.34.81c1.74.56,3.18,1.19,4.28,1.88l9.92-18.63c-2.6-1.6-5.06-2.76-7.36-3.46Z"/>
      <path class="cls-2" d="M752.74,305.11c-1.44-4.71-3.64-8.78-6.53-12.25-2.9-3.45-6.54-6.16-10.89-8.11-4.34-1.94-9.4-2.93-15.09-2.93-6.42,0-11.93,1.13-16.53,3.38-4.6,2.26-8.32,5.26-11.13,9.01-2.8,3.77-4.89,7.95-6.24,12.55-1.34,4.6-2.01,9.28-2.01,13.98s.67,9.66,2.01,14.21c1.35,4.56,3.51,8.63,6.46,12.23,2.96,3.6,6.81,6.48,11.57,8.57,4.77,2.11,10.46,3.16,17.06,3.16,4.3,0,8.14-.35,11.49-1.05,3.34-.69,6.61-1.85,9.77-3.45,3.14-1.61,6.58-3.72,10.29-6.31l-9.48-14.44c-2.8,2.41-6.05,4.26-9.76,5.56-3.71,1.31-7.41,1.97-11.13,1.97-4.6,0-8.55-1.13-11.86-3.39-3.31-2.25-5.26-5.69-5.86-10.29h49.59c.19-1.51.31-2.85.38-4.06.05-1.2.06-2.25.06-3.14,0-5.43-.72-10.48-2.18-15.19ZM704.58,312.19c.31-2.12,1.02-4.17,2.18-6.18,1.15-2,2.86-3.67,5.12-5.03,2.24-1.34,5.12-2.03,8.63-2.03,2.21,0,4.21.32,6.02.98,1.8.66,3.36,1.58,4.65,2.78,1.31,1.2,2.33,2.63,3.09,4.29.72,1.57,1.1,3.3,1.13,5.19h-30.81Z"/>
      <path class="cls-2" d="M761.96,252.66v19.85h21.5v-19.85h-21.5ZM762.26,283.33v74.08h20.59v-74.08h-20.59Z"/>
      <path class="cls-2" d="M841.29,283.33v8.45c-1.69-2.62-3.85-4.76-6.46-6.41-3.71-2.37-8.32-3.54-13.82-3.54s-10.78,1.49-15.48,4.43c-4.72,2.96-8.48,7.19-11.28,12.71-2.8,5.5-4.2,12.11-4.2,19.84,0,6.91,1.25,13.16,3.76,18.77,2.49,5.63,6.08,10.11,10.73,13.46,4.67,3.35,10.15,5.03,16.47,5.03,5,0,9.46-1.02,13.37-3.07,2.65-1.39,4.95-3.48,6.91-6.28v8.46c0,4.7-.81,8.26-2.48,10.67-1.65,2.4-3.68,4.03-6.08,4.87-2.41.86-4.86,1.28-7.36,1.28-4.51,0-8.12-1.24-10.83-3.68-2.69-2.46-4.9-4.98-6.61-7.6l-16.08,12.63c2.1,2.8,4.65,5.47,7.66,7.97,3.01,2.49,6.64,4.5,10.89,6,4.26,1.5,9.31,2.26,15.1,2.26,7.22,0,13.55-1.21,19.02-3.6,5.45-2.41,9.71-6.14,12.77-11.2,3.06-5.06,4.58-11.59,4.58-19.6v-71.84h-20.59ZM841.15,328.34c-1.3,2.65-3.16,4.73-5.56,6.24-2.4,1.5-5.31,2.26-8.71,2.26s-6.31-.74-8.73-2.19c-2.4-1.44-4.25-3.53-5.55-6.24-1.32-2.69-1.96-5.8-1.96-9.31,0-3.71.67-6.91,2.02-9.62,1.36-2.71,3.26-4.86,5.72-6.46,2.44-1.61,5.33-2.41,8.63-2.41s6.17.8,8.57,2.41c2.4,1.6,4.26,3.78,5.56,6.53,1.3,2.76,1.96,5.94,1.96,9.54s-.66,6.58-1.96,9.24Z"/>
      <path class="cls-2" d="M934.86,288.97c-4.76-4.76-11.41-7.14-19.91-7.14-3.31,0-6.61.58-9.92,1.72-3.31,1.16-6.24,3.12-8.79,5.88-1.03,1.11-1.97,2.38-2.77,3.82v-40.58h-20.6v104.74h20.6v-35c0-7.82,1.24-13.55,3.74-17.2,2.51-3.67,6.27-5.5,11.28-5.5,4.4,0,7.63,1.33,9.68,4,2.05,2.65,3.09,6.83,3.09,12.55v41.16h20.73v-48.84c0-8.3-2.38-14.84-7.13-19.6Z"/>
      <path class="cls-2" d="M944.98,283.33v16.08h49.59v-16.08h-49.59ZM990.59,341.78c-1.25.2-2.38.3-3.38.3-3.31,0-5.53-1.1-6.67-3.31-1.16-2.19-1.74-5.5-1.74-9.92v-78.43l-20.89,21.04v63.25c0,6.02,1.1,10.78,3.31,14.27,2.21,3.51,5.11,6.05,8.71,7.6,3.62,1.55,7.47,2.32,11.58,2.32,2.3,0,4.53-.17,6.69-.52,2.15-.36,4.28-.92,6.38-1.72v-15.79c-1.39.41-2.73.7-3.98.91Z"/>
    </g>
  </g>
  <g id="Lines">
    <g id="Lines_Group" data-name="Lines Group">
      <line class="cls-1" x1="978.79" x2="978.79" y2="600"/>
      <line class="cls-1" x1="1080" y1="148.46" x2="631.84" y2="600"/>
      <line class="cls-1" x1="957.91" x2="957.91" y2="600"/>
      <line class="cls-1" x1="944.98" x2="944.98" y2="600"/>
      <line class="cls-1" y1="299.4" x2="1080" y2="299.4"/>
      <line class="cls-1" x1="994.57" x2="994.57" y2="600"/>
      <line class="cls-1" x1="872.86" x2="872.86" y2="600"/>
      <line class="cls-1" x1="893.46" x2="893.46" y2="600"/>
      <line class="cls-1" x1="921.26" x2="921.26" y2="600"/>
      <line class="cls-1" x1="941.99" x2="941.99" y2="600"/>
      <line class="cls-1" x1="762.26" x2="762.26" y2="600"/>
      <line class="cls-1" x1="782.84" x2="782.84" y2="600"/>
      <line class="cls-1" x1="761.96" x2="761.96" y2="600"/>
      <line class="cls-1" x1="783.45" x2="783.45" y2="600"/>
      <line class="cls-1" x1="653.64" x2="653.64" y2="600"/>
      <line class="cls-1" x1="632.9" x2="632.9" y2="600"/>
      <line class="cls-1" x1="653.5" x2="653.5" y2="600"/>
      <line class="cls-1" x1="884.38" x2="284.39" y2="600"/>
      <line class="cls-1" x1="631.58" x2="631.58" y2="600"/>
      <line class="cls-1" x1="561.11" x2="561.11" y2="600"/>
      <line class="cls-1" y1="313.24" x2="1080" y2="313.24"/>
      <line class="cls-1" x1="919.01" x2="319.01" y2="600"/>
      <line class="cls-1" y1="294" x2="1080" y2="294"/>
      <line class="cls-1" x1="582.59" x2="582.59" y2="600"/>
      <line class="cls-1" y1="271.9" x2="1080" y2="271.9"/>
      <line class="cls-1" x1="387.88" x2="387.88" y2="600"/>
      <line class="cls-1" x1="367.29" x2="367.29" y2="600"/>
      <line class="cls-1" x1="415.69" x2="415.69" y2="600"/>
      <line class="cls-1" x1="436.42" x2="436.42" y2="600"/>
      <line class="cls-1" x1="257.5" x2="257.5" y2="600"/>
      <line class="cls-1" x1="278.09" x2="278.09" y2="600"/>
      <line class="cls-1" x1="257.2" x2="257.2" y2="600"/>
      <line class="cls-1" y1="272.51" x2="1080" y2="272.51"/>
      <line class="cls-1" x1="278.68" x2="278.68" y2="600"/>
      <line class="cls-1" y1="283.33" x2="1080" y2="283.33"/>
      <line class="cls-1" x1="178.22" x2="178.22" y2="600"/>
      <line class="cls-1" x1="198.81" x2="198.81" y2="600"/>
      <line class="cls-1" x1="226.6" x2="226.6" y2="600"/>
      <line class="cls-1" y1="357.41" x2="1080" y2="357.41"/>
      <line class="cls-1" x1="247.35" x2="247.35" y2="600"/>
      <line class="cls-1" x1="145.69" x2="145.69" y2="600"/>
      <line class="cls-1" x1="106.93" x2="106.93" y2="600"/>
      <line class="cls-1" x1="85.43" x2="85.43" y2="600"/>
      <line class="cls-1" x1="167.19" x2="167.19" y2="600"/>
      <line class="cls-1" y1="252.66" x2="1080" y2="252.66"/>
    </g>
  </g>
</svg>