<?xml version="1.0" encoding="UTF-8"?>
<svg id="Layer_1" data-name="Layer 1" xmlns="http://www.w3.org/2000/svg" width="1080" height="1080" viewBox="0 0 1080 1080">
  <defs>
    <style>
      .cls-1 {
        fill: #288cdd;
      }

      .cls-2 {
        fill: #072131;
      }

      .cls-3 {
        fill: #efaf22;
      }
    </style>
  </defs>
  <rect class="cls-2" width="1080" height="1080"/>
  <g>
    <g>
      <polygon class="cls-1" points="492.66 490.01 444.17 538.5 444.17 563.62 492.66 563.62 492.66 490.01"/>
      <polygon class="cls-1" points="515.19 563.62 564.81 563.62 564.81 467.48 540 442.67 515.19 467.48 515.19 563.62"/>
      <path class="cls-1" d="M635.82,586.18h-48.48v140.91l-22.53,22.56v-163.47h-49.62v163.3l-22.53-22.53v-140.77h-48.48v92.32l-22.53-22.56v-69.76h-48.46v61.63c0,18.17,7.19,35.56,20.02,48.4l99.45,99.42,47.34,47.37,18.39-18.4,6.42-6.42,22.53-22.53v-.03l99.45-99.42c12.83-12.83,20.05-30.26,20.05-48.4v-61.63h-48.48v69.9l-22.53,22.56v-92.46Z"/>
      <polygon class="cls-1" points="587.34 563.62 635.82 563.62 635.82 538.47 587.34 490.01 587.34 563.62"/>
      <path class="cls-1" d="M349.51,324.8c-26.14,0-47.33,21.19-47.33,47.33v285c0,31.19,12.15,60.55,34.25,82.69l203.58,203.54,203.62-203.58c22.06-22.11,34.2-51.46,34.2-82.65v-285c0-26.14-21.19-47.33-47.33-47.33h-380.98ZM658.36,529.14v34.48h48.48v-97.17l22.53-22.19v212.87c0,18.17-7.22,35.56-20.05,48.43l-169.32,169.29-169.32-169.29c-12.83-12.86-20.05-30.26-20.05-48.43v-212.87l22.56,22.79v96.57h48.46v-34.48l71.01-70.99v-62.37h-119.47l-22.56-22.53h141.74c12.61,0,22.82,10.21,22.82,22.82v39.58l8.73-8.7c8.9-8.9,23.33-8.9,32.23,0l8.67,8.64v-39.53c0-12.61,10.21-22.82,22.82-22.82h141.74l-22.53,22.53h-119.5v62.34l71.01,71.01Z"/>
    </g>
    <polygon class="cls-3" points="400.27 254.8 428.47 276.34 417.7 241.49 445.9 219.94 411.04 219.94 400.27 185.08 389.5 219.94 354.64 219.94 382.84 241.49 372.07 276.34 400.27 254.8"/>
    <polygon class="cls-3" points="539.99 206.35 568.19 227.89 557.41 193.03 585.62 171.49 550.76 171.49 539.99 136.63 529.21 171.49 494.35 171.49 522.56 193.03 511.78 227.89 539.99 206.35"/>
    <polygon class="cls-3" points="679.7 254.8 707.9 276.34 697.13 241.49 725.33 219.94 690.48 219.94 679.7 185.08 668.93 219.94 634.07 219.94 662.27 241.49 651.5 276.34 679.7 254.8"/>
    <path class="cls-3" d="M706.84,553.18v94.63c0,18.14-7.22,35.56-20.05,48.4l-99.45,99.42v.02l-28.95,28.95-18.39,18.4-47.34-47.37-99.45-99.42c-12.83-12.84-20.02-30.24-20.02-48.4v-180.76l-22.56-22.79v212.87c0,18.17,7.22,35.57,20.05,48.43l169.32,169.29,169.32-169.29c12.83-12.86,20.05-30.26,20.05-48.43v-212.87l-22.53,22.19v86.73Z"/>
    <path class="cls-3" d="M492.37,373.25h-141.74l22.56,22.53h119.47v331.17l22.53,22.53v-353.41c0-12.61-10.21-22.82-22.82-22.82Z"/>
    <polygon class="cls-3" points="387.42 586.18 393.81 586.18 403.4 586.18 408.52 586.18 416.64 586.18 424.04 586.18 433.62 586.18 454.74 586.18 464.33 586.18 469.51 586.18 476.24 586.18 484.96 586.18 494.56 586.18 503.83 586.18 515.19 586.18 515.19 563.62 500.59 563.62 494.56 563.62 484.96 563.62 481.57 563.62 469.51 563.62 464.33 563.62 454.74 563.62 433.62 563.62 424.04 563.62 415.25 563.62 408.52 563.62 403.4 563.62 393.81 563.62 388.35 563.62 373.19 563.62 373.19 586.18 387.42 586.18"/>
    <polygon class="cls-3" points="579.04 586.18 585.43 586.18 595.03 586.18 600.15 586.18 608.27 586.18 615.67 586.18 625.26 586.18 646.38 586.18 655.97 586.18 661.15 586.18 667.88 586.18 676.61 586.18 686.2 586.18 695.48 586.18 706.84 586.18 706.84 563.62 692.23 563.62 686.2 563.62 676.61 563.62 673.21 563.62 661.15 563.62 655.97 563.62 646.38 563.62 625.26 563.62 615.67 563.62 606.88 563.62 600.15 563.62 595.03 563.62 585.43 563.62 579.97 563.62 564.81 563.62 564.81 586.18 579.04 586.18"/>
    <path class="cls-3" d="M587.63,373.25c-12.61,0-22.82,10.21-22.82,22.82v353.58l22.53-22.56v-331.31h119.5l22.53-22.53h-141.74Z"/>
    <path class="cls-3" d="M587.34,458.12l-22.53-22.53-8.67-8.64c-8.9-8.89-23.33-8.89-32.23,0l-8.72,8.7-22.53,22.5-71.02,70.99v126.8l22.53,22.56v-140.01l48.49-48.48,22.53-22.53,24.81-24.81,24.81,24.81,22.53,22.53,48.48,48.45v140.18l22.54-22.56v-126.94l-71.02-71.02Z"/>
    <polygon class="cls-3" points="406.63 586.18 421.64 586.18 444.17 586.18 456.21 586.18 475.28 586.18 492.66 586.18 515.19 586.18 564.81 586.18 587.34 586.18 599.51 586.18 615.31 586.18 635.82 586.18 658.36 586.18 680.15 586.18 706.84 586.18 706.84 563.62 672.53 563.62 658.36 563.62 635.82 563.62 627.85 563.62 599.51 563.62 587.34 563.62 564.81 563.62 515.19 563.62 492.66 563.62 472.01 563.62 456.21 563.62 444.17 563.62 421.64 563.62 408.81 563.62 373.19 563.62 373.19 586.18 406.63 586.18"/>
  </g>
</svg>