<?xml version="1.0" encoding="UTF-8"?>
<svg id="Layer_1" data-name="Layer 1" xmlns="http://www.w3.org/2000/svg" width="1080" height="1080" viewBox="0 0 1080 1080">
  <defs>
    <style>
      .cls-1 {
        fill: #56ff99;
      }

      .cls-2 {
        fill: #072131;
      }

      .cls-3 {
        fill: #171918;
      }

      .cls-4 {
        fill: #50aeef;
        opacity: .5;
      }

      .cls-5 {
        fill: none;
        stroke: #efaf22;
        stroke-miterlimit: 10;
      }
    </style>
  </defs>
  <rect class="cls-3" width="1080" height="1080"/>
  <g>
    <path class="cls-1" d="M238.08,746.9h105.34l-119.45-206.9,158.01-273.69h421.37l-40.97-70.96c-7.24-12.54-20.63-20.27-35.11-20.27h-374.55c-14.49,0-27.87,7.73-35.11,20.27l-187.28,324.37c-7.24,12.55-7.24,28,0,40.55l107.75,186.63Z"/>
    <polygon class="cls-1" points="301.09 540 420.54 746.9 659.46 746.9 778.91 540 659.46 333.1 420.54 333.1 301.09 540"/>
    <path class="cls-1" d="M841.92,333.1h-105.34l119.46,206.9-158.01,273.69h-421.37l40.97,70.96c7.24,12.55,20.63,20.27,35.11,20.27h374.55c14.48,0,27.87-7.73,35.11-20.27l187.28-324.37c7.24-12.54,7.24-28,0-40.55l-107.75-186.63Z"/>
  </g>
  <g>
    <rect class="cls-2" x=".67" y="-6.79" width="1080" height="1093.58"/>
    <g>
      <g>
        <polyline class="cls-5" points="561.9 -135 561.9 326.62 561.9 343.72 561.9 354.4 561.9 381.61 561.9 385.03 561.9 406.14 561.9 415.66 561.9 444.04 561.9 530.28 561.9 562.71 561.9 590.69 561.9 592.69 561.9 617.89 561.9 680.31 561.9 855.91 561.9 877.43 561.9 917.69 561.9 939.43 561.9 979.3 561.9 1215"/>
        <polyline class="cls-5" points="514.44 -135 514.44 326.62 514.44 344.6 514.44 354.4 514.44 382.5 514.44 385.03 514.44 405.26 514.44 415.66 514.44 443.15 514.44 531.16 514.44 562.71 514.44 590.69 514.44 591.81 514.44 618.77 514.44 679.43 514.44 794.38 514.44 877.89 514.44 917.76 514.44 938.97 514.44 979.22 514.44 1215"/>
        <polyline class="cls-5" points="583.44 1215 583.44 967.37 583.44 889.75 583.44 883.85 583.44 849.49 583.44 708.25 583.44 620.63 583.44 590.69 583.44 589.95 583.44 562.71 583.44 502.34 583.44 471.98 583.44 434.08 583.44 415.66 583.44 385.03 583.44 354.4 583.44 353.67 583.44 326.62 583.44 315.78 583.44 -135"/>
        <polyline class="cls-5" points="492.89 1215 492.89 966.91 492.89 889.82 492.89 849.95 492.89 766.44 492.89 707.37 492.89 619.75 492.89 590.83 492.89 590.69 492.89 562.71 492.89 503.22 492.89 471.09 492.89 433.2 492.89 415.66 492.89 385.03 492.89 354.56 492.89 354.4 492.89 326.62 492.89 316.66 492.89 -135"/>
        <polyline class="cls-5" points="424.68 -135 424.68 326.62 424.68 354.4 424.68 385.03 424.68 414.77 424.68 415.66 424.68 502.39 424.68 521.65 424.68 559.53 424.68 562.71 424.68 590.69 424.68 677.98 424.68 708.2 424.68 761.5 424.68 795.82 424.68 801.37 424.68 1215"/>
        <polyline class="cls-5" points="651.37 -135 651.37 326.62 651.37 354.4 651.37 385.03 651.37 414.26 651.37 415.66 651.37 501.88 651.37 522.17 651.37 560.04 651.37 562.71 651.37 590.69 651.37 708.71 651.37 761.42 651.37 796.33 651.37 801.66 651.37 971.93 651.37 1215"/>
        <polyline class="cls-5" points="629.82 1215 629.82 943.99 629.82 829.61 629.82 789.36 629.82 768.38 629.82 680.77 629.82 590.69 629.82 562.71 629.82 532.1 629.82 529.82 629.82 494.21 629.82 442.2 629.82 415.66 629.82 385.03 629.82 354.4 629.82 326.62 629.82 293.53 629.82 -135"/>
        <polyline class="cls-5" points="446.53 1215 446.53 829.71 446.53 789.84 446.53 767.48 446.53 706.32 446.53 679.86 446.53 590.69 446.53 562.71 446.53 531.2 446.53 530.72 446.53 493.31 446.53 443.11 446.53 415.66 446.53 385.03 446.53 354.4 446.53 326.62 446.53 294.45 446.53 -135"/>
        <polyline class="cls-5" points="378.62 -135 378.62 326.62 378.62 354.4 378.62 355.06 378.62 385.03 378.62 415.66 378.62 442.67 378.62 562.71 378.62 581.36 378.62 590.69 378.62 618.27 378.62 619.25 378.62 701.79 378.62 741.66 378.62 767.91 378.62 855.53 378.62 1215"/>
        <polyline class="cls-5" points="357.05 -135 357.05 326.62 357.05 327.08 357.05 354.4 357.05 385.03 357.05 414.7 357.05 415.66 357.05 562.71 357.05 590.29 357.05 590.69 357.05 609.34 357.05 647.22 357.05 673.81 357.05 713.68 357.05 795.89 357.05 883.51 357.05 1215"/>
        <polyline class="cls-5" points="719.32 -135 719.32 326.16 719.32 326.62 719.32 354.4 719.32 385.03 719.32 413.78 719.32 415.66 719.32 562.71 719.32 590.69 719.32 610.27 719.32 648.14 719.32 673.32 719.32 713.56 719.32 796.81 719.32 884.42 719.32 1215"/>
        <polyline class="cls-5" points="697.74 1215 697.74 856.45 697.74 768.83 697.74 741.54 697.74 701.29 697.74 620.16 697.74 590.69 697.74 582.29 697.74 562.71 697.74 441.76 697.74 415.66 697.74 385.03 697.74 354.4 697.74 354.14 697.74 326.62 697.74 -135"/>
        <polyline class="cls-5" points=".67 349.23 73.27 349.23 74.18 349.23 129.45 349.23 247.43 349.23 303.42 349.23 366.97 349.23 422.18 349.23 441.85 349.23 477.38 349.23 598.96 349.23 632.74 349.23 654.16 349.23 707.6 349.23 772.97 349.23 828.17 349.23 946.95 349.23 1001.32 349.23 1002.23 349.23 1075.66 349.23"/>
        <polyline class="cls-5" points=".67 370.65 74.18 370.65 128.15 370.65 129.45 370.65 247.43 370.65 303.42 370.65 421.86 370.65 422.18 370.65 477.38 370.65 496.73 370.65 577.86 370.65 598.96 370.65 652.71 370.65 654.16 370.65 772.97 370.65 828.17 370.65 946.44 370.65 946.95 370.65 1002.23 370.65 1075.66 370.65"/>
        <polyline class="cls-5" points=".67 394.28 15.57 394.28 74.18 394.28 129.45 394.28 188.67 394.28 247.43 394.28 303.42 394.28 422.18 394.28 477.38 394.28 482.38 394.28 517.34 394.28 557.25 394.28 592.19 394.28 598.96 394.28 654.16 394.28 772.97 394.28 828.17 394.28 885.92 394.28 946.95 394.28 1002.23 394.28 1059.02 394.28 1075.66 394.28"/>
        <polyline class="cls-5" points=".67 417.9 74.18 417.9 76.09 417.9 129.45 417.9 247.43 417.9 249.19 417.9 303.42 417.9 422.18 417.9 456.82 417.9 477.38 417.9 531.67 417.9 542.9 417.9 598.96 417.9 617.77 417.9 654.16 417.9 772.97 417.9 825.4 417.9 828.17 417.9 946.95 417.9 998.51 417.9 1002.23 417.9 1075.66 417.9"/>
        <polyline class="cls-5" points=".67 531.31 19.69 531.31 74.18 531.31 129.45 531.31 166.3 531.31 241.16 531.31 247.43 531.31 303.42 531.31 366.61 531.31 422.18 531.31 477.38 531.31 534.88 531.31 539.71 531.31 598.96 531.31 654.16 531.31 707.99 531.31 772.97 531.31 828.17 531.31 833.44 531.31 908.27 531.31 946.95 531.31 1002.23 531.31 1075.66 531.31"/>
        <polyline class="cls-5" points="1075.66 552.88 1002.23 552.88 963.54 552.88 946.95 552.88 888.71 552.88 828.17 552.88 772.97 552.88 654.16 552.88 652.71 552.88 598.96 552.88 594.99 552.88 479.61 552.88 477.38 552.88 422.18 552.88 421.88 552.88 303.42 552.88 247.43 552.88 185.88 552.88 129.45 552.88 111.03 552.88 74.96 552.88 74.18 552.88 .67 552.88"/>
        <polyline class="cls-5" points=".67 -6.79 356.69 349.23 357.05 349.58 378.12 370.65 378.62 371.16 401.74 394.28 424.68 417.21 425.36 417.9 446.53 439.07 465.89 458.42 480.5 473.04 492.89 485.43 514.44 506.97 537.83 530.37 538.77 531.31 560.35 552.88 561.9 554.43 571.61 564.15 583.44 575.98 629.82 622.36 651.37 643.91 671.7 664.23 687.22 679.75 697.74 690.28 719.32 711.85 1080.67 1073.21"/>
        <polyline class="cls-5" points="1080.67 958.55 744.55 622.43 729.02 606.9 719.32 597.19 697.74 575.62 675 552.88 653.43 531.31 651.37 529.25 629.82 507.7 628.94 506.82 595.15 473.04 583.44 461.33 561.9 439.78 540.01 417.9 537.82 415.71 523.22 401.1 516.39 394.28 514.44 392.33 492.89 370.78 492.76 370.65 471.34 349.23 446.53 324.42 .67 -121.44"/>
        <polyline class="cls-5" points="1080.67 929.34 743.63 592.3 719.32 567.99 704.21 552.88 697.74 546.41 682.64 531.31 651.37 500.04 643.55 492.22 629.82 478.48 609.77 458.42 583.44 432.1 569.24 417.9 561.9 410.55 552.44 401.1 545.62 394.28 537.82 386.49 521.99 370.65 514.44 363.1 500.57 349.23 492.89 341.55 16.34 -135"/>
        <polyline class="cls-5" points="1080.67 1140.78 719.32 779.43 697.74 757.85 653.43 713.54 651.37 711.48 637.91 698.02 629.82 689.93 583.44 643.55 561.9 622.01 537.83 597.94 514.44 574.55 504.04 564.15 492.89 553 492.77 552.88 471.2 531.31 446.71 506.82 446.53 506.64 432.11 492.22 424.68 484.78 378.62 438.73 357.79 417.9 357.05 417.15 334.17 394.28 .67 60.78"/>
        <polyline class="cls-5" points="1080.67 -12.48 719.32 348.87 718.96 349.23 697.74 370.45 697.54 370.65 673.91 394.28 651.37 416.82 650.29 417.9 629.82 438.37 609.77 458.42 595.15 473.04 583.44 484.75 561.9 506.29 537.83 530.37 536.88 531.31 515.31 552.88 514.44 553.75 504.04 564.15 492.89 575.3 446.53 621.66 436.32 631.87 424.68 643.52 404.12 664.07 388.75 679.45 378.62 689.57 357.05 711.15 .67 1067.52"/>
        <polyline class="cls-5" points="1080.67 -127.14 629.82 323.71 604.3 349.23 583.44 370.09 582.88 370.65 561.9 391.64 559.26 394.28 552.44 401.1 537.82 415.71 535.63 417.9 514.44 439.1 492.89 460.64 480.5 473.04 446.71 506.82 446.53 507 424.68 528.86 422.23 531.31 400.65 552.88 379 574.54 378.62 574.91 357.05 596.49 346.79 606.74 331.42 622.12 .67 952.86"/>
        <polyline class="cls-5" points="1059.31 -135 583.44 340.87 575.09 349.23 561.9 362.42 553.66 370.65 537.82 386.49 530.04 394.28 523.22 401.1 514.44 409.88 506.41 417.9 492.89 431.42 465.89 458.42 446.53 477.78 432.11 492.22 424.68 499.64 393.01 531.31 378.62 545.69 371.43 552.88 364.39 559.92 357.05 567.27 332.19 592.14 -.67 924.98"/>
        <polyline class="cls-5" points=".67 1135.09 357.05 778.72 378.62 757.14 422.53 713.23 424.68 711.09 437.91 697.86 446.53 689.23 470.12 665.65 492.89 642.87 514.44 621.33 537.83 597.94 561.9 573.87 571.61 564.15 582.88 552.88 583.44 552.32 604.46 531.31 628.94 506.82 629.82 505.94 643.55 492.22 651.37 484.39 697.74 438.02 717.86 417.9 719.32 416.45 741.49 394.28 1080.67 55.09"/>
        <polyline class="cls-5" points="1080.67 255.26 743.63 592.3 729.02 606.9 719.32 616.61 697.74 638.19 671.7 664.23 651.37 684.56 637.91 698.02 629.82 706.1 583.44 752.48 570.2 765.73 561.9 774.03 537.99 797.94 522.61 813.31 514.44 821.49 492.89 843.04 120.93 1215"/>
        <polyline class="cls-5" points="151.97 1215 514.44 852.54 538.14 828.84 553.51 813.46 561.9 805.08 583.44 783.53 585.71 781.25 629.82 737.15 651.37 715.59 653.43 713.54 687.22 679.75 697.74 669.22 719.32 647.65 744.55 622.43 1080.67 286.29"/>
        <polyline class="cls-5" points="1019.46 1215 651.37 846.91 629.82 825.36 585.71 781.25 583.44 778.99 570.2 765.73 561.9 757.44 514.44 709.98 492.89 688.43 470.12 665.65 446.53 642.06 436.32 631.87 424.68 620.21 379 574.54 378.62 574.15 364.39 559.92 357.35 552.88 357.05 552.58 335.77 531.31 .67 196.2"/>
        <polyline class="cls-5" points="924.3 1215 561.9 852.59 538.14 828.84 522.61 813.31 514.44 805.13 492.89 783.59 446.53 737.23 424.68 715.37 422.53 713.23 388.75 679.45 378.62 669.32 357.05 647.74 331.42 622.12 .67 291.37"/>
        <polyline class="cls-5" points=".67 260.62 332.19 592.14 346.79 606.74 357.05 616.99 378.62 638.57 404.12 664.07 424.68 684.62 437.91 697.86 446.53 706.48 492.89 752.84 514.44 774.39 537.99 797.94 553.51 813.46 561.9 821.84 583.44 843.39 955.05 1215"/>
      </g>
      <path class="cls-4" d="M561.9,408.85l-8.29-8.26c-8.51-8.5-22.31-8.5-30.83,0l-8.34,8.32v-37.86c0-12.06-9.77-21.83-21.83-21.83h-135.57l21.58,21.55h114.27v59.65l-67.93,67.9v32.98h-46.34v-92.36l-21.58-21.8v203.6c0,17.38,6.91,34.02,19.18,46.32l161.94,161.92,161.94-161.92c12.27-12.3,19.18-28.94,19.18-46.32v-203.6l-21.55,21.22v92.94h-46.37v-32.98l-67.93-67.93M583.44,430.4v-59.62h114.29l21.55-21.55h-135.57c-12.06,0-21.83,9.77-21.83,21.83v37.8M583.44,531.31v-70.4M583.44,460.9l46.37,46.34v24.06h-46.37M561.9,531.31h-47.46v-91.95l23.73-23.73,23.73,23.73M561.9,439.35v91.95M446.51,507.27l46.38-46.37v70.4h-46.38v-24.04ZM697.74,611.83c0,17.35-6.91,34.01-19.18,46.29l-95.12,95.09v.02l-27.69,27.69-17.59,17.6-45.28-45.31-95.12-95.09c-12.27-12.28-19.15-28.92-19.15-46.29v-58.95h46.34v66.72l21.55,21.58v-88.3h46.38v134.64l21.55,21.55v-156.19h47.46v156.35l21.55-21.58v-134.77h46.37v88.43l21.56-21.58v-66.86h46.37v58.95Z"/>
    </g>
  </g>
</svg>