<?xml version="1.0" encoding="UTF-8"?>
<svg id="Layer_1" data-name="Layer 1" xmlns="http://www.w3.org/2000/svg" width="3660" height="800" viewBox="0 0 3660 800">
  <defs>
    <style>
      .cls-1 {
        fill: #50aeef;
      }

      .cls-2 {
        fill: #0d303f;
      }

      .cls-3 {
        fill: #efaf22;
      }
    </style>
  </defs>
  <rect class="cls-2" y="0" width="3660" height="800.32"/>
  <g>
    <path class="cls-1" d="M1539.19,437.4v-19.06l-39.25-39.25-12.45-12.45-4.79-4.78c-4.92-4.92-12.89-4.92-17.81,0l-4.82,4.81-12.45,12.44-39.25,39.24v19.06h-26.78v12.47h26.78v38.56l12.45,12.47v-51.03h26.8v77.81l12.45,12.45v-90.26h27.43v90.36l12.45-12.47v-77.89h26.8v51.11l12.45-12.47v-38.64h26.8v-12.47h-26.8ZM1447.6,437.4h-26.8v-13.89l26.8-26.8v40.69ZM1487.49,437.4h-27.43v-53.14l13.71-13.71,13.71,13.71v53.14ZM1526.74,437.4h-26.8v-40.69l26.8,26.78v13.9Z"/>
    <g>
      <g>
        <path class="cls-1" d="M1460.06,344.79v21.88l-12.45,12.44v-34.48h-66.03l-12.47-12.45h78.35c6.97,0,12.61,5.64,12.61,12.61Z"/>
        <path class="cls-1" d="M1578.44,332.17l-12.45,12.45h-66.05v34.46l-12.45-12.45v-21.85c0-6.97,5.64-12.61,12.61-12.61h78.35Z"/>
        <path class="cls-1" d="M1578.44,371.43v117.66c0,10.04-3.99,19.66-11.08,26.77l-93.59,93.57-93.59-93.57c-7.09-7.11-11.08-16.72-11.08-26.77v-117.66l12.47,12.59v99.91c0,10.04,3.97,19.66,11.07,26.75l54.97,54.95,26.17,26.18,10.17-10.17,3.55-3.55,12.45-12.45v-.02l54.97-54.95c7.09-7.09,11.08-16.72,11.08-26.75v-100.24l12.45-12.26Z"/>
      </g>
      <polygon class="cls-3" points="1473.77 283.25 1485.2 291.55 1480.83 278.12 1492.26 269.82 1478.14 269.82 1473.77 256.38 1469.41 269.82 1455.28 269.82 1466.71 278.12 1462.34 291.55 1473.77 283.25"/>
      <polygon class="cls-3" points="1524.29 296.79 1535.72 305.09 1531.35 291.66 1542.78 283.36 1528.66 283.36 1524.29 269.92 1519.93 283.36 1505.8 283.36 1517.23 291.66 1512.86 305.09 1524.29 296.79"/>
      <polygon class="cls-3" points="1423.25 296.79 1434.68 305.09 1430.31 291.66 1441.74 283.36 1427.62 283.36 1423.25 269.92 1418.89 283.36 1404.76 283.36 1416.19 291.66 1411.83 305.09 1423.25 296.79"/>
    </g>
    <g>
      <g>
        <path class="cls-1" d="M1671.14,337.93h18.01v47.2c0,2.32.17,4.43.51,6.34s.85,3.63,1.52,5.16c.67,1.53,1.51,2.86,2.51,3.99,1,1.13,2.14,2.08,3.43,2.84,1.29.76,2.74,1.32,4.35,1.69,1.61.37,3.35.56,5.23.56s3.62-.19,5.23-.56c1.61-.37,3.05-.94,4.35-1.69,1.29-.76,2.44-1.71,3.43-2.84,1-1.13,1.83-2.46,2.51-3.99.67-1.53,1.18-3.25,1.52-5.16s.51-4.02.51-6.34v-47.2h18.01v48.45c0,3.65-.39,7.04-1.17,10.19-.78,3.14-1.9,6-3.36,8.58-1.46,2.58-3.24,4.86-5.34,6.85-2.1,2-4.47,3.67-7.1,5.02-2.63,1.35-5.51,2.38-8.64,3.08-3.13.7-6.45,1.05-9.96,1.05s-6.84-.35-9.96-1.05c-3.13-.7-6-1.73-8.64-3.08-2.63-1.35-5-3.02-7.1-5.02-2.1-2-3.88-4.28-5.34-6.85-1.46-2.57-2.58-5.43-3.36-8.58-.78-3.15-1.17-6.54-1.17-10.19v-48.45Z"/>
        <path class="cls-1" d="M1767.64,419.44h-17.07v-62.85h17.07v19.21l-.09.09c.65-3.4,1.61-6.41,2.89-9.02,1.28-2.61,2.86-4.8,4.75-6.57,1.88-1.77,4.04-3.11,6.47-4.03,2.43-.92,5.12-1.38,8.07-1.38,3.38,0,6.37.61,8.98,1.82,2.6,1.22,4.78,3.01,6.53,5.39,1.75,2.38,3.08,5.31,3.99,8.79.91,3.49,1.37,7.5,1.37,12.04v36.51h-17.07v-33.66c0-2.68-.25-5.02-.76-7.03-.5-2-1.26-3.67-2.28-5-1.02-1.33-2.29-2.33-3.82-2.99-1.53-.66-3.32-1-5.37-1-1.44,0-2.78.16-4.02.48-1.24.32-2.36.8-3.38,1.44-1.02.64-1.91,1.43-2.69,2.37-.78.94-1.43,2.03-1.95,3.28-.52,1.24-.92,2.63-1.2,4.15s-.41,3.18-.41,4.99v32.98Z"/>
        <path class="cls-1" d="M1835.28,350.01h-17.41v-14.93h17.41v14.93ZM1835.11,419.44h-17.07v-62.85h17.07v62.85Z"/>
        <path class="cls-1" d="M1838.71,370.16v-13.57h43.01v13.57h-43.01ZM1874.21,420.6c-2.33.35-4.52.53-6.57.53-3.46,0-6.5-.51-9.12-1.52-2.62-1.02-4.82-2.54-6.58-4.56-1.77-2.02-3.1-4.55-4-7.57-.9-3.02-1.35-6.53-1.35-10.52v-54.84h17.07v54.87c0,1.8.17,3.36.5,4.67s.84,2.39,1.51,3.23c.67.85,1.53,1.47,2.58,1.88,1.04.41,2.3.61,3.76.61,1.18,0,2.55-.13,4.12-.38,1.57-.26,3.43-.66,5.6-1.21v13.17c-2.68.74-5.18,1.29-7.51,1.64Z"/>
        <path class="cls-1" d="M1900.69,396.83c.73,2.27,1.78,4.19,3.15,5.77,1.37,1.58,3.04,2.79,5,3.63,1.97.85,4.19,1.27,6.68,1.27,1.65,0,3.18-.19,4.57-.58,1.4-.39,2.66-.98,3.79-1.77,1.13-.79,2.14-1.77,3.02-2.93s1.63-2.52,2.24-4.06h16.05c-.86,3.57-2.19,6.78-4.02,9.63-1.82,2.85-4.03,5.26-6.63,7.24-2.59,1.98-5.54,3.49-8.84,4.55-3.3,1.05-6.85,1.58-10.67,1.58-4.75,0-9.07-.8-12.97-2.39s-7.24-3.85-10.02-6.77c-2.78-2.92-4.94-6.41-6.47-10.49-1.53-4.08-2.29-8.59-2.29-13.55s.76-9.42,2.27-13.48c1.51-4.07,3.64-7.55,6.4-10.45,2.75-2.9,6.06-5.14,9.92-6.74,3.86-1.6,8.13-2.39,12.83-2.39s8.85.78,12.64,2.35c3.79,1.57,7.03,3.79,9.72,6.67,2.69,2.88,4.76,6.35,6.23,10.4,1.46,4.06,2.19,8.57,2.19,13.55,0,.76-.02,1.52-.06,2.29-.04.77-.1,1.55-.17,2.35h-51.39v-10.55h42.38l-6.93,10.38c.08-.74.13-1.48.16-2.21s.04-1.45.04-2.15c0-3.23-.32-6.07-.95-8.51-.64-2.44-1.57-4.49-2.81-6.14-1.24-1.65-2.77-2.9-4.6-3.75-1.83-.84-3.96-1.27-6.37-1.27s-4.53.42-6.41,1.25c-1.88.84-3.47,2.05-4.77,3.63-1.3,1.59-2.29,3.53-2.98,5.83-.68,2.3-1.03,4.9-1.03,7.81v2.31c0,2.85.37,5.41,1.1,7.68Z"/>
        <path class="cls-1" d="M2012.51,335.08v84.37h-17.07v-19.38l.09-.09c-.68,3.34-1.66,6.33-2.94,8.96-1.27,2.63-2.81,4.85-4.6,6.66-1.8,1.81-3.85,3.18-6.16,4.13-2.31.95-4.82,1.43-7.54,1.43-2.49,0-4.85-.37-7.07-1.1-2.22-.73-4.28-1.79-6.16-3.16-1.88-1.38-3.58-3.04-5.09-5-1.51-1.96-2.79-4.17-3.83-6.63-1.05-2.46-1.85-5.14-2.41-8.04-.56-2.9-.84-5.97-.84-9.22s.28-6.32.84-9.22c.56-2.9,1.36-5.57,2.41-8.02,1.04-2.45,2.32-4.66,3.83-6.63,1.51-1.97,3.21-3.63,5.09-5,1.88-1.37,3.93-2.42,6.16-3.15,2.22-.73,4.58-1.1,7.07-1.1,2.72,0,5.23.48,7.54,1.43,2.31.95,4.36,2.33,6.16,4.13,1.8,1.81,3.33,4.02,4.6,6.64,1.27,2.62,2.25,5.61,2.94,8.95l-.09-.06v-40.9h17.07ZM1994.99,382.56c-.29-1.67-.73-3.19-1.3-4.56-.57-1.37-1.28-2.57-2.12-3.62-.85-1.04-1.82-1.92-2.92-2.64-1.1-.71-2.32-1.25-3.66-1.61-1.34-.36-2.79-.54-4.35-.54-2.39,0-4.5.39-6.31,1.17-1.81.78-3.33,1.94-4.56,3.49-1.23,1.55-2.15,3.47-2.76,5.77-.62,2.3-.93,4.96-.93,7.98s.31,5.68.94,7.98c.63,2.3,1.55,4.23,2.76,5.79,1.22,1.56,2.73,2.73,4.55,3.5,1.81.78,3.92,1.17,6.31,1.17,1.56,0,3.01-.18,4.35-.54,1.34-.36,2.56-.9,3.66-1.61,1.1-.71,2.08-1.6,2.92-2.65.84-1.05,1.55-2.27,2.12-3.63.57-1.37,1-2.89,1.3-4.56.29-1.67.44-3.49.44-5.44s-.15-3.77-.44-5.44Z"/>
        <path class="cls-1" d="M2102.98,353.26h-39.68l1.37-1.43v22.2l-1.37-1.43h36.37v14.88h-36.37l1.37-1.43v33.38h-18.01v-81.52h56.32v15.33Z"/>
        <path class="cls-1" d="M2147.83,356.6h17.07v62.85h-17.07v-19.21l.09-.09c-.65,3.4-1.61,6.41-2.89,9.02-1.28,2.61-2.86,4.8-4.75,6.57s-4.04,3.11-6.47,4.03c-2.43.92-5.12,1.38-8.07,1.38-3.38,0-6.38-.61-8.98-1.82-2.6-1.22-4.78-3.01-6.53-5.39-1.75-2.37-3.08-5.31-3.99-8.79-.91-3.49-1.37-7.5-1.37-12.04v-36.51h17.07v33.66c0,2.68.25,5.02.76,7.03.5,2,1.26,3.67,2.28,5,1.02,1.33,2.29,2.33,3.82,2.99,1.53.67,3.32,1,5.37,1,1.44,0,2.78-.16,4.02-.48,1.23-.32,2.36-.8,3.38-1.44,1.02-.64,1.91-1.42,2.69-2.36.78-.94,1.43-2.03,1.95-3.28.52-1.24.92-2.63,1.2-4.15.27-1.52.41-3.18.41-4.99v-32.98Z"/>
        <path class="cls-1" d="M2168.98,370.16v-13.57h43.01v13.57h-43.01ZM2204.48,420.6c-2.33.35-4.52.53-6.57.53-3.46,0-6.5-.51-9.12-1.52-2.62-1.02-4.82-2.54-6.58-4.56-1.77-2.02-3.1-4.55-4-7.57-.9-3.02-1.35-6.53-1.35-10.52v-54.84h17.07v54.87c0,1.8.17,3.36.5,4.67.33,1.31.84,2.39,1.51,3.23.67.85,1.53,1.47,2.58,1.88,1.04.41,2.3.61,3.76.61,1.18,0,2.55-.13,4.12-.38,1.57-.26,3.43-.66,5.6-1.21v13.17c-2.68.74-5.18,1.29-7.51,1.64Z"/>
        <path class="cls-1" d="M2259.49,356.6h17.07v62.85h-17.07v-19.21l.09-.09c-.65,3.4-1.61,6.41-2.89,9.02-1.28,2.61-2.86,4.8-4.75,6.57-1.88,1.77-4.04,3.11-6.47,4.03-2.43.92-5.12,1.38-8.07,1.38-3.38,0-6.38-.61-8.98-1.82-2.6-1.22-4.78-3.01-6.53-5.39-1.75-2.37-3.08-5.31-3.99-8.79-.91-3.49-1.37-7.5-1.37-12.04v-36.51h17.07v33.66c0,2.68.25,5.02.76,7.03.5,2,1.26,3.67,2.28,5,1.02,1.33,2.29,2.33,3.82,2.99,1.53.67,3.32,1,5.37,1,1.44,0,2.78-.16,4.02-.48,1.23-.32,2.36-.8,3.38-1.44,1.02-.64,1.91-1.42,2.69-2.36.78-.94,1.43-2.03,1.95-3.28.52-1.24.92-2.63,1.2-4.15.27-1.52.41-3.18.41-4.99v-32.98Z"/>
        <path class="cls-1" d="M2301.51,419.44h-17.07v-62.85h17.07v22.15l-.06.09c.53-3.42,1.35-6.5,2.45-9.25,1.1-2.75,2.52-5.08,4.25-7,1.73-1.92,3.78-3.4,6.16-4.43,2.37-1.04,5.11-1.55,8.21-1.55h3.73v16.08h-6.58c-3.5,0-6.41.36-8.74,1.08-2.33.72-4.19,1.82-5.59,3.31-1.4,1.48-2.38,3.36-2.96,5.63s-.87,4.95-.87,8.05v28.7Z"/>
        <path class="cls-1" d="M2345.23,396.83c.73,2.27,1.78,4.19,3.15,5.77,1.37,1.58,3.04,2.79,5,3.63,1.97.85,4.19,1.27,6.68,1.27,1.65,0,3.18-.19,4.57-.58,1.4-.39,2.66-.98,3.79-1.77,1.13-.79,2.14-1.77,3.02-2.93s1.63-2.52,2.24-4.06h16.05c-.86,3.57-2.19,6.78-4.02,9.63-1.82,2.85-4.03,5.26-6.63,7.24-2.59,1.98-5.54,3.49-8.84,4.55-3.3,1.05-6.85,1.58-10.67,1.58-4.75,0-9.07-.8-12.97-2.39-3.9-1.6-7.24-3.85-10.02-6.77-2.78-2.92-4.94-6.41-6.47-10.49-1.53-4.08-2.29-8.59-2.29-13.55s.76-9.42,2.27-13.48c1.51-4.07,3.64-7.55,6.4-10.45,2.75-2.9,6.06-5.14,9.92-6.74,3.86-1.6,8.13-2.39,12.83-2.39s8.85.78,12.64,2.35c3.79,1.57,7.03,3.79,9.72,6.67,2.69,2.88,4.76,6.35,6.23,10.4,1.46,4.06,2.19,8.57,2.19,13.55,0,.76-.02,1.52-.06,2.29-.04.77-.1,1.55-.17,2.35h-51.39v-10.55h42.38l-6.93,10.38c.08-.74.13-1.48.16-2.21s.04-1.45.04-2.15c0-3.23-.32-6.07-.95-8.51-.64-2.44-1.57-4.49-2.81-6.14-1.24-1.65-2.77-2.9-4.6-3.75-1.83-.84-3.96-1.27-6.37-1.27s-4.53.42-6.41,1.25c-1.88.84-3.47,2.05-4.77,3.63-1.3,1.59-2.29,3.53-2.98,5.83-.68,2.3-1.03,4.9-1.03,7.81v2.31c0,2.85.37,5.41,1.1,7.68Z"/>
      </g>
      <g>
        <path class="cls-3" d="M1700.1,481.44h-23.38l.72-.75v14.81l-.72-.75h21.59v5.85h-21.59l.72-.75v18.62h-6.3v-42.87h28.96v5.85Z"/>
        <path class="cls-3" d="M1702.04,497.02c.35-1.54.85-2.95,1.51-4.24.66-1.29,1.46-2.45,2.41-3.47.94-1.02,2.02-1.89,3.22-2.6s2.51-1.25,3.94-1.63c1.42-.38,2.95-.56,4.56-.56s3.14.19,4.56.56c1.42.37,2.74.92,3.94,1.63s2.27,1.58,3.22,2.6c.94,1.02,1.75,2.18,2.41,3.47.66,1.29,1.16,2.7,1.51,4.24s.53,3.18.53,4.92-.18,3.38-.53,4.92c-.35,1.54-.85,2.96-1.51,4.25-.66,1.29-1.46,2.45-2.41,3.47s-2.02,1.89-3.22,2.6-2.5,1.26-3.93,1.63c-1.42.37-2.95.56-4.56.56s-3.14-.19-4.56-.56c-1.42-.38-2.73-.92-3.93-1.63-1.19-.71-2.27-1.58-3.22-2.6-.95-1.02-1.75-2.18-2.41-3.47-.66-1.29-1.16-2.71-1.51-4.25-.35-1.54-.53-3.18-.53-4.92s.17-3.38.53-4.92ZM1708.28,506.92c.46,1.47,1.13,2.73,2.01,3.76.87,1.03,1.94,1.82,3.19,2.38,1.25.56,2.65.83,4.21.83s2.96-.27,4.21-.82c1.24-.55,2.3-1.34,3.17-2.38.87-1.03,1.54-2.29,2-3.76s.7-3.14.7-4.98-.23-3.51-.7-4.98c-.46-1.47-1.13-2.73-2-3.75-.87-1.03-1.93-1.82-3.17-2.37-1.24-.55-2.65-.82-4.21-.82s-2.96.27-4.21.82c-1.25.55-2.31,1.34-3.19,2.37-.87,1.03-1.54,2.28-2.01,3.75-.46,1.47-.7,3.14-.7,4.98s.23,3.51.7,4.98Z"/>
        <path class="cls-3" d="M1736.71,497.02c.35-1.54.85-2.95,1.51-4.24.66-1.29,1.46-2.45,2.41-3.47s2.02-1.89,3.22-2.6,2.51-1.25,3.94-1.63c1.42-.38,2.95-.56,4.56-.56s3.14.19,4.56.56c1.42.37,2.74.92,3.94,1.63s2.27,1.58,3.22,2.6c.94,1.02,1.75,2.18,2.41,3.47.66,1.29,1.16,2.7,1.51,4.24s.53,3.18.53,4.92-.18,3.38-.53,4.92c-.35,1.54-.85,2.96-1.51,4.25-.66,1.29-1.46,2.45-2.41,3.47-.95,1.02-2.02,1.89-3.22,2.6-1.19.71-2.5,1.26-3.93,1.63-1.42.37-2.95.56-4.56.56s-3.14-.19-4.56-.56c-1.42-.38-2.73-.92-3.93-1.63s-2.27-1.58-3.22-2.6c-.95-1.02-1.75-2.18-2.41-3.47-.66-1.29-1.16-2.71-1.51-4.25-.35-1.54-.53-3.18-.53-4.92s.17-3.38.53-4.92ZM1742.95,506.92c.46,1.47,1.13,2.73,2.01,3.76.87,1.03,1.94,1.82,3.19,2.38,1.25.56,2.65.83,4.21.83s2.96-.27,4.21-.82c1.24-.55,2.3-1.34,3.17-2.38.87-1.03,1.54-2.29,2-3.76s.7-3.14.7-4.98-.23-3.51-.7-4.98c-.46-1.47-1.13-2.73-2-3.75-.87-1.03-1.93-1.82-3.17-2.37-1.24-.55-2.65-.82-4.21-.82s-2.96.27-4.21.82c-1.25.55-2.31,1.34-3.19,2.37-.87,1.03-1.54,2.28-2.01,3.75-.46,1.47-.7,3.14-.7,4.98s.23,3.51.7,4.98Z"/>
        <path class="cls-3" d="M1769.16,490.51v-5.1h21.51v5.1h-21.51ZM1787.05,519.08c-1.13.19-2.21.28-3.22.28-1.65,0-3.11-.25-4.37-.76-1.26-.5-2.33-1.25-3.19-2.25-.86-.99-1.51-2.23-1.96-3.7-.44-1.47-.67-3.18-.67-5.12v-29.73h6.07v29.74c0,1.1.1,2.05.31,2.86.2.8.51,1.47.93,1.99.41.53.94.92,1.59,1.18s1.41.39,2.3.39c.7,0,1.52-.08,2.47-.24.95-.16,2.06-.41,3.34-.75v5.25c-1.28.39-2.49.68-3.62.86Z"/>
        <path class="cls-3" d="M1799.52,495.77h-.04c.42-1.7,1.01-3.26,1.78-4.65.76-1.39,1.67-2.57,2.73-3.55s2.24-1.73,3.56-2.26c1.32-.53,2.73-.79,4.24-.79,1.36,0,2.65.19,3.87.58,1.22.39,2.35.95,3.38,1.67,1.03.72,1.97,1.61,2.8,2.65.83,1.04,1.54,2.2,2.12,3.49.58,1.29,1.03,2.69,1.34,4.21.31,1.52.47,3.12.47,4.81s-.16,3.29-.47,4.81c-.32,1.52-.76,2.93-1.34,4.22-.58,1.29-1.29,2.46-2.12,3.49-.83,1.03-1.77,1.92-2.8,2.65-1.03.73-2.16,1.29-3.38,1.68-1.22.39-2.51.58-3.87.58-1.51,0-2.92-.27-4.24-.79-1.32-.53-2.51-1.28-3.56-2.26-1.05-.98-1.96-2.17-2.73-3.56-.76-1.39-1.36-2.95-1.78-4.67l.04.03v10.36h-6.07v-44.37h6.07v21.68ZM1799.83,505.45c.21,1.08.51,2.08.91,2.98.4.9.89,1.7,1.48,2.39.59.69,1.26,1.28,2.02,1.75.75.48,1.59.84,2.5,1.09.91.25,1.9.37,2.96.37,1.62,0,3.05-.26,4.29-.79,1.24-.53,2.28-1.3,3.13-2.32s1.48-2.29,1.92-3.79c.43-1.5.65-3.24.65-5.19s-.22-3.69-.65-5.19c-.43-1.5-1.07-2.77-1.91-3.79-.84-1.02-1.88-1.79-3.13-2.32-1.24-.53-2.68-.79-4.29-.79-1.06,0-2.05.12-2.96.37-.91.25-1.75.61-2.5,1.09-.75.48-1.43,1.06-2.02,1.75-.59.69-1.08,1.49-1.48,2.38-.4.89-.7,1.88-.91,2.97-.21,1.08-.32,2.26-.32,3.52s.11,2.43.32,3.52Z"/>
        <path class="cls-3" d="M1829.92,491.79c.7-1.53,1.7-2.83,3.01-3.91,1.3-1.08,2.89-1.91,4.74-2.49,1.86-.58,3.94-.87,6.25-.87,2.45,0,4.64.33,6.58.98,1.94.65,3.58,1.6,4.93,2.83,1.35,1.23,2.38,2.73,3.1,4.5.72,1.77,1.08,3.79,1.08,6.03v19.61h-6.07v-9.05h.04c-.26,1.03-.61,1.99-1.06,2.88s-.98,1.7-1.6,2.44c-.62.74-1.32,1.4-2.11,1.97-.78.57-1.64,1.06-2.56,1.45-.92.39-1.92.69-2.98.9-1.06.2-2.17.31-3.34.31-1.81,0-3.45-.24-4.93-.71-1.48-.47-2.75-1.15-3.8-2.02-1.05-.87-1.87-1.92-2.44-3.15-.57-1.22-.86-2.59-.86-4.08s.3-2.87.89-4.08c.59-1.21,1.45-2.24,2.56-3.08,1.11-.84,2.47-1.49,4.05-1.94s3.38-.67,5.38-.67h12.98v5.1h-13.04c-1.12,0-2.1.09-2.95.28-.85.19-1.56.47-2.14.85-.57.38-1.01.85-1.3,1.41-.3.56-.44,1.2-.44,1.93,0,.78.17,1.47.5,2.08.33.61.83,1.12,1.48,1.53.65.41,1.45.72,2.41.94.95.22,2.05.32,3.29.32,1.17,0,2.28-.09,3.32-.28,1.04-.19,2.01-.46,2.9-.81.89-.35,1.69-.77,2.4-1.27.71-.5,1.31-1.06,1.81-1.69.5-.62.88-1.31,1.15-2.05.26-.74.4-1.52.4-2.34v-6.78c0-1.36-.23-2.58-.68-3.67-.46-1.09-1.1-2.02-1.94-2.79-.84-.77-1.86-1.36-3.06-1.77s-2.55-.61-4.05-.61-2.85.17-3.96.49c-1.11.33-2.03.79-2.76,1.39-.72.6-1.26,1.33-1.62,2.18-.35.85-.53,1.8-.53,2.84h-6.07c0-1.9.35-3.61,1.05-5.14Z"/>
        <path class="cls-3" d="M1870.43,518.47h-6.07v-44.37h6.07v44.37Z"/>
        <path class="cls-3" d="M1881.41,518.47h-6.07v-44.37h6.07v44.37Z"/>
        <path class="cls-3" d="M1897.82,518.47l15.98-42.87h9.44l15.77,42.87h-6.69l-14.9-40.89h2.04l-15.11,40.89h-6.54ZM1905.5,502.03h26.32v5.7h-26.32v-5.7Z"/>
        <path class="cls-3" d="M1945.71,506.92c.46,1.47,1.13,2.73,2.01,3.76.87,1.03,1.94,1.82,3.19,2.38,1.25.56,2.65.83,4.21.83,1.37,0,2.58-.2,3.64-.61,1.05-.41,1.96-.97,2.71-1.69.75-.71,1.37-1.55,1.84-2.5.47-.95.8-1.98,1-3.07h6.07c-.25,1.88-.77,3.63-1.56,5.25-.79,1.62-1.83,3.04-3.13,4.23-1.29,1.2-2.83,2.14-4.6,2.83-1.77.69-3.77,1.03-5.99,1.03-1.62,0-3.14-.19-4.56-.56-1.42-.38-2.73-.92-3.93-1.63s-2.27-1.58-3.22-2.6c-.95-1.02-1.75-2.18-2.41-3.47-.66-1.29-1.16-2.71-1.51-4.25-.35-1.54-.53-3.18-.53-4.92s.17-3.38.53-4.92c.35-1.54.85-2.95,1.51-4.24.66-1.29,1.46-2.45,2.41-3.47s2.02-1.89,3.22-2.6,2.51-1.25,3.94-1.63c1.42-.38,2.95-.56,4.56-.56,2.22,0,4.22.34,6,1.03s3.31,1.63,4.6,2.83c1.29,1.2,2.33,2.61,3.12,4.23.79,1.62,1.31,3.38,1.56,5.25h-6.07c-.2-1.09-.53-2.11-1-3.07-.47-.96-1.08-1.79-1.84-2.5-.75-.71-1.66-1.27-2.71-1.68-1.05-.41-2.27-.61-3.64-.61-1.56,0-2.96.27-4.21.82-1.25.55-2.31,1.34-3.19,2.37-.87,1.03-1.54,2.28-2.01,3.75-.46,1.47-.7,3.14-.7,4.98s.23,3.51.7,4.98Z"/>
        <path class="cls-3" d="M1974.57,491.79c.7-1.53,1.7-2.83,3.01-3.91s2.89-1.91,4.74-2.49c1.86-.58,3.94-.87,6.25-.87,2.45,0,4.64.33,6.58.98,1.94.65,3.58,1.6,4.93,2.83,1.35,1.23,2.38,2.73,3.1,4.5.72,1.77,1.08,3.79,1.08,6.03v19.61h-6.07v-9.05h.04c-.26,1.03-.61,1.99-1.06,2.88-.45.89-.98,1.7-1.6,2.44-.62.74-1.32,1.4-2.11,1.97-.78.57-1.64,1.06-2.56,1.45-.92.39-1.92.69-2.98.9-1.06.2-2.17.31-3.34.31-1.81,0-3.45-.24-4.93-.71-1.48-.47-2.75-1.15-3.8-2.02-1.05-.87-1.87-1.92-2.44-3.15-.57-1.22-.86-2.59-.86-4.08s.3-2.87.89-4.08c.59-1.21,1.45-2.24,2.56-3.08,1.11-.84,2.47-1.49,4.05-1.94s3.38-.67,5.38-.67h12.98v5.1h-13.04c-1.12,0-2.1.09-2.95.28-.85.19-1.56.47-2.14.85-.57.38-1.01.85-1.3,1.41-.3.56-.44,1.2-.44,1.93,0,.78.17,1.47.5,2.08.33.61.83,1.12,1.48,1.53.65.41,1.45.72,2.41.94.95.22,2.05.32,3.29.32,1.17,0,2.28-.09,3.32-.28,1.04-.19,2.01-.46,2.9-.81.89-.35,1.69-.77,2.4-1.27.71-.5,1.31-1.06,1.81-1.69.5-.62.88-1.31,1.15-2.05.26-.74.4-1.52.4-2.34v-6.78c0-1.36-.23-2.58-.68-3.67-.46-1.09-1.1-2.02-1.94-2.79-.84-.77-1.86-1.36-3.06-1.77-1.2-.41-2.55-.61-4.05-.61s-2.85.17-3.96.49c-1.11.33-2.03.79-2.76,1.39-.72.6-1.26,1.33-1.62,2.18-.35.85-.53,1.8-.53,2.84h-6.07c0-1.9.35-3.61,1.05-5.14Z"/>
        <path class="cls-3" d="M2040.02,474.1v44.37h-6.07v-10.36l.04-.03c-.42,1.72-1.01,3.28-1.78,4.67-.76,1.39-1.67,2.58-2.73,3.56-1.05.98-2.24,1.73-3.56,2.26s-2.73.79-4.24.79c-1.36,0-2.65-.2-3.87-.58-1.22-.39-2.35-.95-3.38-1.68-1.03-.73-1.97-1.61-2.8-2.65-.83-1.03-1.54-2.2-2.12-3.49-.58-1.29-1.03-2.7-1.34-4.22-.32-1.52-.47-3.12-.47-4.81s.16-3.29.47-4.81c.32-1.52.76-2.92,1.34-4.21.58-1.29,1.29-2.45,2.12-3.49s1.77-1.92,2.8-2.65c1.03-.72,2.16-1.28,3.38-1.67,1.22-.39,2.51-.58,3.87-.58,1.51,0,2.92.27,4.24.79s2.51,1.28,3.56,2.26c1.05.98,1.96,2.16,2.73,3.55.76,1.39,1.36,2.94,1.78,4.66h-.04v-21.69h6.07ZM2033.64,498.42c-.21-1.08-.51-2.07-.91-2.97-.4-.89-.89-1.69-1.48-2.38s-1.26-1.28-2.02-1.75c-.75-.47-1.59-.84-2.5-1.09s-1.9-.37-2.96-.37c-1.62,0-3.05.26-4.29.79-1.24.52-2.29,1.3-3.13,2.32-.84,1.02-1.48,2.28-1.91,3.79-.43,1.5-.65,3.24-.65,5.19s.22,3.69.65,5.19c.43,1.5,1.07,2.77,1.92,3.79.84,1.02,1.89,1.8,3.13,2.32,1.24.52,2.67.79,4.29.79,1.06,0,2.05-.12,2.96-.37s1.75-.61,2.5-1.09c.75-.47,1.43-1.06,2.02-1.75.59-.69,1.08-1.49,1.48-2.39.4-.9.7-1.89.91-2.98.21-1.08.32-2.26.32-3.52s-.11-2.43-.32-3.52Z"/>
        <path class="cls-3" d="M2050.45,506.97c.48,1.46,1.17,2.7,2.06,3.73s1.98,1.81,3.25,2.36c1.27.55,2.71.82,4.29.82,1.09,0,2.09-.14,3.01-.4.92-.27,1.75-.67,2.5-1.21.74-.53,1.4-1.2,1.98-1.99.57-.79,1.06-1.72,1.46-2.77h6.07c-.43,1.85-1.1,3.51-2.01,4.98-.91,1.47-2.02,2.71-3.32,3.73s-2.79,1.8-4.45,2.34c-1.66.54-3.46.81-5.39.81-2.44,0-4.65-.42-6.65-1.26-1.99-.84-3.7-2.02-5.13-3.55-1.42-1.53-2.53-3.37-3.31-5.52-.78-2.15-1.17-4.53-1.17-7.15s.38-4.96,1.15-7.1c.77-2.13,1.86-3.96,3.27-5.49s3.1-2.7,5.07-3.54c1.97-.83,4.16-1.25,6.56-1.25s4.51.41,6.42,1.22c1.91.81,3.54,1.97,4.89,3.47,1.35,1.5,2.39,3.31,3.12,5.44.73,2.13,1.09,4.51,1.09,7.15,0,.38,0,.76-.02,1.13-.02.37-.04.78-.08,1.22h-26.68v-5.25h23.82l-3.21,5.2c.03-.34.05-.69.07-1.05.02-.36.02-.72.02-1.08,0-1.92-.21-3.62-.62-5.1-.41-1.48-1.02-2.74-1.82-3.75-.8-1.02-1.78-1.79-2.95-2.32-1.16-.53-2.5-.79-4.01-.79s-2.94.27-4.17.82c-1.23.55-2.28,1.34-3.15,2.37-.86,1.03-1.53,2.28-1.99,3.75-.46,1.47-.7,3.12-.7,4.95v.16c0,1.82.24,3.46.72,4.92Z"/>
        <path class="cls-3" d="M2085.12,518.47h-6.07v-33.05h6.07v9.38l-.04.03c.37-1.61.9-3.05,1.6-4.32s1.52-2.35,2.49-3.24c.96-.88,2.05-1.56,3.27-2.04,1.21-.47,2.53-.71,3.93-.71,1.49,0,2.85.26,4.08.79,1.23.52,2.3,1.29,3.22,2.29.92,1,1.68,2.22,2.29,3.66.6,1.44,1.03,3.07,1.28,4.9l-.07-.02c.31-1.8.8-3.42,1.48-4.85.67-1.43,1.51-2.65,2.5-3.66.99-1,2.13-1.77,3.4-2.31,1.27-.53,2.67-.8,4.17-.8,1.74,0,3.3.35,4.67,1.06s2.54,1.73,3.49,3.07c.95,1.33,1.68,2.96,2.19,4.87.5,1.91.76,4.07.76,6.47v18.48h-6.07v-18.48c0-1.66-.16-3.11-.47-4.35-.31-1.24-.79-2.28-1.42-3.12-.63-.83-1.42-1.46-2.37-1.88-.95-.42-2.05-.63-3.31-.63-1.37,0-2.59.24-3.67.71s-1.99,1.16-2.74,2.07c-.75.9-1.32,2.01-1.72,3.33-.4,1.31-.59,2.81-.59,4.47v17.88h-6.07v-18.48c0-1.66-.16-3.11-.47-4.35-.31-1.24-.79-2.28-1.42-3.12-.63-.83-1.42-1.46-2.37-1.88-.95-.42-2.05-.63-3.31-.63-1.37,0-2.59.24-3.67.71-1.07.47-1.99,1.16-2.74,2.07-.75.9-1.32,2.01-1.72,3.33-.4,1.31-.59,2.81-.59,4.47v17.88Z"/>
        <path class="cls-3" d="M2163.42,485.42l-13.69,35.14c-.69,1.76-1.49,3.28-2.41,4.56-.91,1.28-1.96,2.34-3.15,3.17-1.18.83-2.51,1.45-3.97,1.85-1.46.4-3.09.6-4.88.6-.49,0-.96-.01-1.42-.04-.46-.03-.9-.07-1.33-.14v-5.29c.53.06,1.02.11,1.48.14s.89.05,1.31.05c1,0,1.9-.09,2.71-.28.81-.19,1.53-.48,2.17-.88s1.19-.91,1.66-1.53c.47-.62.86-1.35,1.17-2.2l1.15-3.09-.25,3.25-13.6-35.3h6.3l11.56,31.07h-2.65l11.69-31.07h6.15Z"/>
      </g>
    </g>
  </g>
</svg>