<?xml version="1.0" encoding="UTF-8"?>
<svg id="Layer_1" data-name="Layer 1" xmlns="http://www.w3.org/2000/svg" width="1920" height="1080" viewBox="0 0 1920 1080">
  <defs>
    <style>
      .cls-1 {
        fill: #288cdd;
      }

      .cls-2 {
        fill: #efaf22;
      }

      .cls-3 {
        fill: #182750;
      }
    </style>
  </defs>
  <rect class="cls-3" x=".42" y="-.39" width="1920" height="1080"/>
  <g>
    <path class="cls-1" d="M933.96,387.35v37.88l-21.56,21.53v-59.68h-114.31l-21.59-21.56h135.62c12.06,0,21.83,9.77,21.83,21.83Z"/>
    <path class="cls-1" d="M1138.89,365.52l-21.56,21.56h-114.34v59.65l-21.56-21.56v-37.82c0-12.06,9.77-21.83,21.83-21.83h135.62Z"/>
    <path class="cls-1" d="M1138.89,433.47v203.68c0,17.38-6.9,34.03-19.18,46.33l-162.01,161.98-162.01-161.98c-12.28-12.31-19.18-28.95-19.18-46.33v-203.68l21.59,21.8v172.95c0,17.38,6.88,34.03,19.16,46.31l95.15,95.13,45.3,45.32,17.6-17.6,6.14-6.14,21.56-21.56v-.03l95.15-95.13c12.28-12.28,19.18-28.95,19.18-46.31v-173.52l21.56-21.23Z"/>
    <path class="cls-1" d="M1070.94,547.67v-32.99l-67.95-67.95-21.56-21.56-8.3-8.27c-8.51-8.51-22.32-8.51-30.83,0l-8.35,8.32-21.56,21.53-67.95,67.92v32.99h-46.36v21.59h46.36v66.75l21.56,21.58v-88.33h46.39v134.69l21.56,21.56v-156.25h47.48v156.41l21.56-21.59v-134.83h46.39v88.47l21.56-21.59v-66.88h46.39v-21.59h-46.39ZM912.4,547.67h-46.39v-24.04l46.39-46.39v70.43ZM981.44,547.67h-47.48v-91.99l23.74-23.74,23.74,23.74v91.99ZM1049.38,547.67h-46.39v-70.43l46.39,46.36v24.07Z"/>
    <polygon class="cls-2" points="957.7 280.83 977.48 295.2 969.92 271.95 989.7 257.58 965.25 257.58 957.7 234.32 950.14 257.58 925.69 257.58 945.47 271.95 937.92 295.2 957.7 280.83"/>
    <polygon class="cls-2" points="1045.15 304.27 1064.93 318.64 1057.38 295.39 1077.16 281.02 1052.71 281.02 1045.15 257.76 1037.59 281.02 1013.14 281.02 1032.93 295.39 1025.37 318.64 1045.15 304.27"/>
    <polygon class="cls-2" points="870.25 304.27 890.03 318.64 882.47 295.39 902.25 281.02 877.8 281.02 870.25 257.76 862.69 281.02 838.24 281.02 858.02 295.39 850.46 318.64 870.25 304.27"/>
  </g>
</svg>