<?xml version="1.0" encoding="UTF-8"?>
<svg id="Layer_1" data-name="Layer 1" xmlns="http://www.w3.org/2000/svg" width="1080" height="1080" xmlns:xlink="http://www.w3.org/1999/xlink" viewBox="0 0 1080 1080">
  <defs>
    <style>
      .cls-1 {
        fill: none;
      }

      .cls-2 {
        fill: url(#New_Pattern_2);
      }

      .cls-3 {
        fill: #072131;
      }

      .cls-4 {
        fill: #efaf22;
      }
    </style>
    <pattern id="New_Pattern_2" data-name="New Pattern 2" x="0" y="0" width="900" height="1000" patternTransform="translate(81.46 -3202.46)" patternUnits="userSpaceOnUse" viewBox="0 0 900 1000">
      <g>
        <rect class="cls-1" x="0" y="0" width="900" height="1000"/>
        <path class="cls-4" d="M1362.71,745.05v267.21c0,22.8-9.06,44.64-25.17,60.79l-212.54,212.5-212.54-212.5c-16.11-16.15-25.17-37.98-25.17-60.79v-267.21l28.32,28.6v226.9c0,22.8,9.02,44.64,25.13,60.75l124.83,124.8,59.43,59.46,23.09-23.09,8.05-8.05,28.28-28.28v-.03l124.83-124.8c16.11-16.11,25.17-37.98,25.17-60.75v-227.65l28.28-27.85Z"/>
        <g>
          <path class="cls-4" d="M912.71,745.05v267.21c0,22.8-9.06,44.64-25.17,60.79l-212.54,212.5-212.54-212.5c-16.11-16.15-25.17-37.98-25.17-60.79v-267.21l28.32,28.6v226.9c0,22.8,9.02,44.64,25.13,60.75l124.83,124.8,59.43,59.46,23.09-23.09,8.05-8.05,28.28-28.28v-.03l124.83-124.8c16.11-16.11,25.17-37.98,25.17-60.75v-227.65l28.28-27.85Z"/>
          <path class="cls-4" d="M823.57,1010.93l-28.28,28.32v-175.96l-120.28-120.25-120.29,120.29v175.74l-28.28-28.32v-159.16s115.62-115.51,128.38-128.27c12.76-12.76,29.59-10.86,40.45,0s128.31,128.27,128.31,128.27v159.34Z"/>
        </g>
        <g>
          <path class="cls-4" d="M462.71,745.05v267.21c0,22.8-9.06,44.64-25.17,60.79l-212.54,212.5L12.46,1073.05c-16.11-16.15-25.17-37.98-25.17-60.79v-267.21l28.32,28.6v226.9c0,22.8,9.02,44.64,25.13,60.75l124.83,124.8,59.43,59.46,23.09-23.09,8.05-8.05,28.28-28.28v-.03l124.83-124.8c16.11-16.11,25.17-37.98,25.17-60.75v-227.65l28.28-27.85Z"/>
          <path class="cls-4" d="M373.57,1010.93l-28.28,28.32v-175.96l-120.28-120.25-120.29,120.29v175.74l-28.28-28.32v-159.16s115.62-115.51,128.38-128.27c12.76-12.76,29.59-10.86,40.45,0,10.86,10.86,128.31,128.27,128.31,128.27v159.34Z"/>
        </g>
        <path class="cls-4" d="M12.71,745.05v267.21c0,22.8-9.06,44.64-25.17,60.79l-212.54,212.5-212.54-212.5c-16.11-16.15-25.17-37.98-25.17-60.79v-267.21l28.32,28.6v226.9c0,22.8,9.02,44.64,25.13,60.75l124.83,124.8,59.43,59.46,23.09-23.09,8.05-8.05,28.28-28.28v-.03l124.83-124.8c16.11-16.11,25.17-37.98,25.17-60.75v-227.65l28.28-27.85Z"/>
        <g>
          <path class="cls-4" d="M1137.71,245.05v267.21c0,22.8-9.06,44.64-25.17,60.79l-212.54,212.5-212.54-212.5c-16.11-16.15-25.17-37.98-25.17-60.79V245.05l28.32,28.6v226.9c0,22.8,9.02,44.64,25.13,60.75l124.83,124.8,59.43,59.46,23.09-23.09,8.05-8.05,28.28-28.28v-.03l124.83-124.8c16.11-16.11,25.17-37.98,25.17-60.75v-227.65l28.28-27.85Z"/>
          <path class="cls-4" d="M1048.57,510.93l-28.28,28.32v-175.96l-120.28-120.25-120.29,120.29v175.74l-28.28-28.32v-159.16s115.62-115.51,128.38-128.27c12.76-12.76,29.59-10.86,40.45,0s128.31,128.27,128.31,128.27v159.34Z"/>
        </g>
        <g>
          <path class="cls-4" d="M687.71,245.05v267.21c0,22.8-9.06,44.64-25.17,60.79l-212.54,212.5-212.54-212.5c-16.11-16.15-25.17-37.98-25.17-60.79V245.05l28.32,28.6v226.9c0,22.8,9.02,44.64,25.13,60.75l124.83,124.8,59.43,59.46,23.09-23.09,8.05-8.05,28.28-28.28v-.03l124.83-124.8c16.11-16.11,25.17-37.98,25.17-60.75v-227.65l28.28-27.85Z"/>
          <path class="cls-4" d="M598.57,510.93l-28.28,28.32v-175.96l-120.28-120.25-120.29,120.29v175.74l-28.28-28.32v-159.16s115.62-115.51,128.38-128.27c12.76-12.76,29.59-10.86,40.45,0,10.86,10.86,128.31,128.27,128.31,128.27v159.34Z"/>
        </g>
        <g>
          <path class="cls-4" d="M237.71,245.05v267.21c0,22.8-9.06,44.64-25.17,60.79L0,785.55l-212.54-212.5c-16.11-16.15-25.17-37.98-25.17-60.79V245.05l28.32,28.6v226.9c0,22.8,9.02,44.64,25.13,60.75l124.83,124.8L0,745.56l23.09-23.09,8.05-8.05,28.28-28.28v-.03l124.83-124.8c16.11-16.11,25.17-37.98,25.17-60.75v-227.65l28.28-27.85Z"/>
          <path class="cls-4" d="M148.57,510.93l-28.28,28.32v-175.96L0,243.05l-120.29,120.29v175.74l-28.28-28.32v-159.16S-32.95,236.08-20.19,223.32c12.76-12.76,29.59-10.86,40.45,0,10.86,10.86,128.31,128.27,128.31,128.27v159.34Z"/>
        </g>
        <path class="cls-4" d="M1362.71-254.95V12.26c0,22.8-9.06,44.64-25.17,60.79l-212.54,212.5-212.54-212.5c-16.11-16.15-25.17-37.98-25.17-60.79V-254.95l28.32,28.6V.55c0,22.8,9.02,44.64,25.13,60.75l124.83,124.8,59.43,59.46,23.09-23.09,8.05-8.05,28.28-28.28v-.03l124.83-124.8c16.11-16.11,25.17-37.98,25.17-60.75v-227.65l28.28-27.85Z"/>
        <g>
          <path class="cls-4" d="M912.71-254.95V12.26c0,22.8-9.06,44.64-25.17,60.79l-212.54,212.5-212.54-212.5c-16.11-16.15-25.17-37.98-25.17-60.79V-254.95l28.32,28.6V.55c0,22.8,9.02,44.64,25.13,60.75l124.83,124.8,59.43,59.46,23.09-23.09,8.05-8.05,28.28-28.28v-.03l124.83-124.8c16.11-16.11,25.17-37.98,25.17-60.75v-227.65l28.28-27.85Z"/>
          <path class="cls-4" d="M823.57,10.93l-28.28,28.32v-175.96l-120.28-120.25-120.29,120.29V39.07l-28.28-28.32v-159.16s115.62-115.51,128.38-128.27c12.76-12.76,29.59-10.86,40.45,0s128.31,128.27,128.31,128.27V10.93Z"/>
        </g>
        <g>
          <path class="cls-4" d="M462.71-254.95V12.26c0,22.8-9.06,44.64-25.17,60.79l-212.54,212.5L12.46,73.05C-3.65,56.9-12.71,35.06-12.71,12.26V-254.95l28.32,28.6V.55c0,22.8,9.02,44.64,25.13,60.75l124.83,124.8,59.43,59.46,23.09-23.09,8.05-8.05,28.28-28.28v-.03l124.83-124.8c16.11-16.11,25.17-37.98,25.17-60.75v-227.65l28.28-27.85Z"/>
          <path class="cls-4" d="M373.57,10.93l-28.28,28.32v-175.96l-120.28-120.25-120.29,120.29V39.07l-28.28-28.32v-159.16s115.62-115.51,128.38-128.27c12.76-12.76,29.59-10.86,40.45,0,10.86,10.86,128.31,128.27,128.31,128.27V10.93Z"/>
        </g>
        <path class="cls-4" d="M12.71-254.95V12.26c0,22.8-9.06,44.64-25.17,60.79l-212.54,212.5-212.54-212.5c-16.11-16.15-25.17-37.98-25.17-60.79V-254.95l28.32,28.6V.55c0,22.8,9.02,44.64,25.13,60.75l124.83,124.8,59.43,59.46,23.09-23.09,8.05-8.05,28.28-28.28v-.03L-40.74,61.3C-24.63,45.19-15.57,23.32-15.57.55v-227.65l28.28-27.85Z"/>
      </g>
    </pattern>
  </defs>
  <rect class="cls-3" width="1080" height="1080"/>
  <rect class="cls-2" width="1080" height="1080"/>
</svg>