<?xml version="1.0" encoding="UTF-8"?>
<svg id="Layer_1" data-name="Layer 1" xmlns="http://www.w3.org/2000/svg" width="3660" height="800" viewBox="0 0 3660 800">
  <defs>
    <style>
      .cls-1 {
        fill: #4f46e4;
      }

      .cls-2 {
        fill: #fff;
      }
    </style>
  </defs>
  <rect class="cls-1" x="0" width="3660" height="800"/>
  <g>
    <g>
      <path class="cls-2" d="M1456.59,390.01h0c-2.81,0-5.44,1.09-7.43,3.08l-51.33,51.33-18.65-18.65c-1.98-1.98-4.62-3.08-7.43-3.08s-5.44,1.09-7.43,3.08c-1.98,1.98-3.08,4.62-3.08,7.43s1.09,5.44,3.08,7.43l26.08,26.08c1.98,1.98,4.62,3.08,7.43,3.08s5.44-1.09,7.43-3.08l58.76-58.76c1.98-1.98,3.08-4.62,3.08-7.43s-1.09-5.44-3.08-7.43c-1.98-1.98-4.62-3.08-7.43-3.08Z"/>
      <path class="cls-2" d="M1503.83,396.05c-4.23-1.96-8.55-.04-10.97,2.19-2.87,2.66-4.02,6.66-3.01,10.45,2.13,7.94,3.05,16.19,2.73,24.51-.85,21.8-10.14,41.96-26.16,56.76-16.22,14.99-37.31,22.67-59.38,21.61-21.08-1.01-40.7-9.99-55.24-25.29-15.13-15.92-23.11-36.76-22.46-58.66.65-21.79,10.2-42.78,26.19-57.58,16.02-14.81,36.84-22.5,58.64-21.64,15.65.61,30.65,5.62,43.37,14.49,3.99,2.78,9.5,2.38,13.11-.94,2.37-2.19,3.59-5.29,3.36-8.51-.23-3.2-1.89-6.08-4.53-7.89-10.04-6.88-31.06-18.4-59.26-18.2-26.42.19-51.5,10.5-70.61,29.03-19.11,18.53-30.2,43.28-31.22,69.68-1.04,27.04,8.41,52.96,26.6,72.99,18.17,20,43.02,31.88,69.98,33.45,2,.12,4,.18,5.99.18,25.28,0,49.47-9.37,68.67-26.71,20.69-18.69,32.74-44.09,33.93-71.52,1.19-27.46-4.63-36.04-9.72-38.39Z"/>
    </g>
    <g>
      <path class="cls-2" d="M1579.94,362.44h24.33v132.87h-24.33v-132.87Z"/>
      <path class="cls-2" d="M1633.83,395.38h21.71l.56,17.03c5.43-13.66,16.66-19.28,29.94-19.28,22.08,0,34.06,15.53,34.06,37.99v64.19h-23.95v-56.52c0-16.84-4.49-26.2-17.4-26.2s-20.96,9.36-20.96,26.2v56.52h-23.95v-99.93Z"/>
      <path class="cls-2" d="M1751.54,416.52h-14.22v-18.53h14.22v-6.55c0-17.97,9.73-29.01,30.88-29.01h19.46v18.53h-14.97c-7.86,0-11.23,4.12-11.23,11.79v5.24h24.89v18.53h-24.89v78.79h-24.14v-78.79Z"/>
      <path class="cls-2" d="M1808.06,445.34c0-31.63,19.46-52.21,49.22-52.21s49.03,20.59,49.03,52.21-19.46,52.21-49.03,52.21-49.22-20.59-49.22-52.21ZM1881.41,445.34c0-20.58-8.8-32.75-24.14-32.75s-24.33,12.16-24.33,32.75,8.8,32.75,24.33,32.75,24.14-11.98,24.14-32.75Z"/>
      <path class="cls-2" d="M1912.29,395.38h24.52l19.46,72.8,20.02-72.8h20.96l20.21,72.8,19.46-72.8h24.52l-30.13,99.93h-24.7l-19.84-67-19.65,67h-24.7l-30.13-99.93Z"/>
      <path class="cls-2" d="M2067.43,445.34c0-31.63,19.46-52.21,49.22-52.21s49.03,20.59,49.03,52.21-19.46,52.21-49.03,52.21-49.22-20.59-49.22-52.21ZM2140.79,445.34c0-20.58-8.8-32.75-24.14-32.75s-24.33,12.16-24.33,32.75,8.8,32.75,24.33,32.75,24.14-11.98,24.14-32.75Z"/>
      <path class="cls-2" d="M2184.2,395.38h22.46l.56,19.46c3.93-13.47,11.6-19.46,23.95-19.46h9.17v20.59h-9.36c-15.34,0-22.83,6.36-22.83,21.71v57.64h-23.95v-99.93Z"/>
      <path class="cls-2" d="M2255.87,362.44h23.95v78.04l40.98-45.1h29.57l-39.11,41.54,40.42,58.39h-26.95l-29.19-44.17-15.72,16.66v27.51h-23.95v-132.87Z"/>
    </g>
  </g>
</svg>